G04 EAGLE Gerber RS-274X export*
G75*
%MOMM*%
%FSLAX34Y34*%
%LPD*%
%INBottom Copper*%
%IPPOS*%
%AMOC8*
5,1,8,0,0,1.08239X$1,22.5*%
G01*
%ADD10C,1.308000*%
%ADD11R,1.879600X1.879600*%
%ADD12C,1.879600*%
%ADD13C,5.080000*%
%ADD14R,1.270000X0.635000*%
%ADD15C,0.203200*%
%ADD16R,0.635000X1.270000*%
%ADD17C,1.981200*%
%ADD18C,0.812800*%
%ADD19C,1.930400*%
%ADD20C,0.609600*%
%ADD21C,1.950000*%
%ADD22C,1.900000*%

G36*
X566720Y4005D02*
X566720Y4005D01*
X566780Y4003D01*
X567004Y4025D01*
X567228Y4041D01*
X567287Y4053D01*
X567347Y4059D01*
X567566Y4113D01*
X567785Y4160D01*
X567842Y4180D01*
X567901Y4195D01*
X568109Y4278D01*
X568320Y4356D01*
X568374Y4384D01*
X568430Y4406D01*
X568625Y4518D01*
X568823Y4624D01*
X568872Y4660D01*
X568924Y4690D01*
X569015Y4765D01*
X569283Y4961D01*
X569444Y5118D01*
X569533Y5191D01*
X584809Y20467D01*
X584849Y20513D01*
X584893Y20554D01*
X585035Y20728D01*
X585183Y20897D01*
X585216Y20948D01*
X585254Y20995D01*
X585371Y21187D01*
X585493Y21375D01*
X585518Y21430D01*
X585549Y21482D01*
X585638Y21688D01*
X585733Y21892D01*
X585750Y21950D01*
X585774Y22006D01*
X585832Y22222D01*
X585898Y22438D01*
X585907Y22497D01*
X585923Y22555D01*
X585934Y22673D01*
X585985Y23001D01*
X585988Y23225D01*
X585999Y23340D01*
X585999Y394784D01*
X585991Y394900D01*
X585993Y395015D01*
X585971Y395183D01*
X585959Y395353D01*
X585935Y395466D01*
X585921Y395580D01*
X585876Y395744D01*
X585840Y395910D01*
X585801Y396018D01*
X585770Y396129D01*
X585703Y396285D01*
X585644Y396445D01*
X585590Y396547D01*
X585544Y396653D01*
X585456Y396797D01*
X585376Y396948D01*
X585308Y397041D01*
X585248Y397139D01*
X585140Y397270D01*
X585039Y397407D01*
X584959Y397490D01*
X584886Y397579D01*
X584760Y397694D01*
X584642Y397816D01*
X584551Y397886D01*
X584466Y397964D01*
X584326Y398060D01*
X584191Y398164D01*
X584091Y398221D01*
X583996Y398287D01*
X583844Y398362D01*
X583696Y398447D01*
X583589Y398489D01*
X583486Y398541D01*
X583325Y398594D01*
X583167Y398657D01*
X583054Y398684D01*
X582945Y398720D01*
X582778Y398751D01*
X582613Y398791D01*
X582498Y398802D01*
X582385Y398823D01*
X582215Y398830D01*
X582046Y398846D01*
X581931Y398841D01*
X581815Y398846D01*
X581646Y398829D01*
X581476Y398822D01*
X581363Y398801D01*
X581248Y398789D01*
X581083Y398749D01*
X580916Y398718D01*
X580807Y398681D01*
X580695Y398654D01*
X580537Y398590D01*
X580376Y398536D01*
X580273Y398485D01*
X580166Y398442D01*
X580019Y398357D01*
X579867Y398281D01*
X579772Y398216D01*
X579672Y398158D01*
X579583Y398085D01*
X579398Y397957D01*
X579154Y397732D01*
X579063Y397658D01*
X577568Y396163D01*
X574604Y394935D01*
X548667Y394935D01*
X548607Y394931D01*
X548546Y394933D01*
X548323Y394911D01*
X548099Y394895D01*
X548039Y394883D01*
X547979Y394877D01*
X547761Y394823D01*
X547541Y394776D01*
X547485Y394756D01*
X547426Y394741D01*
X547217Y394658D01*
X547006Y394580D01*
X546953Y394552D01*
X546897Y394530D01*
X546702Y394418D01*
X546504Y394312D01*
X546455Y394276D01*
X546403Y394246D01*
X546312Y394171D01*
X546044Y393975D01*
X545883Y393818D01*
X545794Y393745D01*
X545222Y393173D01*
X545071Y392999D01*
X544915Y392830D01*
X544884Y392784D01*
X544848Y392743D01*
X544723Y392550D01*
X544593Y392360D01*
X544568Y392311D01*
X544538Y392265D01*
X544441Y392056D01*
X544339Y391850D01*
X544322Y391798D01*
X544298Y391748D01*
X544232Y391527D01*
X544159Y391309D01*
X544149Y391255D01*
X544133Y391203D01*
X544098Y390975D01*
X544057Y390749D01*
X544054Y390694D01*
X544046Y390640D01*
X544043Y390410D01*
X544033Y390179D01*
X544039Y390125D01*
X544038Y390070D01*
X544067Y389842D01*
X544090Y389612D01*
X544103Y389559D01*
X544110Y389505D01*
X544171Y389282D01*
X544226Y389059D01*
X544246Y389008D01*
X544261Y388955D01*
X544352Y388743D01*
X544438Y388530D01*
X544465Y388482D01*
X544487Y388432D01*
X544607Y388235D01*
X544721Y388036D01*
X544749Y388001D01*
X544783Y387946D01*
X545145Y387505D01*
X545194Y387461D01*
X545222Y387427D01*
X545794Y386855D01*
X545839Y386815D01*
X545880Y386771D01*
X546055Y386628D01*
X546224Y386481D01*
X546275Y386448D01*
X546321Y386410D01*
X546514Y386293D01*
X546702Y386171D01*
X546757Y386146D01*
X546809Y386115D01*
X547015Y386026D01*
X547219Y385931D01*
X547277Y385914D01*
X547332Y385890D01*
X547549Y385831D01*
X547764Y385766D01*
X547824Y385757D01*
X547882Y385741D01*
X547999Y385730D01*
X548328Y385679D01*
X548552Y385676D01*
X548667Y385665D01*
X554004Y385665D01*
X556968Y384437D01*
X566837Y374568D01*
X568065Y371604D01*
X568065Y68396D01*
X566837Y65432D01*
X564941Y63536D01*
X564901Y63490D01*
X564857Y63449D01*
X564715Y63275D01*
X564567Y63105D01*
X564534Y63055D01*
X564496Y63008D01*
X564379Y62816D01*
X564257Y62627D01*
X564232Y62572D01*
X564201Y62521D01*
X564112Y62314D01*
X564017Y62110D01*
X564000Y62053D01*
X563976Y61997D01*
X563918Y61780D01*
X563852Y61565D01*
X563843Y61505D01*
X563827Y61447D01*
X563816Y61330D01*
X563765Y61002D01*
X563762Y60777D01*
X563751Y60662D01*
X563751Y57265D01*
X561657Y52211D01*
X557789Y48343D01*
X552735Y46249D01*
X547265Y46249D01*
X542211Y48343D01*
X538343Y52211D01*
X536249Y57265D01*
X536249Y59394D01*
X536241Y59510D01*
X536243Y59625D01*
X536221Y59793D01*
X536209Y59963D01*
X536185Y60076D01*
X536171Y60190D01*
X536126Y60354D01*
X536090Y60520D01*
X536051Y60628D01*
X536020Y60739D01*
X535953Y60895D01*
X535894Y61055D01*
X535840Y61157D01*
X535794Y61263D01*
X535706Y61408D01*
X535626Y61558D01*
X535558Y61651D01*
X535498Y61749D01*
X535390Y61880D01*
X535289Y62017D01*
X535209Y62100D01*
X535136Y62189D01*
X535011Y62304D01*
X534892Y62426D01*
X534801Y62496D01*
X534716Y62574D01*
X534576Y62670D01*
X534441Y62774D01*
X534341Y62832D01*
X534246Y62897D01*
X534094Y62972D01*
X533946Y63057D01*
X533839Y63099D01*
X533736Y63151D01*
X533575Y63204D01*
X533417Y63267D01*
X533304Y63294D01*
X533195Y63330D01*
X533028Y63361D01*
X532863Y63401D01*
X532748Y63412D01*
X532635Y63433D01*
X532465Y63440D01*
X532296Y63456D01*
X532181Y63451D01*
X532065Y63456D01*
X531896Y63439D01*
X531726Y63432D01*
X531613Y63411D01*
X531499Y63399D01*
X531333Y63359D01*
X531166Y63328D01*
X531057Y63291D01*
X530945Y63264D01*
X530787Y63200D01*
X530626Y63146D01*
X530523Y63095D01*
X530416Y63052D01*
X530269Y62967D01*
X530117Y62891D01*
X530022Y62826D01*
X529922Y62768D01*
X529833Y62695D01*
X529648Y62567D01*
X529404Y62342D01*
X529313Y62268D01*
X483768Y16723D01*
X480804Y15495D01*
X321856Y15495D01*
X318892Y16723D01*
X274363Y61252D01*
X273868Y62446D01*
X273135Y64216D01*
X273135Y68233D01*
X273131Y68293D01*
X273133Y68354D01*
X273111Y68577D01*
X273095Y68801D01*
X273083Y68861D01*
X273077Y68921D01*
X273023Y69139D01*
X272976Y69359D01*
X272956Y69415D01*
X272941Y69474D01*
X272858Y69683D01*
X272780Y69894D01*
X272752Y69947D01*
X272730Y70003D01*
X272618Y70198D01*
X272512Y70396D01*
X272476Y70445D01*
X272446Y70497D01*
X272371Y70588D01*
X272175Y70856D01*
X272018Y71017D01*
X271945Y71106D01*
X270223Y72828D01*
X270049Y72979D01*
X269880Y73135D01*
X269834Y73166D01*
X269793Y73202D01*
X269600Y73327D01*
X269410Y73457D01*
X269361Y73482D01*
X269315Y73512D01*
X269106Y73609D01*
X268900Y73711D01*
X268848Y73728D01*
X268798Y73752D01*
X268578Y73818D01*
X268359Y73891D01*
X268305Y73901D01*
X268253Y73917D01*
X268026Y73952D01*
X267799Y73993D01*
X267744Y73996D01*
X267690Y74004D01*
X267460Y74007D01*
X267229Y74017D01*
X267175Y74011D01*
X267120Y74012D01*
X266891Y73983D01*
X266663Y73960D01*
X266609Y73947D01*
X266555Y73940D01*
X266332Y73879D01*
X266109Y73824D01*
X266058Y73804D01*
X266005Y73789D01*
X265794Y73698D01*
X265580Y73613D01*
X265532Y73585D01*
X265482Y73563D01*
X265285Y73444D01*
X265086Y73329D01*
X265052Y73301D01*
X264996Y73267D01*
X264555Y72905D01*
X264511Y72857D01*
X264477Y72828D01*
X261090Y69441D01*
X256165Y67401D01*
X250835Y67401D01*
X245910Y69441D01*
X243806Y71545D01*
X243761Y71585D01*
X243720Y71629D01*
X243545Y71772D01*
X243376Y71919D01*
X243325Y71952D01*
X243279Y71990D01*
X243087Y72106D01*
X242898Y72229D01*
X242843Y72254D01*
X242791Y72285D01*
X242585Y72374D01*
X242381Y72469D01*
X242323Y72486D01*
X242268Y72510D01*
X242051Y72568D01*
X241836Y72634D01*
X241776Y72643D01*
X241718Y72659D01*
X241601Y72670D01*
X241273Y72721D01*
X241048Y72724D01*
X240933Y72735D01*
X231596Y72735D01*
X228632Y73963D01*
X215343Y87252D01*
X214115Y90216D01*
X214115Y140136D01*
X214111Y140197D01*
X214113Y140257D01*
X214091Y140480D01*
X214075Y140705D01*
X214063Y140764D01*
X214057Y140824D01*
X214003Y141042D01*
X213956Y141262D01*
X213936Y141319D01*
X213921Y141377D01*
X213838Y141586D01*
X213760Y141797D01*
X213732Y141850D01*
X213710Y141906D01*
X213598Y142101D01*
X213492Y142300D01*
X213456Y142348D01*
X213426Y142401D01*
X213351Y142492D01*
X213155Y142759D01*
X212998Y142921D01*
X212925Y143010D01*
X139143Y216792D01*
X137915Y219756D01*
X137915Y240041D01*
X137911Y240101D01*
X137913Y240162D01*
X137891Y240385D01*
X137875Y240609D01*
X137863Y240668D01*
X137857Y240728D01*
X137803Y240947D01*
X137756Y241166D01*
X137735Y241223D01*
X137721Y241282D01*
X137638Y241490D01*
X137560Y241701D01*
X137532Y241755D01*
X137509Y241811D01*
X137398Y242006D01*
X137292Y242204D01*
X137256Y242253D01*
X137226Y242305D01*
X137151Y242396D01*
X136981Y242628D01*
X135355Y246553D01*
X135355Y250746D01*
X136960Y254621D01*
X139925Y257586D01*
X143799Y259191D01*
X147993Y259191D01*
X151867Y257586D01*
X154832Y254621D01*
X156437Y250746D01*
X156437Y246553D01*
X154760Y242504D01*
X154674Y242362D01*
X154552Y242174D01*
X154526Y242119D01*
X154495Y242067D01*
X154406Y241861D01*
X154312Y241657D01*
X154294Y241599D01*
X154270Y241543D01*
X154211Y241326D01*
X154146Y241112D01*
X154137Y241052D01*
X154121Y240993D01*
X154110Y240876D01*
X154059Y240549D01*
X154056Y240323D01*
X154045Y240209D01*
X154045Y226384D01*
X154049Y226323D01*
X154047Y226263D01*
X154069Y226040D01*
X154085Y225815D01*
X154097Y225756D01*
X154103Y225696D01*
X154157Y225478D01*
X154204Y225258D01*
X154224Y225201D01*
X154239Y225143D01*
X154322Y224934D01*
X154400Y224723D01*
X154428Y224670D01*
X154450Y224614D01*
X154562Y224419D01*
X154668Y224220D01*
X154704Y224172D01*
X154734Y224119D01*
X154809Y224028D01*
X155005Y223761D01*
X155162Y223599D01*
X155235Y223510D01*
X184042Y194704D01*
X184103Y194650D01*
X184159Y194591D01*
X184318Y194464D01*
X184472Y194330D01*
X184540Y194286D01*
X184603Y194235D01*
X184779Y194131D01*
X184950Y194020D01*
X185024Y193986D01*
X185093Y193945D01*
X185282Y193866D01*
X185467Y193780D01*
X185544Y193757D01*
X185619Y193726D01*
X185817Y193674D01*
X186012Y193615D01*
X186092Y193603D01*
X186171Y193582D01*
X186374Y193559D01*
X186575Y193528D01*
X186656Y193527D01*
X186737Y193517D01*
X186941Y193523D01*
X187145Y193520D01*
X187225Y193530D01*
X187307Y193533D01*
X187508Y193566D01*
X187710Y193592D01*
X187788Y193614D01*
X187868Y193627D01*
X188063Y193689D01*
X188260Y193743D01*
X188334Y193775D01*
X188412Y193799D01*
X188595Y193888D01*
X188783Y193968D01*
X188852Y194011D01*
X188925Y194046D01*
X189095Y194159D01*
X189269Y194265D01*
X189332Y194317D01*
X189399Y194362D01*
X189552Y194498D01*
X189709Y194627D01*
X189764Y194687D01*
X189825Y194741D01*
X189956Y194897D01*
X190094Y195047D01*
X190140Y195114D01*
X190193Y195176D01*
X190301Y195348D01*
X190417Y195517D01*
X190453Y195589D01*
X190496Y195658D01*
X190580Y195844D01*
X190671Y196027D01*
X190696Y196104D01*
X190730Y196178D01*
X190760Y196296D01*
X190851Y196568D01*
X190897Y196823D01*
X191162Y197638D01*
X196904Y191895D01*
X197078Y191744D01*
X197248Y191589D01*
X197293Y191558D01*
X197334Y191522D01*
X197528Y191396D01*
X197717Y191266D01*
X197766Y191242D01*
X197812Y191212D01*
X198022Y191115D01*
X198227Y191012D01*
X198279Y190995D01*
X198329Y190972D01*
X198550Y190905D01*
X198768Y190832D01*
X198822Y190823D01*
X198875Y190807D01*
X199102Y190771D01*
X199329Y190730D01*
X199384Y190728D01*
X199438Y190719D01*
X199667Y190716D01*
X199898Y190707D01*
X199899Y190707D01*
X199953Y190712D01*
X200007Y190712D01*
X200008Y190712D01*
X200237Y190741D01*
X200466Y190764D01*
X200519Y190777D01*
X200573Y190784D01*
X200796Y190845D01*
X201019Y190899D01*
X201070Y190920D01*
X201123Y190934D01*
X201335Y191026D01*
X201548Y191111D01*
X201595Y191138D01*
X201646Y191160D01*
X201843Y191280D01*
X202042Y191394D01*
X202076Y191423D01*
X202132Y191457D01*
X202573Y191819D01*
X202617Y191867D01*
X202651Y191895D01*
X208393Y197638D01*
X208635Y196895D01*
X208858Y195483D01*
X208858Y194054D01*
X208635Y192642D01*
X208281Y191554D01*
X208223Y191321D01*
X208160Y191089D01*
X208154Y191044D01*
X208144Y191001D01*
X208119Y190762D01*
X208089Y190523D01*
X208089Y190479D01*
X208085Y190434D01*
X208094Y190194D01*
X208097Y189954D01*
X208104Y189910D01*
X208106Y189865D01*
X208148Y189628D01*
X208185Y189391D01*
X208198Y189348D01*
X208206Y189304D01*
X208281Y189076D01*
X208351Y188845D01*
X208370Y188805D01*
X208384Y188763D01*
X208490Y188547D01*
X208592Y188329D01*
X208616Y188292D01*
X208636Y188252D01*
X208771Y188053D01*
X208902Y187851D01*
X208932Y187818D01*
X208957Y187781D01*
X209118Y187603D01*
X209276Y187422D01*
X209310Y187392D01*
X209340Y187359D01*
X209525Y187206D01*
X209707Y187048D01*
X209744Y187024D01*
X209779Y186996D01*
X209984Y186870D01*
X210186Y186739D01*
X210226Y186721D01*
X210264Y186697D01*
X210485Y186601D01*
X210703Y186500D01*
X210745Y186487D01*
X210786Y186469D01*
X211018Y186405D01*
X211248Y186336D01*
X211293Y186329D01*
X211335Y186317D01*
X211573Y186286D01*
X211812Y186249D01*
X211856Y186249D01*
X211900Y186243D01*
X212140Y186245D01*
X212381Y186242D01*
X212426Y186248D01*
X212470Y186248D01*
X212708Y186284D01*
X212946Y186315D01*
X212981Y186326D01*
X213033Y186333D01*
X213579Y186497D01*
X213651Y186529D01*
X213701Y186545D01*
X215641Y187349D01*
X219835Y187349D01*
X223801Y185706D01*
X223820Y185689D01*
X223871Y185656D01*
X223918Y185618D01*
X224110Y185501D01*
X224298Y185379D01*
X224353Y185354D01*
X224405Y185322D01*
X224611Y185234D01*
X224815Y185139D01*
X224873Y185122D01*
X224929Y185098D01*
X225145Y185039D01*
X225360Y184974D01*
X225420Y184965D01*
X225479Y184949D01*
X225596Y184938D01*
X225923Y184887D01*
X226148Y184884D01*
X226263Y184873D01*
X227876Y184873D01*
X230840Y183645D01*
X236039Y178446D01*
X236085Y178406D01*
X236126Y178362D01*
X236300Y178220D01*
X236470Y178072D01*
X236520Y178039D01*
X236567Y178001D01*
X236759Y177884D01*
X236948Y177762D01*
X237003Y177737D01*
X237054Y177706D01*
X237261Y177617D01*
X237465Y177522D01*
X237522Y177505D01*
X237578Y177481D01*
X237795Y177423D01*
X238010Y177357D01*
X238070Y177348D01*
X238128Y177332D01*
X238245Y177321D01*
X238573Y177270D01*
X238798Y177267D01*
X238913Y177256D01*
X240146Y177256D01*
X241616Y176647D01*
X242742Y175521D01*
X243312Y174143D01*
X243390Y173989D01*
X243458Y173830D01*
X243517Y173734D01*
X243567Y173633D01*
X243665Y173491D01*
X243755Y173344D01*
X243826Y173257D01*
X243890Y173164D01*
X244007Y173037D01*
X244117Y172904D01*
X244200Y172828D01*
X244276Y172745D01*
X244409Y172635D01*
X244537Y172518D01*
X244629Y172455D01*
X244716Y172383D01*
X244864Y172293D01*
X245006Y172196D01*
X245107Y172146D01*
X245203Y172087D01*
X245362Y172019D01*
X245516Y171942D01*
X245623Y171907D01*
X245727Y171862D01*
X245893Y171817D01*
X246057Y171762D01*
X246168Y171742D01*
X246276Y171712D01*
X246448Y171691D01*
X246618Y171660D01*
X246730Y171655D01*
X246842Y171641D01*
X247014Y171644D01*
X247187Y171637D01*
X247299Y171648D01*
X247411Y171649D01*
X247582Y171676D01*
X247754Y171693D01*
X247863Y171720D01*
X247974Y171737D01*
X248140Y171788D01*
X248307Y171829D01*
X248411Y171871D01*
X248519Y171903D01*
X248676Y171977D01*
X248836Y172041D01*
X248934Y172096D01*
X249036Y172144D01*
X249181Y172238D01*
X249331Y172324D01*
X249397Y172378D01*
X249514Y172454D01*
X249929Y172816D01*
X249940Y172825D01*
X251343Y174228D01*
X251494Y174402D01*
X251649Y174571D01*
X251680Y174617D01*
X251716Y174658D01*
X251842Y174851D01*
X251972Y175041D01*
X251996Y175090D01*
X252026Y175136D01*
X252123Y175345D01*
X252226Y175551D01*
X252243Y175603D01*
X252266Y175653D01*
X252333Y175874D01*
X252406Y176092D01*
X252415Y176146D01*
X252431Y176198D01*
X252467Y176426D01*
X252508Y176652D01*
X252510Y176707D01*
X252519Y176762D01*
X252522Y176991D01*
X252531Y177222D01*
X252526Y177277D01*
X252526Y177331D01*
X252497Y177559D01*
X252474Y177789D01*
X252461Y177842D01*
X252454Y177896D01*
X252393Y178119D01*
X252339Y178342D01*
X252318Y178393D01*
X252304Y178446D01*
X252212Y178658D01*
X252127Y178871D01*
X252100Y178918D01*
X252078Y178969D01*
X251958Y179166D01*
X251844Y179365D01*
X251815Y179400D01*
X251781Y179456D01*
X251419Y179896D01*
X251371Y179940D01*
X251343Y179974D01*
X250258Y181059D01*
X249649Y182529D01*
X249649Y200266D01*
X249649Y200268D01*
X249649Y200271D01*
X249629Y200555D01*
X249609Y200834D01*
X249609Y200837D01*
X249609Y200839D01*
X249547Y201125D01*
X249490Y201391D01*
X249489Y201394D01*
X249489Y201396D01*
X249395Y201652D01*
X249294Y201926D01*
X249293Y201929D01*
X249292Y201931D01*
X249163Y202173D01*
X249026Y202429D01*
X249024Y202431D01*
X249023Y202433D01*
X248849Y202670D01*
X248689Y202889D01*
X248687Y202890D01*
X248686Y202893D01*
X248494Y203089D01*
X248292Y203297D01*
X248290Y203298D01*
X248288Y203300D01*
X248062Y203475D01*
X247841Y203646D01*
X247839Y203647D01*
X247837Y203648D01*
X247828Y203653D01*
X244723Y206758D01*
X243118Y210632D01*
X243118Y214825D01*
X243128Y214850D01*
X243165Y214959D01*
X243211Y215065D01*
X243255Y215229D01*
X243309Y215390D01*
X243330Y215504D01*
X243360Y215615D01*
X243381Y215783D01*
X243412Y215950D01*
X243417Y216066D01*
X243432Y216180D01*
X243429Y216350D01*
X243436Y216520D01*
X243425Y216635D01*
X243423Y216750D01*
X243397Y216917D01*
X243380Y217087D01*
X243353Y217199D01*
X243335Y217313D01*
X243286Y217475D01*
X243245Y217640D01*
X243203Y217747D01*
X243169Y217858D01*
X243097Y218012D01*
X243034Y218170D01*
X242977Y218270D01*
X242929Y218374D01*
X242836Y218517D01*
X242752Y218664D01*
X242681Y218755D01*
X242618Y218852D01*
X242507Y218980D01*
X242402Y219114D01*
X242319Y219195D01*
X242244Y219282D01*
X242116Y219393D01*
X241994Y219511D01*
X241900Y219579D01*
X241813Y219655D01*
X241671Y219747D01*
X241533Y219847D01*
X241431Y219901D01*
X241335Y219964D01*
X241180Y220035D01*
X241030Y220115D01*
X240922Y220155D01*
X240817Y220203D01*
X240655Y220252D01*
X240495Y220310D01*
X240382Y220334D01*
X240272Y220368D01*
X240104Y220393D01*
X239938Y220429D01*
X239823Y220437D01*
X239709Y220454D01*
X239539Y220456D01*
X239369Y220468D01*
X239254Y220460D01*
X239139Y220461D01*
X238971Y220439D01*
X238801Y220427D01*
X238688Y220403D01*
X238574Y220388D01*
X238463Y220355D01*
X238244Y220307D01*
X237933Y220193D01*
X237820Y220159D01*
X237795Y220149D01*
X233602Y220149D01*
X229728Y221753D01*
X226763Y224718D01*
X225158Y228593D01*
X225158Y232786D01*
X226763Y236660D01*
X229728Y239625D01*
X233602Y241230D01*
X233990Y241230D01*
X234152Y241241D01*
X234314Y241243D01*
X234436Y241261D01*
X234559Y241270D01*
X234717Y241304D01*
X234877Y241328D01*
X234995Y241363D01*
X235116Y241389D01*
X235268Y241445D01*
X235423Y241491D01*
X235535Y241542D01*
X235651Y241585D01*
X235794Y241661D01*
X235941Y241729D01*
X236045Y241795D01*
X236154Y241854D01*
X236284Y241949D01*
X236420Y242037D01*
X236489Y242099D01*
X236613Y242190D01*
X236963Y242531D01*
X237003Y242567D01*
X244480Y250830D01*
X244558Y250930D01*
X244644Y251024D01*
X244734Y251154D01*
X244831Y251278D01*
X244895Y251388D01*
X244967Y251493D01*
X245038Y251634D01*
X245117Y251771D01*
X245165Y251889D01*
X245221Y252003D01*
X245271Y252153D01*
X245331Y252300D01*
X245362Y252423D01*
X245402Y252543D01*
X245430Y252699D01*
X245469Y252852D01*
X245482Y252979D01*
X245505Y253104D01*
X245511Y253262D01*
X245528Y253419D01*
X245523Y253546D01*
X245528Y253673D01*
X245513Y253830D01*
X245507Y253989D01*
X245485Y254114D01*
X245472Y254240D01*
X245435Y254394D01*
X245407Y254550D01*
X245367Y254670D01*
X245337Y254794D01*
X245278Y254941D01*
X245229Y255091D01*
X245173Y255205D01*
X245126Y255323D01*
X245047Y255460D01*
X244977Y255602D01*
X244906Y255707D01*
X244843Y255817D01*
X244746Y255942D01*
X244657Y256073D01*
X244571Y256167D01*
X244493Y256267D01*
X244412Y256342D01*
X244273Y256495D01*
X243994Y256726D01*
X243913Y256801D01*
X236988Y262021D01*
X236888Y262086D01*
X236793Y262159D01*
X236693Y262212D01*
X236510Y262331D01*
X236199Y262476D01*
X236097Y262530D01*
X236042Y262553D01*
X235506Y263088D01*
X235085Y263454D01*
X235079Y263460D01*
X234474Y263916D01*
X234444Y263968D01*
X234376Y264066D01*
X234316Y264170D01*
X234244Y264258D01*
X234121Y264437D01*
X233889Y264690D01*
X233816Y264779D01*
X233773Y264822D01*
X233483Y265521D01*
X233234Y266020D01*
X233231Y266028D01*
X232847Y266680D01*
X232838Y266740D01*
X232813Y266857D01*
X232798Y266976D01*
X232765Y267085D01*
X232720Y267297D01*
X232602Y267620D01*
X232568Y267730D01*
X232545Y267786D01*
X232545Y268543D01*
X232506Y269099D01*
X232506Y269108D01*
X232401Y269858D01*
X232416Y269916D01*
X232438Y270034D01*
X232469Y270149D01*
X232480Y270262D01*
X232519Y270476D01*
X232534Y270819D01*
X232545Y270934D01*
X232545Y304684D01*
X232541Y304744D01*
X232543Y304804D01*
X232526Y304975D01*
X232519Y305141D01*
X232509Y305193D01*
X232505Y305252D01*
X232493Y305311D01*
X232487Y305371D01*
X232444Y305544D01*
X232415Y305701D01*
X232399Y305749D01*
X232386Y305809D01*
X232366Y305866D01*
X232351Y305925D01*
X232283Y306096D01*
X232234Y306241D01*
X232213Y306283D01*
X232190Y306344D01*
X232162Y306398D01*
X232140Y306454D01*
X232045Y306619D01*
X231979Y306751D01*
X231954Y306787D01*
X231922Y306847D01*
X231886Y306896D01*
X231856Y306948D01*
X231781Y307039D01*
X231754Y307076D01*
X231655Y307219D01*
X231627Y307250D01*
X231585Y307307D01*
X231428Y307468D01*
X231355Y307557D01*
X229036Y309876D01*
X226957Y314894D01*
X226957Y320326D01*
X229036Y325344D01*
X232876Y329184D01*
X237649Y331161D01*
X237803Y331238D01*
X237962Y331307D01*
X238058Y331365D01*
X238158Y331415D01*
X238301Y331513D01*
X238448Y331603D01*
X238535Y331675D01*
X238628Y331739D01*
X238755Y331856D01*
X238888Y331965D01*
X238964Y332048D01*
X239047Y332124D01*
X239157Y332258D01*
X239273Y332385D01*
X239337Y332478D01*
X239408Y332565D01*
X239498Y332712D01*
X239596Y332855D01*
X239646Y332955D01*
X239704Y333052D01*
X239773Y333210D01*
X239850Y333365D01*
X239885Y333472D01*
X239930Y333575D01*
X239975Y333742D01*
X240029Y333906D01*
X240050Y334016D01*
X240079Y334125D01*
X240101Y334296D01*
X240132Y334466D01*
X240137Y334579D01*
X240151Y334690D01*
X240148Y334863D01*
X240155Y335035D01*
X240144Y335148D01*
X240142Y335260D01*
X240115Y335430D01*
X240098Y335602D01*
X240071Y335712D01*
X240054Y335823D01*
X240004Y335988D01*
X239963Y336156D01*
X239921Y336260D01*
X239888Y336368D01*
X239815Y336524D01*
X239751Y336685D01*
X239695Y336783D01*
X239648Y336884D01*
X239554Y337029D01*
X239468Y337179D01*
X239413Y337245D01*
X239337Y337362D01*
X238975Y337778D01*
X238967Y337788D01*
X214954Y361801D01*
X214907Y361841D01*
X214865Y361887D01*
X214693Y362028D01*
X214524Y362174D01*
X214472Y362208D01*
X214424Y362247D01*
X214233Y362363D01*
X214046Y362484D01*
X213989Y362510D01*
X213936Y362542D01*
X213731Y362630D01*
X213529Y362724D01*
X213470Y362742D01*
X213412Y362766D01*
X213197Y362825D01*
X212984Y362889D01*
X212922Y362899D01*
X212862Y362915D01*
X212744Y362926D01*
X212421Y362976D01*
X212193Y362979D01*
X212077Y362991D01*
X159179Y362942D01*
X159115Y362937D01*
X159051Y362940D01*
X158831Y362917D01*
X158611Y362901D01*
X158548Y362888D01*
X158484Y362881D01*
X158270Y362828D01*
X158054Y362782D01*
X157993Y362760D01*
X157931Y362744D01*
X157726Y362661D01*
X157519Y362585D01*
X157462Y362555D01*
X157402Y362531D01*
X157211Y362420D01*
X157017Y362316D01*
X156965Y362278D01*
X156909Y362246D01*
X156736Y362110D01*
X156557Y361979D01*
X156511Y361934D01*
X156460Y361895D01*
X156308Y361736D01*
X156149Y361582D01*
X156110Y361531D01*
X156065Y361484D01*
X155998Y361386D01*
X155801Y361131D01*
X155686Y360929D01*
X155621Y360833D01*
X152274Y354732D01*
X152251Y354683D01*
X152223Y354636D01*
X152132Y354424D01*
X152035Y354215D01*
X152020Y354163D01*
X151998Y354113D01*
X151938Y353890D01*
X151872Y353669D01*
X151863Y353615D01*
X151849Y353563D01*
X151838Y353448D01*
X151786Y353106D01*
X151784Y352891D01*
X151773Y352778D01*
X151773Y348344D01*
X149694Y343326D01*
X145854Y339486D01*
X140836Y337407D01*
X135404Y337407D01*
X130386Y339486D01*
X126546Y343326D01*
X124467Y348344D01*
X124467Y353776D01*
X126546Y358794D01*
X130386Y362634D01*
X135404Y364713D01*
X136946Y364713D01*
X137013Y364717D01*
X137079Y364715D01*
X137296Y364737D01*
X137515Y364753D01*
X137580Y364767D01*
X137646Y364773D01*
X137858Y364826D01*
X138072Y364872D01*
X138134Y364895D01*
X138199Y364910D01*
X138401Y364992D01*
X138607Y365068D01*
X138666Y365099D01*
X138727Y365124D01*
X138916Y365233D01*
X139109Y365336D01*
X139163Y365376D01*
X139220Y365409D01*
X139393Y365544D01*
X139569Y365673D01*
X139617Y365719D01*
X139669Y365760D01*
X139821Y365918D01*
X139978Y366070D01*
X140018Y366123D01*
X140064Y366170D01*
X140132Y366269D01*
X140326Y366521D01*
X140443Y366725D01*
X140509Y366822D01*
X144608Y374294D01*
X144746Y374592D01*
X144801Y374697D01*
X145169Y375587D01*
X145191Y375612D01*
X145315Y375741D01*
X145361Y375808D01*
X145446Y375907D01*
X145681Y376269D01*
X146431Y376872D01*
X146673Y377095D01*
X146764Y377170D01*
X147444Y377852D01*
X147474Y377866D01*
X147638Y377938D01*
X147706Y377983D01*
X147823Y378041D01*
X148178Y378286D01*
X149102Y378556D01*
X149411Y378670D01*
X149524Y378704D01*
X150413Y379074D01*
X150446Y379076D01*
X150625Y379079D01*
X150705Y379094D01*
X150835Y379104D01*
X151258Y379194D01*
X152214Y379089D01*
X152543Y379077D01*
X152660Y379065D01*
X214686Y379122D01*
X214718Y379125D01*
X217092Y379125D01*
X217095Y379125D01*
X217096Y379125D01*
X218701Y379126D01*
X220172Y378517D01*
X220174Y378516D01*
X220175Y378515D01*
X221666Y377900D01*
X222794Y376771D01*
X222796Y376770D01*
X222797Y376769D01*
X224490Y375079D01*
X224504Y375061D01*
X299837Y299728D01*
X302677Y296888D01*
X303905Y293924D01*
X303905Y258575D01*
X303913Y258460D01*
X303911Y258345D01*
X303933Y258176D01*
X303945Y258006D01*
X303969Y257893D01*
X303983Y257779D01*
X304028Y257616D01*
X304064Y257449D01*
X304103Y257341D01*
X304134Y257230D01*
X304201Y257074D01*
X304260Y256914D01*
X304314Y256812D01*
X304360Y256707D01*
X304448Y256562D01*
X304528Y256412D01*
X304596Y256319D01*
X304656Y256220D01*
X304764Y256089D01*
X304865Y255952D01*
X304945Y255869D01*
X305018Y255780D01*
X305144Y255665D01*
X305262Y255544D01*
X305353Y255473D01*
X305438Y255395D01*
X305578Y255299D01*
X305713Y255195D01*
X305813Y255138D01*
X305908Y255072D01*
X306060Y254997D01*
X306208Y254913D01*
X306315Y254870D01*
X306418Y254819D01*
X306579Y254765D01*
X306737Y254702D01*
X306850Y254675D01*
X306959Y254639D01*
X307126Y254608D01*
X307291Y254568D01*
X307406Y254557D01*
X307519Y254536D01*
X307689Y254530D01*
X307858Y254513D01*
X307973Y254518D01*
X308089Y254513D01*
X308258Y254530D01*
X308428Y254538D01*
X308541Y254559D01*
X308656Y254570D01*
X308821Y254611D01*
X308988Y254642D01*
X309097Y254678D01*
X309209Y254706D01*
X309367Y254769D01*
X309528Y254823D01*
X309631Y254875D01*
X309738Y254917D01*
X309885Y255002D01*
X310037Y255078D01*
X310132Y255143D01*
X310232Y255201D01*
X310321Y255274D01*
X310506Y255402D01*
X310750Y255627D01*
X310841Y255702D01*
X312725Y257586D01*
X316599Y259191D01*
X320793Y259191D01*
X324667Y257586D01*
X327632Y254621D01*
X329237Y250746D01*
X329237Y246553D01*
X327594Y242587D01*
X327578Y242568D01*
X327545Y242517D01*
X327506Y242470D01*
X327390Y242278D01*
X327268Y242090D01*
X327242Y242035D01*
X327211Y241983D01*
X327122Y241776D01*
X327028Y241573D01*
X327010Y241515D01*
X326986Y241459D01*
X326928Y241242D01*
X326863Y241028D01*
X326853Y240968D01*
X326837Y240909D01*
X326826Y240792D01*
X326775Y240465D01*
X326772Y240239D01*
X326761Y240125D01*
X326762Y173329D01*
X326766Y173269D01*
X326763Y173209D01*
X326786Y172985D01*
X326802Y172761D01*
X326814Y172702D01*
X326820Y172642D01*
X326874Y172423D01*
X326921Y172204D01*
X326941Y172147D01*
X326956Y172088D01*
X327039Y171880D01*
X327116Y171669D01*
X327145Y171615D01*
X327167Y171559D01*
X327279Y171364D01*
X327385Y171166D01*
X327421Y171118D01*
X327451Y171065D01*
X327526Y170974D01*
X327722Y170706D01*
X327879Y170545D01*
X327952Y170456D01*
X330271Y168137D01*
X332350Y163119D01*
X332350Y157628D01*
X332322Y157552D01*
X332311Y157498D01*
X332293Y157446D01*
X332251Y157220D01*
X332204Y156995D01*
X332200Y156940D01*
X332190Y156886D01*
X332180Y156656D01*
X332164Y156426D01*
X332168Y156371D01*
X332166Y156317D01*
X332189Y156087D01*
X332205Y155858D01*
X332217Y155804D01*
X332222Y155750D01*
X332276Y155526D01*
X332325Y155301D01*
X332344Y155249D01*
X332357Y155196D01*
X332442Y154981D01*
X332521Y154766D01*
X332547Y154718D01*
X332568Y154667D01*
X332682Y154466D01*
X332791Y154264D01*
X332823Y154220D01*
X332851Y154172D01*
X332992Y153990D01*
X333128Y153804D01*
X333166Y153765D01*
X333200Y153722D01*
X333365Y153562D01*
X333526Y153397D01*
X333569Y153363D01*
X333609Y153325D01*
X333794Y153189D01*
X333977Y153049D01*
X334016Y153028D01*
X334069Y152989D01*
X334572Y152721D01*
X334633Y152699D01*
X334673Y152678D01*
X337648Y151445D01*
X341445Y147648D01*
X343501Y142686D01*
X343501Y137314D01*
X341445Y132352D01*
X337091Y127998D01*
X336941Y127825D01*
X336786Y127657D01*
X336754Y127610D01*
X336717Y127568D01*
X336593Y127376D01*
X336463Y127187D01*
X336438Y127137D01*
X336407Y127090D01*
X336311Y126882D01*
X336209Y126677D01*
X336191Y126624D01*
X336168Y126573D01*
X336101Y126354D01*
X336029Y126137D01*
X336019Y126082D01*
X336002Y126028D01*
X335967Y125802D01*
X335926Y125576D01*
X335924Y125520D01*
X335915Y125465D01*
X335912Y125236D01*
X335903Y125007D01*
X335908Y124951D01*
X335907Y124895D01*
X335936Y124668D01*
X335959Y124440D01*
X335972Y124386D01*
X335979Y124330D01*
X336040Y124109D01*
X336094Y123887D01*
X336115Y123834D01*
X336130Y123780D01*
X336221Y123570D01*
X336305Y123357D01*
X336333Y123309D01*
X336356Y123257D01*
X336475Y123062D01*
X336589Y122863D01*
X336623Y122819D01*
X336653Y122770D01*
X336798Y122594D01*
X336938Y122413D01*
X336979Y122374D01*
X337014Y122330D01*
X337183Y122176D01*
X337347Y122016D01*
X337393Y121983D01*
X337434Y121945D01*
X337623Y121816D01*
X337808Y121681D01*
X337858Y121655D01*
X337904Y121623D01*
X338109Y121521D01*
X338311Y121413D01*
X338364Y121394D01*
X338414Y121369D01*
X338632Y121297D01*
X338846Y121218D01*
X338901Y121207D01*
X338955Y121189D01*
X339180Y121148D01*
X339404Y121100D01*
X339460Y121097D01*
X339515Y121087D01*
X339743Y121077D01*
X339972Y121062D01*
X340017Y121066D01*
X340085Y121063D01*
X340652Y121120D01*
X340714Y121135D01*
X340747Y121139D01*
X346337Y121139D01*
X346337Y109200D01*
X346337Y96423D01*
X346311Y96402D01*
X346174Y96301D01*
X346091Y96221D01*
X346002Y96148D01*
X345887Y96022D01*
X345766Y95904D01*
X345695Y95813D01*
X345617Y95728D01*
X345521Y95587D01*
X345417Y95453D01*
X345360Y95353D01*
X345295Y95258D01*
X345219Y95106D01*
X345135Y94958D01*
X345092Y94851D01*
X345041Y94748D01*
X344987Y94587D01*
X344924Y94429D01*
X344897Y94316D01*
X344861Y94207D01*
X344830Y94040D01*
X344790Y93875D01*
X344779Y93760D01*
X344759Y93647D01*
X344752Y93477D01*
X344735Y93308D01*
X344740Y93193D01*
X344735Y93077D01*
X344752Y92908D01*
X344760Y92738D01*
X344781Y92625D01*
X344792Y92510D01*
X344833Y92345D01*
X344864Y92178D01*
X344900Y92069D01*
X344928Y91957D01*
X344991Y91799D01*
X345045Y91638D01*
X345097Y91535D01*
X345139Y91428D01*
X345224Y91281D01*
X345300Y91129D01*
X345366Y91034D01*
X345423Y90934D01*
X345496Y90845D01*
X345624Y90660D01*
X345849Y90416D01*
X345924Y90325D01*
X347859Y88390D01*
X348116Y87769D01*
X349799Y83706D01*
X349899Y83465D01*
X349899Y80490D01*
X349903Y80429D01*
X349901Y80369D01*
X349923Y80146D01*
X349939Y79921D01*
X349951Y79862D01*
X349957Y79802D01*
X350011Y79584D01*
X350058Y79364D01*
X350078Y79307D01*
X350093Y79249D01*
X350176Y79040D01*
X350254Y78829D01*
X350282Y78776D01*
X350304Y78720D01*
X350416Y78525D01*
X350522Y78326D01*
X350558Y78278D01*
X350588Y78225D01*
X350663Y78134D01*
X350859Y77867D01*
X351016Y77705D01*
X351089Y77616D01*
X359450Y69255D01*
X359496Y69215D01*
X359537Y69171D01*
X359711Y69029D01*
X359881Y68881D01*
X359931Y68848D01*
X359978Y68810D01*
X360170Y68693D01*
X360359Y68571D01*
X360414Y68546D01*
X360465Y68515D01*
X360672Y68426D01*
X360876Y68331D01*
X360933Y68314D01*
X360989Y68290D01*
X361206Y68232D01*
X361421Y68166D01*
X361481Y68157D01*
X361539Y68141D01*
X361656Y68130D01*
X361984Y68079D01*
X362209Y68076D01*
X362324Y68065D01*
X395547Y68065D01*
X395662Y68073D01*
X395777Y68071D01*
X395945Y68093D01*
X396115Y68105D01*
X396228Y68129D01*
X396342Y68143D01*
X396506Y68188D01*
X396672Y68224D01*
X396781Y68263D01*
X396892Y68294D01*
X397048Y68361D01*
X397208Y68420D01*
X397309Y68474D01*
X397415Y68520D01*
X397560Y68608D01*
X397710Y68688D01*
X397803Y68756D01*
X397901Y68816D01*
X398033Y68924D01*
X398170Y69025D01*
X398252Y69105D01*
X398341Y69178D01*
X398456Y69304D01*
X398578Y69422D01*
X398649Y69513D01*
X398727Y69598D01*
X398823Y69738D01*
X398927Y69873D01*
X398984Y69973D01*
X399049Y70068D01*
X399125Y70220D01*
X399209Y70368D01*
X399252Y70475D01*
X399303Y70578D01*
X399356Y70739D01*
X399419Y70897D01*
X399446Y71010D01*
X399483Y71119D01*
X399513Y71286D01*
X399553Y71451D01*
X399565Y71566D01*
X399585Y71679D01*
X399592Y71849D01*
X399609Y72018D01*
X399604Y72133D01*
X399608Y72249D01*
X399591Y72418D01*
X399584Y72588D01*
X399563Y72701D01*
X399551Y72816D01*
X399511Y72981D01*
X399480Y73148D01*
X399443Y73257D01*
X399416Y73369D01*
X399353Y73527D01*
X399299Y73688D01*
X399247Y73791D01*
X399204Y73898D01*
X399120Y74045D01*
X399044Y74197D01*
X398978Y74292D01*
X398921Y74392D01*
X398848Y74481D01*
X398720Y74666D01*
X398495Y74910D01*
X398420Y75001D01*
X396474Y76948D01*
X392603Y83652D01*
X390599Y91129D01*
X390599Y98871D01*
X392603Y106348D01*
X396474Y113052D01*
X401948Y118526D01*
X408652Y122397D01*
X416129Y124401D01*
X423871Y124401D01*
X431348Y122397D01*
X438052Y118526D01*
X443526Y113052D01*
X447397Y106348D01*
X449401Y98871D01*
X449401Y91129D01*
X447397Y83652D01*
X443526Y76948D01*
X441580Y75001D01*
X441505Y74914D01*
X441422Y74834D01*
X441318Y74699D01*
X441206Y74571D01*
X441144Y74474D01*
X441073Y74383D01*
X440989Y74236D01*
X440897Y74093D01*
X440848Y73988D01*
X440791Y73888D01*
X440728Y73730D01*
X440657Y73576D01*
X440623Y73466D01*
X440581Y73359D01*
X440541Y73193D01*
X440491Y73031D01*
X440474Y72917D01*
X440447Y72805D01*
X440430Y72635D01*
X440404Y72468D01*
X440403Y72353D01*
X440391Y72238D01*
X440399Y72068D01*
X440396Y71898D01*
X440411Y71784D01*
X440416Y71668D01*
X440447Y71501D01*
X440469Y71333D01*
X440499Y71221D01*
X440520Y71108D01*
X440574Y70947D01*
X440619Y70783D01*
X440665Y70677D01*
X440701Y70568D01*
X440778Y70416D01*
X440845Y70260D01*
X440905Y70162D01*
X440956Y70059D01*
X441053Y69919D01*
X441142Y69774D01*
X441215Y69685D01*
X441280Y69590D01*
X441396Y69465D01*
X441503Y69333D01*
X441588Y69256D01*
X441667Y69171D01*
X441798Y69063D01*
X441923Y68948D01*
X442018Y68883D01*
X442108Y68810D01*
X442253Y68722D01*
X442393Y68626D01*
X442496Y68574D01*
X442595Y68515D01*
X442751Y68448D01*
X442903Y68372D01*
X443013Y68336D01*
X443118Y68290D01*
X443282Y68246D01*
X443444Y68192D01*
X443557Y68171D01*
X443668Y68141D01*
X443783Y68130D01*
X444004Y68090D01*
X444336Y68076D01*
X444453Y68065D01*
X456935Y68065D01*
X456995Y68069D01*
X457056Y68067D01*
X457279Y68089D01*
X457504Y68105D01*
X457563Y68117D01*
X457623Y68123D01*
X457841Y68177D01*
X458061Y68224D01*
X458117Y68244D01*
X458176Y68259D01*
X458385Y68342D01*
X458596Y68420D01*
X458649Y68448D01*
X458705Y68470D01*
X458900Y68582D01*
X459098Y68688D01*
X459147Y68724D01*
X459199Y68754D01*
X459290Y68829D01*
X459558Y69025D01*
X459719Y69182D01*
X459808Y69255D01*
X462211Y71657D01*
X467265Y73751D01*
X472840Y73751D01*
X472953Y73730D01*
X473064Y73700D01*
X473233Y73678D01*
X473400Y73647D01*
X473515Y73643D01*
X473630Y73628D01*
X473799Y73631D01*
X473969Y73624D01*
X474084Y73635D01*
X474199Y73637D01*
X474367Y73663D01*
X474536Y73680D01*
X474648Y73707D01*
X474762Y73725D01*
X474924Y73774D01*
X475090Y73814D01*
X475197Y73857D01*
X475307Y73891D01*
X475461Y73962D01*
X475619Y74025D01*
X475719Y74082D01*
X475824Y74131D01*
X475966Y74224D01*
X476114Y74308D01*
X476205Y74379D01*
X476302Y74442D01*
X476430Y74553D01*
X476564Y74658D01*
X476644Y74740D01*
X476731Y74816D01*
X476843Y74945D01*
X476961Y75066D01*
X477029Y75159D01*
X477104Y75247D01*
X477197Y75390D01*
X477297Y75527D01*
X477351Y75628D01*
X477413Y75725D01*
X477485Y75880D01*
X477565Y76029D01*
X477604Y76138D01*
X477653Y76242D01*
X477702Y76405D01*
X477760Y76565D01*
X477784Y76677D01*
X477817Y76788D01*
X477843Y76956D01*
X477878Y77122D01*
X477886Y77237D01*
X477904Y77351D01*
X477906Y77521D01*
X477917Y77691D01*
X477909Y77806D01*
X477911Y77921D01*
X477889Y78089D01*
X477877Y78259D01*
X477852Y78372D01*
X477838Y78486D01*
X477804Y78596D01*
X477757Y78816D01*
X477642Y79128D01*
X477608Y79240D01*
X476347Y82284D01*
X476347Y87716D01*
X478426Y92734D01*
X480705Y95013D01*
X480745Y95059D01*
X480789Y95100D01*
X480931Y95274D01*
X481079Y95443D01*
X481112Y95494D01*
X481150Y95541D01*
X481267Y95733D01*
X481389Y95921D01*
X481414Y95976D01*
X481445Y96028D01*
X481534Y96234D01*
X481628Y96438D01*
X481646Y96496D01*
X481670Y96551D01*
X481728Y96768D01*
X481794Y96984D01*
X481803Y97043D01*
X481819Y97101D01*
X481830Y97219D01*
X481881Y97547D01*
X481884Y97771D01*
X481895Y97886D01*
X481895Y104016D01*
X481891Y104077D01*
X481893Y104137D01*
X481871Y104360D01*
X481855Y104585D01*
X481843Y104644D01*
X481837Y104704D01*
X481783Y104922D01*
X481736Y105142D01*
X481716Y105199D01*
X481701Y105257D01*
X481618Y105466D01*
X481540Y105677D01*
X481512Y105730D01*
X481489Y105786D01*
X481378Y105981D01*
X481272Y106180D01*
X481236Y106228D01*
X481206Y106281D01*
X481131Y106372D01*
X480935Y106639D01*
X480778Y106801D01*
X480705Y106890D01*
X445003Y142592D01*
X442163Y145432D01*
X441193Y147774D01*
X441193Y147775D01*
X440872Y148548D01*
X440847Y148665D01*
X440805Y148892D01*
X440788Y148944D01*
X440776Y148997D01*
X440697Y149214D01*
X440624Y149432D01*
X440599Y149481D01*
X440580Y149533D01*
X440472Y149736D01*
X440369Y149941D01*
X440338Y149987D01*
X440312Y150035D01*
X440176Y150221D01*
X440045Y150410D01*
X440008Y150451D01*
X439975Y150495D01*
X439814Y150660D01*
X439659Y150829D01*
X439616Y150864D01*
X439578Y150903D01*
X439396Y151044D01*
X439218Y151190D01*
X439171Y151218D01*
X439127Y151252D01*
X438927Y151366D01*
X438730Y151485D01*
X438680Y151507D01*
X438632Y151534D01*
X438418Y151619D01*
X438207Y151710D01*
X438154Y151724D01*
X438103Y151744D01*
X437879Y151799D01*
X437657Y151859D01*
X437612Y151863D01*
X437549Y151878D01*
X436982Y151934D01*
X436916Y151931D01*
X436872Y151935D01*
X427881Y151935D01*
X427821Y151931D01*
X427760Y151933D01*
X427537Y151911D01*
X427313Y151895D01*
X427254Y151882D01*
X427193Y151876D01*
X426975Y151823D01*
X426755Y151776D01*
X426699Y151755D01*
X426640Y151741D01*
X426431Y151657D01*
X426220Y151580D01*
X426167Y151552D01*
X426111Y151529D01*
X425916Y151417D01*
X425718Y151311D01*
X425669Y151276D01*
X425617Y151246D01*
X425526Y151171D01*
X425258Y150975D01*
X425097Y150818D01*
X425008Y150745D01*
X423521Y149258D01*
X422051Y148649D01*
X413993Y148649D01*
X413955Y148656D01*
X413897Y148674D01*
X413676Y148708D01*
X413455Y148748D01*
X413394Y148751D01*
X413334Y148760D01*
X413110Y148763D01*
X412885Y148772D01*
X412825Y148766D01*
X412764Y148767D01*
X412542Y148738D01*
X412318Y148716D01*
X412259Y148702D01*
X412199Y148694D01*
X412086Y148660D01*
X412043Y148649D01*
X403949Y148649D01*
X402479Y149258D01*
X401992Y149745D01*
X401947Y149785D01*
X401905Y149829D01*
X401731Y149972D01*
X401562Y150119D01*
X401511Y150152D01*
X401464Y150190D01*
X401272Y150307D01*
X401084Y150429D01*
X401029Y150454D01*
X400977Y150485D01*
X400771Y150574D01*
X400567Y150668D01*
X400509Y150686D01*
X400453Y150710D01*
X400237Y150768D01*
X400022Y150834D01*
X399962Y150843D01*
X399904Y150859D01*
X399787Y150870D01*
X399458Y150921D01*
X399234Y150924D01*
X399119Y150935D01*
X388934Y150935D01*
X385970Y152163D01*
X383701Y154432D01*
X382473Y157396D01*
X382473Y168283D01*
X382469Y168343D01*
X382472Y168403D01*
X382449Y168627D01*
X382434Y168851D01*
X382421Y168910D01*
X382415Y168970D01*
X382361Y169189D01*
X382314Y169408D01*
X382294Y169465D01*
X382279Y169524D01*
X382196Y169732D01*
X382119Y169943D01*
X382090Y169997D01*
X382068Y170053D01*
X381956Y170248D01*
X381850Y170446D01*
X381814Y170494D01*
X381784Y170547D01*
X381709Y170638D01*
X381652Y170716D01*
X379997Y174711D01*
X379997Y178904D01*
X380801Y180845D01*
X380878Y181074D01*
X380959Y181300D01*
X380968Y181343D01*
X380982Y181386D01*
X381026Y181622D01*
X381074Y181858D01*
X381077Y181902D01*
X381085Y181946D01*
X381095Y182186D01*
X381111Y182427D01*
X381107Y182471D01*
X381109Y182515D01*
X381085Y182755D01*
X381067Y182995D01*
X381057Y183038D01*
X381053Y183082D01*
X380996Y183316D01*
X380944Y183551D01*
X380929Y183593D01*
X380918Y183636D01*
X380829Y183859D01*
X380745Y184085D01*
X380724Y184124D01*
X380707Y184165D01*
X380587Y184375D01*
X380473Y184586D01*
X380447Y184621D01*
X380424Y184660D01*
X380277Y184850D01*
X380134Y185043D01*
X380102Y185075D01*
X380075Y185110D01*
X379902Y185278D01*
X379733Y185449D01*
X379698Y185476D01*
X379666Y185507D01*
X379471Y185649D01*
X379281Y185795D01*
X379242Y185816D01*
X379206Y185843D01*
X378993Y185956D01*
X378784Y186074D01*
X378742Y186090D01*
X378703Y186111D01*
X378477Y186193D01*
X378253Y186281D01*
X378210Y186291D01*
X378168Y186306D01*
X377932Y186356D01*
X377698Y186411D01*
X377654Y186415D01*
X377610Y186424D01*
X377370Y186441D01*
X377131Y186463D01*
X377086Y186460D01*
X377042Y186463D01*
X376803Y186446D01*
X376562Y186434D01*
X376526Y186426D01*
X376474Y186423D01*
X375917Y186303D01*
X375843Y186276D01*
X375792Y186265D01*
X374704Y185911D01*
X373292Y185688D01*
X371863Y185688D01*
X370451Y185911D01*
X369708Y186153D01*
X375451Y191895D01*
X381193Y197638D01*
X381435Y196895D01*
X381658Y195483D01*
X381658Y194054D01*
X381435Y192642D01*
X381081Y191554D01*
X381023Y191320D01*
X380960Y191089D01*
X380954Y191044D01*
X380944Y191001D01*
X380919Y190762D01*
X380889Y190523D01*
X380889Y190479D01*
X380885Y190435D01*
X380894Y190194D01*
X380897Y189954D01*
X380904Y189910D01*
X380906Y189865D01*
X380948Y189628D01*
X380985Y189391D01*
X380998Y189348D01*
X381006Y189304D01*
X381081Y189076D01*
X381151Y188845D01*
X381170Y188805D01*
X381184Y188763D01*
X381290Y188547D01*
X381392Y188329D01*
X381416Y188292D01*
X381436Y188252D01*
X381571Y188053D01*
X381702Y187851D01*
X381731Y187818D01*
X381756Y187781D01*
X381919Y187603D01*
X382076Y187422D01*
X382110Y187393D01*
X382140Y187360D01*
X382326Y187206D01*
X382507Y187048D01*
X382544Y187024D01*
X382579Y186996D01*
X382784Y186870D01*
X382986Y186739D01*
X383026Y186721D01*
X383064Y186697D01*
X383285Y186601D01*
X383503Y186500D01*
X383545Y186487D01*
X383586Y186469D01*
X383818Y186405D01*
X384048Y186336D01*
X384092Y186329D01*
X384135Y186317D01*
X384373Y186286D01*
X384612Y186249D01*
X384656Y186249D01*
X384700Y186243D01*
X384941Y186245D01*
X385181Y186242D01*
X385225Y186248D01*
X385270Y186248D01*
X385509Y186284D01*
X385746Y186315D01*
X385781Y186326D01*
X385833Y186333D01*
X386379Y186497D01*
X386451Y186529D01*
X386501Y186545D01*
X388441Y187349D01*
X392635Y187349D01*
X396509Y185744D01*
X399474Y182779D01*
X401079Y178904D01*
X401079Y174674D01*
X401067Y174645D01*
X401041Y174535D01*
X401005Y174429D01*
X400974Y174259D01*
X400933Y174091D01*
X400922Y173979D01*
X400902Y173868D01*
X400895Y173696D01*
X400878Y173524D01*
X400883Y173411D01*
X400878Y173299D01*
X400895Y173127D01*
X400902Y172954D01*
X400923Y172844D01*
X400934Y172732D01*
X400975Y172564D01*
X401006Y172394D01*
X401042Y172288D01*
X401069Y172178D01*
X401133Y172018D01*
X401188Y171854D01*
X401238Y171753D01*
X401280Y171649D01*
X401365Y171499D01*
X401443Y171345D01*
X401507Y171252D01*
X401563Y171154D01*
X401669Y171018D01*
X401767Y170876D01*
X401843Y170793D01*
X401912Y170704D01*
X402036Y170584D01*
X402153Y170457D01*
X402240Y170386D01*
X402321Y170307D01*
X402460Y170206D01*
X402594Y170096D01*
X402690Y170038D01*
X402781Y169972D01*
X402934Y169890D01*
X403081Y169801D01*
X403184Y169756D01*
X403284Y169703D01*
X403446Y169644D01*
X403605Y169576D01*
X403714Y169547D01*
X403819Y169508D01*
X403988Y169472D01*
X404155Y169427D01*
X404240Y169419D01*
X404376Y169390D01*
X404927Y169352D01*
X404940Y169351D01*
X412007Y169351D01*
X412045Y169344D01*
X412103Y169326D01*
X412325Y169292D01*
X412546Y169252D01*
X412606Y169249D01*
X412666Y169240D01*
X412891Y169237D01*
X413115Y169228D01*
X413175Y169234D01*
X413236Y169233D01*
X413459Y169262D01*
X413682Y169284D01*
X413741Y169298D01*
X413801Y169306D01*
X413914Y169340D01*
X413957Y169351D01*
X422051Y169351D01*
X423887Y168590D01*
X423916Y168572D01*
X423971Y168546D01*
X424023Y168514D01*
X424229Y168426D01*
X424433Y168332D01*
X424491Y168314D01*
X424547Y168290D01*
X424763Y168231D01*
X424978Y168166D01*
X425038Y168157D01*
X425097Y168141D01*
X425214Y168130D01*
X425541Y168079D01*
X425767Y168076D01*
X425882Y168064D01*
X434586Y168065D01*
X434815Y168081D01*
X435046Y168091D01*
X435100Y168101D01*
X435154Y168105D01*
X435379Y168153D01*
X435606Y168195D01*
X435658Y168212D01*
X435712Y168224D01*
X435928Y168303D01*
X436146Y168376D01*
X436195Y168401D01*
X436247Y168419D01*
X436449Y168528D01*
X436655Y168631D01*
X436701Y168662D01*
X436749Y168688D01*
X436934Y168824D01*
X437124Y168955D01*
X437165Y168992D01*
X437209Y169025D01*
X437373Y169185D01*
X437543Y169341D01*
X437578Y169384D01*
X437617Y169422D01*
X437758Y169604D01*
X437904Y169782D01*
X437932Y169829D01*
X437966Y169873D01*
X438080Y170073D01*
X438199Y170269D01*
X438221Y170320D01*
X438248Y170368D01*
X438333Y170582D01*
X438424Y170793D01*
X438438Y170846D01*
X438458Y170897D01*
X438513Y171121D01*
X438573Y171343D01*
X438577Y171387D01*
X438593Y171451D01*
X438648Y172018D01*
X438645Y172084D01*
X438649Y172128D01*
X438649Y188779D01*
X438639Y188924D01*
X438639Y189069D01*
X438619Y189208D01*
X438609Y189347D01*
X438579Y189489D01*
X438558Y189633D01*
X438519Y189768D01*
X438490Y189904D01*
X438440Y190041D01*
X438400Y190180D01*
X438343Y190308D01*
X438294Y190439D01*
X438226Y190568D01*
X438166Y190700D01*
X438092Y190818D01*
X438026Y190942D01*
X437940Y191059D01*
X437862Y191182D01*
X437794Y191258D01*
X437689Y191402D01*
X437397Y191702D01*
X437336Y191770D01*
X427173Y201116D01*
X426970Y201278D01*
X426769Y201443D01*
X426747Y201456D01*
X426728Y201471D01*
X426504Y201603D01*
X426281Y201738D01*
X426259Y201748D01*
X426237Y201761D01*
X425997Y201860D01*
X425758Y201963D01*
X425734Y201969D01*
X425711Y201979D01*
X425458Y202044D01*
X425208Y202112D01*
X425187Y202114D01*
X425159Y202121D01*
X424593Y202184D01*
X424490Y202182D01*
X424423Y202188D01*
X424363Y202188D01*
X420488Y203793D01*
X417523Y206758D01*
X415918Y210632D01*
X415918Y214825D01*
X415929Y214850D01*
X415965Y214959D01*
X416011Y215065D01*
X416055Y215229D01*
X416109Y215390D01*
X416130Y215504D01*
X416160Y215615D01*
X416182Y215783D01*
X416212Y215950D01*
X416217Y216066D01*
X416232Y216180D01*
X416229Y216350D01*
X416236Y216520D01*
X416225Y216635D01*
X416223Y216750D01*
X416197Y216918D01*
X416180Y217087D01*
X416153Y217199D01*
X416135Y217313D01*
X416086Y217475D01*
X416045Y217640D01*
X416003Y217747D01*
X415969Y217858D01*
X415897Y218012D01*
X415834Y218170D01*
X415777Y218270D01*
X415729Y218374D01*
X415636Y218517D01*
X415552Y218664D01*
X415481Y218755D01*
X415418Y218852D01*
X415306Y218980D01*
X415202Y219114D01*
X415120Y219195D01*
X415044Y219282D01*
X414915Y219393D01*
X414793Y219511D01*
X414700Y219579D01*
X414613Y219655D01*
X414470Y219747D01*
X414333Y219847D01*
X414231Y219901D01*
X414134Y219964D01*
X413980Y220035D01*
X413830Y220115D01*
X413722Y220155D01*
X413617Y220203D01*
X413455Y220252D01*
X413295Y220310D01*
X413182Y220334D01*
X413072Y220368D01*
X412904Y220393D01*
X412738Y220429D01*
X412623Y220437D01*
X412509Y220454D01*
X412339Y220456D01*
X412169Y220468D01*
X412054Y220460D01*
X411939Y220461D01*
X411770Y220439D01*
X411601Y220427D01*
X411488Y220403D01*
X411374Y220388D01*
X411263Y220355D01*
X411044Y220307D01*
X410732Y220193D01*
X410620Y220159D01*
X410595Y220149D01*
X406402Y220149D01*
X402528Y221753D01*
X399563Y224718D01*
X397958Y228593D01*
X397958Y232786D01*
X399563Y236660D01*
X402528Y239625D01*
X406494Y241268D01*
X406519Y241270D01*
X406579Y241283D01*
X406639Y241289D01*
X406857Y241342D01*
X407077Y241389D01*
X407133Y241410D01*
X407192Y241424D01*
X407401Y241508D01*
X407612Y241585D01*
X407665Y241613D01*
X407721Y241636D01*
X407916Y241748D01*
X408114Y241854D01*
X408163Y241889D01*
X408215Y241919D01*
X408306Y241994D01*
X408574Y242190D01*
X408735Y242347D01*
X408824Y242420D01*
X416765Y250361D01*
X416767Y250363D01*
X416769Y250364D01*
X416947Y250571D01*
X417138Y250791D01*
X417140Y250793D01*
X417142Y250795D01*
X417288Y251022D01*
X417448Y251269D01*
X417449Y251272D01*
X417451Y251274D01*
X417558Y251505D01*
X417688Y251786D01*
X417689Y251789D01*
X417690Y251791D01*
X417771Y252058D01*
X417853Y252331D01*
X417854Y252334D01*
X417855Y252336D01*
X417899Y252624D01*
X417941Y252894D01*
X417941Y252897D01*
X417941Y252900D01*
X417945Y253188D01*
X417948Y253464D01*
X417948Y253467D01*
X417948Y253469D01*
X417913Y253742D01*
X417876Y254029D01*
X417876Y254032D01*
X417875Y254034D01*
X417871Y254047D01*
X417726Y254579D01*
X417670Y254707D01*
X417646Y254789D01*
X417014Y256313D01*
X417014Y261845D01*
X419131Y266957D01*
X423043Y270869D01*
X428155Y272986D01*
X433687Y272986D01*
X438799Y270869D01*
X442711Y266957D01*
X444828Y261845D01*
X444828Y256313D01*
X442711Y251201D01*
X438799Y247289D01*
X437065Y246571D01*
X437013Y246546D01*
X436959Y246526D01*
X436758Y246418D01*
X436555Y246317D01*
X436508Y246284D01*
X436457Y246257D01*
X436273Y246123D01*
X436086Y245994D01*
X436043Y245955D01*
X435997Y245921D01*
X435834Y245762D01*
X435666Y245608D01*
X435630Y245563D01*
X435588Y245523D01*
X435449Y245343D01*
X435305Y245167D01*
X435275Y245118D01*
X435240Y245072D01*
X435127Y244875D01*
X435009Y244681D01*
X434986Y244628D01*
X434957Y244577D01*
X434873Y244366D01*
X434784Y244157D01*
X434769Y244102D01*
X434747Y244048D01*
X434694Y243826D01*
X434634Y243607D01*
X434627Y243550D01*
X434613Y243494D01*
X434591Y243267D01*
X434563Y243042D01*
X434563Y242984D01*
X434558Y242927D01*
X434568Y242700D01*
X434571Y242472D01*
X434580Y242415D01*
X434582Y242358D01*
X434624Y242134D01*
X434659Y241909D01*
X434676Y241854D01*
X434686Y241798D01*
X434759Y241582D01*
X434825Y241364D01*
X434849Y241312D01*
X434868Y241257D01*
X434970Y241053D01*
X435066Y240848D01*
X435097Y240799D01*
X435123Y240748D01*
X435252Y240561D01*
X435376Y240370D01*
X435414Y240327D01*
X435447Y240279D01*
X435601Y240111D01*
X435750Y239940D01*
X435794Y239903D01*
X435833Y239860D01*
X436009Y239716D01*
X436181Y239567D01*
X436229Y239536D01*
X436274Y239499D01*
X436468Y239382D01*
X436660Y239258D01*
X436712Y239234D01*
X436761Y239204D01*
X436970Y239115D01*
X437177Y239019D01*
X437232Y239002D01*
X437285Y238980D01*
X437504Y238920D01*
X437722Y238854D01*
X437779Y238846D01*
X437835Y238831D01*
X437951Y238819D01*
X438285Y238768D01*
X438506Y238765D01*
X438620Y238754D01*
X483695Y238754D01*
X486659Y237526D01*
X499279Y224906D01*
X499366Y224831D01*
X499446Y224748D01*
X499581Y224644D01*
X499709Y224533D01*
X499806Y224470D01*
X499897Y224400D01*
X500045Y224315D01*
X500187Y224223D01*
X500292Y224174D01*
X500392Y224117D01*
X500550Y224054D01*
X500704Y223983D01*
X500814Y223950D01*
X500921Y223907D01*
X501087Y223867D01*
X501249Y223818D01*
X501363Y223800D01*
X501475Y223773D01*
X501645Y223757D01*
X501812Y223730D01*
X501927Y223729D01*
X502042Y223718D01*
X502212Y223725D01*
X502382Y223723D01*
X502496Y223737D01*
X502612Y223742D01*
X502779Y223773D01*
X502947Y223795D01*
X503059Y223825D01*
X503172Y223846D01*
X503333Y223900D01*
X503497Y223945D01*
X503603Y223991D01*
X503712Y224028D01*
X503864Y224104D01*
X504020Y224171D01*
X504118Y224231D01*
X504221Y224283D01*
X504361Y224379D01*
X504506Y224468D01*
X504595Y224541D01*
X504690Y224607D01*
X504815Y224722D01*
X504947Y224830D01*
X505024Y224915D01*
X505109Y224993D01*
X505217Y225124D01*
X505332Y225250D01*
X505397Y225345D01*
X505470Y225434D01*
X505558Y225579D01*
X505654Y225719D01*
X505706Y225823D01*
X505765Y225921D01*
X505832Y226077D01*
X505908Y226230D01*
X505944Y226339D01*
X505990Y226445D01*
X506034Y226609D01*
X506088Y226770D01*
X506109Y226884D01*
X506139Y226995D01*
X506150Y227109D01*
X506190Y227331D01*
X506204Y227663D01*
X506215Y227780D01*
X506215Y246773D01*
X506210Y246846D01*
X506213Y246918D01*
X506190Y247130D01*
X506175Y247342D01*
X506160Y247413D01*
X506152Y247485D01*
X506101Y247692D01*
X506056Y247899D01*
X506031Y247967D01*
X506014Y248038D01*
X505933Y248234D01*
X505860Y248434D01*
X505826Y248498D01*
X505799Y248565D01*
X505692Y248749D01*
X505592Y248936D01*
X505549Y248995D01*
X505512Y249058D01*
X505435Y249151D01*
X505255Y249396D01*
X505084Y249572D01*
X505008Y249664D01*
X406745Y346743D01*
X406709Y346774D01*
X406676Y346809D01*
X406492Y346959D01*
X406313Y347114D01*
X406272Y347139D01*
X406235Y347170D01*
X406032Y347293D01*
X405833Y347420D01*
X405789Y347440D01*
X405748Y347465D01*
X405530Y347559D01*
X405314Y347657D01*
X405268Y347671D01*
X405224Y347690D01*
X404996Y347752D01*
X404768Y347819D01*
X404720Y347826D01*
X404674Y347839D01*
X404564Y347849D01*
X404204Y347903D01*
X403999Y347905D01*
X403889Y347915D01*
X369348Y347915D01*
X369252Y347909D01*
X369156Y347911D01*
X368968Y347889D01*
X368779Y347875D01*
X368685Y347855D01*
X368590Y347844D01*
X368407Y347796D01*
X368222Y347756D01*
X368132Y347723D01*
X368039Y347699D01*
X367865Y347625D01*
X367687Y347560D01*
X367602Y347515D01*
X367514Y347478D01*
X367351Y347381D01*
X367184Y347292D01*
X367107Y347235D01*
X367024Y347186D01*
X366877Y347067D01*
X366725Y346955D01*
X366656Y346888D01*
X366581Y346828D01*
X366452Y346690D01*
X366316Y346558D01*
X366257Y346482D01*
X366192Y346412D01*
X366083Y346257D01*
X365968Y346107D01*
X365920Y346024D01*
X365865Y345945D01*
X365779Y345777D01*
X365685Y345612D01*
X365650Y345523D01*
X365606Y345437D01*
X365545Y345259D01*
X365475Y345083D01*
X365452Y344989D01*
X365421Y344898D01*
X365386Y344713D01*
X365341Y344529D01*
X365332Y344433D01*
X365314Y344339D01*
X365304Y344150D01*
X365286Y343962D01*
X365290Y343865D01*
X365285Y343770D01*
X365302Y343582D01*
X365310Y343392D01*
X365328Y343298D01*
X365337Y343202D01*
X365380Y343018D01*
X365388Y342976D01*
X359079Y336668D01*
X352776Y342971D01*
X352780Y342987D01*
X352794Y343082D01*
X352817Y343175D01*
X352835Y343363D01*
X352862Y343551D01*
X352863Y343647D01*
X352872Y343742D01*
X352864Y343931D01*
X352865Y344120D01*
X352852Y344215D01*
X352848Y344312D01*
X352813Y344498D01*
X352787Y344685D01*
X352761Y344777D01*
X352744Y344872D01*
X352683Y345051D01*
X352632Y345233D01*
X352593Y345321D01*
X352562Y345412D01*
X352477Y345581D01*
X352401Y345754D01*
X352350Y345835D01*
X352307Y345921D01*
X352200Y346077D01*
X352100Y346238D01*
X352038Y346311D01*
X351983Y346390D01*
X351855Y346529D01*
X351734Y346674D01*
X351662Y346738D01*
X351597Y346809D01*
X351451Y346929D01*
X351310Y347055D01*
X351230Y347109D01*
X351156Y347170D01*
X350994Y347268D01*
X350837Y347374D01*
X350751Y347416D01*
X350669Y347465D01*
X350495Y347540D01*
X350325Y347622D01*
X350233Y347652D01*
X350145Y347690D01*
X349963Y347739D01*
X349783Y347797D01*
X349688Y347814D01*
X349595Y347839D01*
X349475Y347850D01*
X349221Y347894D01*
X348931Y347903D01*
X348810Y347915D01*
X292636Y347915D01*
X292576Y347911D01*
X292516Y347913D01*
X292292Y347891D01*
X292068Y347875D01*
X292009Y347863D01*
X291949Y347857D01*
X291730Y347803D01*
X291511Y347756D01*
X291454Y347736D01*
X291395Y347721D01*
X291187Y347638D01*
X290975Y347560D01*
X290922Y347532D01*
X290866Y347509D01*
X290672Y347398D01*
X290473Y347292D01*
X290424Y347256D01*
X290372Y347226D01*
X290281Y347151D01*
X290013Y346955D01*
X289852Y346798D01*
X289763Y346725D01*
X287444Y344406D01*
X282426Y342327D01*
X276994Y342327D01*
X271976Y344406D01*
X268136Y348246D01*
X266057Y353264D01*
X266057Y358696D01*
X268136Y363714D01*
X271976Y367554D01*
X276994Y369633D01*
X282426Y369633D01*
X287444Y367554D01*
X289763Y365235D01*
X289808Y365195D01*
X289850Y365151D01*
X290024Y365008D01*
X290193Y364861D01*
X290244Y364828D01*
X290291Y364790D01*
X290483Y364674D01*
X290671Y364551D01*
X290726Y364526D01*
X290778Y364495D01*
X290984Y364406D01*
X291188Y364311D01*
X291246Y364294D01*
X291301Y364270D01*
X291518Y364212D01*
X291734Y364146D01*
X291793Y364137D01*
X291851Y364121D01*
X291969Y364110D01*
X292297Y364059D01*
X292521Y364056D01*
X292636Y364045D01*
X408833Y364045D01*
X408847Y364046D01*
X408857Y364045D01*
X410451Y364054D01*
X411923Y363445D01*
X411936Y363440D01*
X411946Y363435D01*
X413420Y362835D01*
X414547Y361708D01*
X414558Y361698D01*
X414565Y361691D01*
X450496Y326192D01*
X450574Y326125D01*
X450646Y326051D01*
X450790Y325940D01*
X450929Y325821D01*
X451016Y325765D01*
X451097Y325702D01*
X451255Y325612D01*
X451409Y325514D01*
X451502Y325471D01*
X451592Y325420D01*
X451762Y325353D01*
X451927Y325277D01*
X452026Y325248D01*
X452121Y325210D01*
X452299Y325167D01*
X452473Y325115D01*
X452575Y325100D01*
X452675Y325076D01*
X452857Y325058D01*
X453037Y325031D01*
X453140Y325031D01*
X453242Y325021D01*
X453425Y325029D01*
X453607Y325027D01*
X453709Y325041D01*
X453812Y325045D01*
X453991Y325079D01*
X454172Y325103D01*
X454271Y325130D01*
X454372Y325149D01*
X454544Y325207D01*
X454720Y325256D01*
X454815Y325298D01*
X454912Y325331D01*
X455075Y325412D01*
X455242Y325485D01*
X455330Y325540D01*
X455421Y325586D01*
X455571Y325689D01*
X455726Y325785D01*
X455806Y325851D01*
X455890Y325910D01*
X456024Y326033D01*
X456164Y326150D01*
X456234Y326226D01*
X456309Y326296D01*
X456425Y326437D01*
X456547Y326572D01*
X456605Y326657D01*
X456670Y326737D01*
X456764Y326893D01*
X456867Y327044D01*
X456912Y327136D01*
X456965Y327224D01*
X457037Y327391D01*
X457117Y327555D01*
X457149Y327653D01*
X457190Y327748D01*
X457237Y327924D01*
X457294Y328097D01*
X457312Y328198D01*
X457339Y328298D01*
X457350Y328416D01*
X457393Y328658D01*
X457404Y328962D01*
X457415Y329082D01*
X457415Y443290D01*
X457410Y443371D01*
X457412Y443452D01*
X457390Y443654D01*
X457375Y443858D01*
X457358Y443938D01*
X457349Y444018D01*
X457299Y444216D01*
X457256Y444415D01*
X457228Y444491D01*
X457208Y444570D01*
X457131Y444759D01*
X457060Y444950D01*
X457022Y445022D01*
X456991Y445097D01*
X456888Y445272D01*
X456792Y445453D01*
X456744Y445518D01*
X456702Y445588D01*
X456576Y445748D01*
X456455Y445913D01*
X456399Y445971D01*
X456348Y446034D01*
X456200Y446175D01*
X456058Y446321D01*
X455993Y446371D01*
X455935Y446426D01*
X455769Y446545D01*
X455607Y446670D01*
X455536Y446710D01*
X455470Y446757D01*
X455290Y446851D01*
X455112Y446952D01*
X455037Y446982D01*
X454965Y447019D01*
X454772Y447087D01*
X454583Y447162D01*
X454504Y447181D01*
X454427Y447208D01*
X454227Y447248D01*
X454029Y447296D01*
X453948Y447304D01*
X453868Y447320D01*
X453665Y447331D01*
X453462Y447351D01*
X453380Y447348D01*
X453299Y447352D01*
X453097Y447336D01*
X452892Y447327D01*
X452812Y447312D01*
X452732Y447305D01*
X452533Y447260D01*
X452332Y447223D01*
X452255Y447197D01*
X452176Y447179D01*
X451986Y447106D01*
X451792Y447041D01*
X451719Y447005D01*
X451643Y446976D01*
X451539Y446915D01*
X451283Y446786D01*
X451068Y446638D01*
X450964Y446577D01*
X449438Y445468D01*
X447764Y444615D01*
X445976Y444034D01*
X444120Y443740D01*
X442241Y443740D01*
X440385Y444034D01*
X438598Y444615D01*
X438111Y444863D01*
X446054Y452806D01*
X446205Y452980D01*
X446360Y453149D01*
X446391Y453194D01*
X446427Y453236D01*
X446553Y453429D01*
X446683Y453619D01*
X446707Y453668D01*
X446737Y453714D01*
X446834Y453923D01*
X446937Y454129D01*
X446954Y454181D01*
X446977Y454231D01*
X447044Y454451D01*
X447117Y454670D01*
X447126Y454724D01*
X447142Y454776D01*
X447178Y455003D01*
X447219Y455230D01*
X447221Y455285D01*
X447230Y455339D01*
X447233Y455569D01*
X447242Y455799D01*
X447242Y455800D01*
X447237Y455855D01*
X447237Y455862D01*
X447237Y455910D01*
X447208Y456138D01*
X447185Y456367D01*
X447172Y456420D01*
X447165Y456475D01*
X447104Y456697D01*
X447050Y456920D01*
X447029Y456971D01*
X447015Y457024D01*
X446924Y457236D01*
X446838Y457450D01*
X446811Y457497D01*
X446789Y457548D01*
X446669Y457744D01*
X446555Y457944D01*
X446526Y457978D01*
X446492Y458034D01*
X446130Y458474D01*
X446082Y458518D01*
X446054Y458553D01*
X438111Y466495D01*
X438598Y466743D01*
X440385Y467324D01*
X442241Y467618D01*
X444120Y467618D01*
X445976Y467324D01*
X447764Y466743D01*
X449438Y465890D01*
X450964Y464782D01*
X451033Y464739D01*
X451097Y464689D01*
X451274Y464588D01*
X451447Y464480D01*
X451521Y464447D01*
X451592Y464407D01*
X451782Y464331D01*
X451968Y464249D01*
X452046Y464226D01*
X452121Y464196D01*
X452320Y464148D01*
X452516Y464093D01*
X452596Y464082D01*
X452675Y464062D01*
X452878Y464043D01*
X453080Y464015D01*
X453161Y464015D01*
X453242Y464007D01*
X453446Y464016D01*
X453650Y464017D01*
X453730Y464028D01*
X453812Y464032D01*
X454012Y464069D01*
X454214Y464098D01*
X454292Y464121D01*
X454372Y464136D01*
X454565Y464201D01*
X454761Y464258D01*
X454835Y464291D01*
X454912Y464317D01*
X455095Y464408D01*
X455280Y464492D01*
X455349Y464536D01*
X455421Y464572D01*
X455590Y464688D01*
X455761Y464797D01*
X455823Y464850D01*
X455890Y464896D01*
X456040Y465034D01*
X456195Y465166D01*
X456249Y465227D01*
X456309Y465282D01*
X456438Y465440D01*
X456574Y465593D01*
X456618Y465660D01*
X456670Y465723D01*
X456776Y465898D01*
X456888Y466068D01*
X456923Y466141D01*
X456965Y466210D01*
X457046Y466398D01*
X457133Y466582D01*
X457158Y466659D01*
X457190Y466734D01*
X457243Y466931D01*
X457304Y467126D01*
X457318Y467206D01*
X457339Y467284D01*
X457351Y467405D01*
X457397Y467688D01*
X457404Y467949D01*
X457415Y468069D01*
X457415Y540089D01*
X457404Y540250D01*
X457402Y540411D01*
X457384Y540533D01*
X457375Y540657D01*
X457342Y540815D01*
X457317Y540975D01*
X457282Y541094D01*
X457256Y541214D01*
X457201Y541366D01*
X457155Y541521D01*
X457103Y541633D01*
X457060Y541749D01*
X456984Y541892D01*
X456917Y542039D01*
X456850Y542143D01*
X456792Y542252D01*
X456696Y542382D01*
X456609Y542518D01*
X456547Y542587D01*
X456455Y542712D01*
X456115Y543061D01*
X456079Y543101D01*
X448355Y550091D01*
X448164Y550241D01*
X447975Y550396D01*
X447939Y550417D01*
X447907Y550443D01*
X447696Y550565D01*
X447487Y550692D01*
X447450Y550708D01*
X447414Y550728D01*
X447187Y550820D01*
X446964Y550916D01*
X446924Y550927D01*
X446886Y550942D01*
X446649Y551001D01*
X446414Y551065D01*
X446380Y551068D01*
X446333Y551080D01*
X445766Y551139D01*
X445684Y551136D01*
X445629Y551142D01*
X443910Y551142D01*
X443680Y551125D01*
X443450Y551115D01*
X443396Y551105D01*
X443341Y551102D01*
X443116Y551053D01*
X442890Y551011D01*
X442838Y550994D01*
X442784Y550982D01*
X442568Y550903D01*
X442350Y550830D01*
X442301Y550806D01*
X442249Y550787D01*
X442046Y550678D01*
X441840Y550575D01*
X441795Y550544D01*
X441747Y550518D01*
X441561Y550382D01*
X441371Y550251D01*
X441331Y550214D01*
X441287Y550181D01*
X441122Y550021D01*
X440953Y549865D01*
X440918Y549822D01*
X440878Y549784D01*
X440738Y549602D01*
X440592Y549424D01*
X440563Y549377D01*
X440530Y549333D01*
X440416Y549133D01*
X440296Y548937D01*
X440275Y548886D01*
X440247Y548838D01*
X440162Y548624D01*
X440072Y548413D01*
X440058Y548360D01*
X440037Y548309D01*
X439983Y548084D01*
X439923Y547863D01*
X439919Y547819D01*
X439903Y547755D01*
X439848Y547188D01*
X439851Y547122D01*
X439846Y547078D01*
X439846Y543914D01*
X437807Y538990D01*
X434037Y535221D01*
X429113Y533181D01*
X426008Y533181D01*
X425948Y533177D01*
X425888Y533179D01*
X425664Y533157D01*
X425440Y533141D01*
X425381Y533128D01*
X425321Y533122D01*
X425103Y533069D01*
X424883Y533022D01*
X424826Y533001D01*
X424767Y532987D01*
X424559Y532903D01*
X424348Y532826D01*
X424294Y532798D01*
X424238Y532775D01*
X424043Y532663D01*
X423845Y532557D01*
X423796Y532522D01*
X423744Y532492D01*
X423653Y532417D01*
X423385Y532221D01*
X423224Y532064D01*
X423135Y531991D01*
X403888Y512744D01*
X403848Y512699D01*
X403804Y512658D01*
X403662Y512484D01*
X403514Y512314D01*
X403482Y512263D01*
X403443Y512217D01*
X403327Y512024D01*
X403205Y511836D01*
X403179Y511781D01*
X403148Y511729D01*
X403060Y511524D01*
X402965Y511319D01*
X402947Y511261D01*
X402923Y511206D01*
X402865Y510989D01*
X402799Y510774D01*
X402790Y510714D01*
X402774Y510656D01*
X402763Y510539D01*
X402712Y510211D01*
X402709Y509986D01*
X402698Y509871D01*
X402698Y506896D01*
X400658Y501971D01*
X396889Y498202D01*
X391964Y496162D01*
X386634Y496162D01*
X381709Y498202D01*
X377940Y501971D01*
X376545Y505340D01*
X376545Y505341D01*
X375900Y506896D01*
X375900Y512226D01*
X377940Y517150D01*
X381709Y520920D01*
X386634Y522959D01*
X389610Y522959D01*
X389670Y522964D01*
X389730Y522961D01*
X389954Y522984D01*
X390178Y522999D01*
X390237Y523012D01*
X390297Y523018D01*
X390515Y523071D01*
X390735Y523119D01*
X390792Y523139D01*
X390851Y523154D01*
X391059Y523237D01*
X391270Y523314D01*
X391324Y523343D01*
X391380Y523365D01*
X391575Y523477D01*
X391773Y523583D01*
X391822Y523619D01*
X391874Y523649D01*
X391965Y523724D01*
X392233Y523920D01*
X392394Y524076D01*
X392483Y524150D01*
X411859Y543525D01*
X411898Y543571D01*
X411943Y543612D01*
X412086Y543786D01*
X412233Y543955D01*
X412265Y544006D01*
X412304Y544053D01*
X412420Y544245D01*
X412542Y544434D01*
X412568Y544488D01*
X412599Y544540D01*
X412687Y544746D01*
X412782Y544950D01*
X412800Y545008D01*
X412824Y545064D01*
X412882Y545280D01*
X412947Y545496D01*
X412957Y545555D01*
X412972Y545614D01*
X412984Y545731D01*
X413035Y546059D01*
X413038Y546284D01*
X413049Y546398D01*
X413049Y549245D01*
X415089Y554169D01*
X418858Y557939D01*
X423782Y559978D01*
X426946Y559978D01*
X427176Y559995D01*
X427406Y560005D01*
X427460Y560015D01*
X427515Y560018D01*
X427740Y560067D01*
X427966Y560109D01*
X428018Y560126D01*
X428072Y560137D01*
X428288Y560217D01*
X428506Y560290D01*
X428555Y560314D01*
X428607Y560333D01*
X428810Y560442D01*
X429016Y560545D01*
X429061Y560576D01*
X429109Y560602D01*
X429295Y560738D01*
X429485Y560869D01*
X429525Y560906D01*
X429569Y560938D01*
X429734Y561099D01*
X429903Y561255D01*
X429938Y561298D01*
X429978Y561336D01*
X430118Y561518D01*
X430264Y561696D01*
X430293Y561743D01*
X430326Y561787D01*
X430440Y561986D01*
X430560Y562183D01*
X430581Y562234D01*
X430608Y562282D01*
X430694Y562496D01*
X430784Y562707D01*
X430798Y562760D01*
X430819Y562811D01*
X430873Y563035D01*
X430933Y563257D01*
X430937Y563301D01*
X430953Y563365D01*
X431008Y563932D01*
X431005Y563998D01*
X431010Y564042D01*
X431010Y567205D01*
X433049Y572130D01*
X436819Y575899D01*
X441743Y577939D01*
X447073Y577939D01*
X451998Y575899D01*
X455767Y572130D01*
X456113Y571296D01*
X457796Y567233D01*
X457796Y567232D01*
X457807Y567205D01*
X457807Y565094D01*
X457818Y564933D01*
X457820Y564772D01*
X457838Y564649D01*
X457847Y564526D01*
X457881Y564368D01*
X457905Y564208D01*
X457940Y564089D01*
X457966Y563969D01*
X458021Y563817D01*
X458068Y563662D01*
X458119Y563550D01*
X458162Y563434D01*
X458238Y563291D01*
X458305Y563144D01*
X458372Y563040D01*
X458431Y562931D01*
X458526Y562801D01*
X458613Y562665D01*
X458675Y562596D01*
X458767Y562471D01*
X459107Y562122D01*
X459144Y562082D01*
X466865Y555093D01*
X466876Y555085D01*
X466886Y555075D01*
X467100Y554909D01*
X467314Y554741D01*
X467326Y554734D01*
X467337Y554726D01*
X467572Y554592D01*
X467807Y554456D01*
X467820Y554451D01*
X467832Y554444D01*
X468084Y554344D01*
X468335Y554242D01*
X468348Y554239D01*
X468361Y554233D01*
X468626Y554169D01*
X468888Y554104D01*
X468902Y554103D01*
X468915Y554099D01*
X469188Y554073D01*
X469454Y554045D01*
X469468Y554045D01*
X469482Y554044D01*
X469757Y554056D01*
X470024Y554066D01*
X470037Y554068D01*
X470052Y554069D01*
X470319Y554118D01*
X470585Y554166D01*
X470598Y554170D01*
X470612Y554173D01*
X470870Y554259D01*
X471126Y554343D01*
X471139Y554349D01*
X471152Y554354D01*
X471397Y554476D01*
X471637Y554595D01*
X471649Y554603D01*
X471661Y554609D01*
X471886Y554764D01*
X472108Y554916D01*
X472119Y554925D01*
X472130Y554933D01*
X472331Y555118D01*
X472530Y555299D01*
X472539Y555310D01*
X472549Y555319D01*
X472723Y555532D01*
X472894Y555738D01*
X472901Y555749D01*
X472910Y555760D01*
X473051Y555993D01*
X473193Y556223D01*
X473198Y556236D01*
X473205Y556247D01*
X473311Y556493D01*
X473421Y556745D01*
X473424Y556758D01*
X473430Y556771D01*
X473500Y557031D01*
X473573Y557294D01*
X473575Y557308D01*
X473579Y557321D01*
X473584Y557375D01*
X473648Y557859D01*
X473646Y558014D01*
X473655Y558106D01*
X473655Y589716D01*
X473651Y589777D01*
X473653Y589837D01*
X473631Y590060D01*
X473615Y590285D01*
X473603Y590344D01*
X473597Y590404D01*
X473543Y590622D01*
X473496Y590842D01*
X473476Y590899D01*
X473461Y590957D01*
X473378Y591166D01*
X473300Y591377D01*
X473272Y591430D01*
X473250Y591486D01*
X473138Y591681D01*
X473032Y591880D01*
X472996Y591928D01*
X472966Y591981D01*
X472891Y592072D01*
X472695Y592339D01*
X472538Y592501D01*
X472465Y592590D01*
X464330Y600725D01*
X464284Y600765D01*
X464243Y600809D01*
X464069Y600951D01*
X463899Y601099D01*
X463849Y601132D01*
X463802Y601170D01*
X463610Y601286D01*
X463421Y601409D01*
X463366Y601434D01*
X463315Y601465D01*
X463109Y601554D01*
X462904Y601649D01*
X462847Y601666D01*
X462791Y601690D01*
X462574Y601748D01*
X462359Y601814D01*
X462299Y601823D01*
X462241Y601839D01*
X462124Y601850D01*
X461796Y601901D01*
X461571Y601904D01*
X461456Y601915D01*
X404190Y601915D01*
X404129Y601911D01*
X404069Y601913D01*
X403846Y601891D01*
X403621Y601875D01*
X403562Y601863D01*
X403502Y601857D01*
X403284Y601803D01*
X403064Y601756D01*
X403007Y601736D01*
X402949Y601721D01*
X402740Y601638D01*
X402529Y601560D01*
X402476Y601532D01*
X402420Y601510D01*
X402225Y601398D01*
X402026Y601292D01*
X401978Y601256D01*
X401925Y601226D01*
X401834Y601151D01*
X401567Y600955D01*
X401405Y600798D01*
X401316Y600725D01*
X368071Y567480D01*
X368031Y567434D01*
X367987Y567393D01*
X367845Y567219D01*
X367697Y567050D01*
X367665Y566999D01*
X367626Y566952D01*
X367510Y566760D01*
X367388Y566571D01*
X367362Y566517D01*
X367331Y566465D01*
X367242Y566259D01*
X367148Y566055D01*
X367130Y565997D01*
X367106Y565941D01*
X367048Y565725D01*
X366983Y565509D01*
X366973Y565450D01*
X366957Y565391D01*
X366946Y565274D01*
X366895Y564946D01*
X366892Y564721D01*
X366881Y564607D01*
X366881Y561631D01*
X364841Y556707D01*
X361072Y552937D01*
X356147Y550898D01*
X352984Y550898D01*
X352754Y550881D01*
X352524Y550871D01*
X352470Y550861D01*
X352415Y550858D01*
X352190Y550809D01*
X351964Y550767D01*
X351912Y550750D01*
X351858Y550738D01*
X351642Y550659D01*
X351424Y550586D01*
X351375Y550562D01*
X351323Y550543D01*
X351120Y550434D01*
X350914Y550331D01*
X350869Y550300D01*
X350821Y550274D01*
X350635Y550138D01*
X350445Y550007D01*
X350405Y549970D01*
X350361Y549937D01*
X350196Y549777D01*
X350027Y549621D01*
X349992Y549578D01*
X349952Y549540D01*
X349812Y549358D01*
X349666Y549180D01*
X349637Y549133D01*
X349604Y549089D01*
X349490Y548889D01*
X349370Y548693D01*
X349349Y548642D01*
X349321Y548594D01*
X349236Y548380D01*
X349146Y548169D01*
X349132Y548116D01*
X349111Y548065D01*
X349057Y547840D01*
X348997Y547619D01*
X348993Y547575D01*
X348977Y547511D01*
X348922Y546944D01*
X348925Y546878D01*
X348920Y546834D01*
X348920Y543670D01*
X346881Y538746D01*
X343111Y534977D01*
X338187Y532937D01*
X335204Y532937D01*
X335144Y532933D01*
X335084Y532935D01*
X334860Y532913D01*
X334636Y532897D01*
X334577Y532884D01*
X334517Y532878D01*
X334299Y532825D01*
X334079Y532778D01*
X334022Y532757D01*
X333963Y532743D01*
X333755Y532659D01*
X333544Y532582D01*
X333490Y532554D01*
X333434Y532531D01*
X333239Y532419D01*
X333041Y532313D01*
X332992Y532278D01*
X332940Y532248D01*
X332849Y532173D01*
X332581Y531977D01*
X332420Y531820D01*
X332331Y531747D01*
X313328Y512744D01*
X313288Y512699D01*
X313244Y512658D01*
X313102Y512484D01*
X312954Y512314D01*
X312922Y512263D01*
X312883Y512217D01*
X312767Y512024D01*
X312645Y511836D01*
X312619Y511781D01*
X312588Y511729D01*
X312499Y511523D01*
X312405Y511319D01*
X312387Y511261D01*
X312363Y511206D01*
X312305Y510989D01*
X312239Y510774D01*
X312230Y510714D01*
X312214Y510656D01*
X312203Y510539D01*
X312152Y510211D01*
X312149Y509986D01*
X312138Y509871D01*
X312138Y506896D01*
X310098Y501971D01*
X306329Y498202D01*
X301404Y496162D01*
X296074Y496162D01*
X291149Y498202D01*
X287380Y501971D01*
X285985Y505340D01*
X285985Y505341D01*
X285340Y506896D01*
X285340Y512226D01*
X287380Y517150D01*
X291149Y520920D01*
X296074Y522959D01*
X299050Y522959D01*
X299110Y522964D01*
X299170Y522961D01*
X299394Y522984D01*
X299618Y522999D01*
X299677Y523012D01*
X299737Y523018D01*
X299955Y523071D01*
X300175Y523119D01*
X300232Y523139D01*
X300291Y523154D01*
X300499Y523237D01*
X300710Y523314D01*
X300764Y523343D01*
X300820Y523365D01*
X301015Y523477D01*
X301213Y523583D01*
X301262Y523619D01*
X301314Y523649D01*
X301405Y523724D01*
X301673Y523920D01*
X301834Y524076D01*
X301923Y524150D01*
X320933Y543159D01*
X320972Y543205D01*
X321017Y543246D01*
X321159Y543420D01*
X321307Y543589D01*
X321339Y543640D01*
X321378Y543687D01*
X321494Y543879D01*
X321616Y544068D01*
X321642Y544122D01*
X321673Y544174D01*
X321761Y544380D01*
X321856Y544584D01*
X321874Y544642D01*
X321898Y544698D01*
X321956Y544914D01*
X322021Y545130D01*
X322031Y545189D01*
X322046Y545248D01*
X322058Y545365D01*
X322109Y545693D01*
X322112Y545918D01*
X322123Y546032D01*
X322123Y549001D01*
X324163Y553925D01*
X327932Y557695D01*
X332856Y559734D01*
X336020Y559734D01*
X336250Y559751D01*
X336480Y559761D01*
X336534Y559771D01*
X336589Y559774D01*
X336814Y559823D01*
X337040Y559865D01*
X337092Y559882D01*
X337146Y559893D01*
X337362Y559973D01*
X337580Y560046D01*
X337629Y560070D01*
X337681Y560089D01*
X337884Y560198D01*
X338090Y560301D01*
X338135Y560332D01*
X338183Y560358D01*
X338369Y560494D01*
X338559Y560625D01*
X338599Y560662D01*
X338643Y560694D01*
X338808Y560855D01*
X338977Y561011D01*
X339012Y561054D01*
X339052Y561092D01*
X339192Y561274D01*
X339338Y561452D01*
X339367Y561499D01*
X339400Y561543D01*
X339514Y561742D01*
X339634Y561939D01*
X339655Y561990D01*
X339682Y562038D01*
X339768Y562252D01*
X339858Y562463D01*
X339872Y562516D01*
X339893Y562567D01*
X339947Y562791D01*
X340007Y563013D01*
X340011Y563057D01*
X340027Y563121D01*
X340082Y563688D01*
X340079Y563754D01*
X340084Y563798D01*
X340084Y566961D01*
X342123Y571886D01*
X345893Y575655D01*
X350817Y577695D01*
X353793Y577695D01*
X353853Y577699D01*
X353913Y577697D01*
X354137Y577719D01*
X354361Y577735D01*
X354420Y577748D01*
X354480Y577754D01*
X354699Y577807D01*
X354918Y577854D01*
X354975Y577875D01*
X355034Y577889D01*
X355242Y577973D01*
X355453Y578050D01*
X355507Y578078D01*
X355563Y578101D01*
X355758Y578213D01*
X355956Y578319D01*
X356005Y578354D01*
X356057Y578384D01*
X356148Y578459D01*
X356416Y578655D01*
X356577Y578812D01*
X356666Y578885D01*
X388000Y610219D01*
X388075Y610306D01*
X388158Y610386D01*
X388262Y610521D01*
X388373Y610649D01*
X388436Y610746D01*
X388506Y610837D01*
X388591Y610985D01*
X388683Y611127D01*
X388732Y611232D01*
X388789Y611332D01*
X388852Y611490D01*
X388923Y611644D01*
X388956Y611754D01*
X388999Y611861D01*
X389039Y612027D01*
X389088Y612189D01*
X389106Y612303D01*
X389133Y612415D01*
X389149Y612585D01*
X389176Y612752D01*
X389177Y612867D01*
X389188Y612982D01*
X389181Y613152D01*
X389183Y613322D01*
X389169Y613436D01*
X389164Y613552D01*
X389133Y613719D01*
X389111Y613887D01*
X389081Y613999D01*
X389060Y614112D01*
X389006Y614273D01*
X388961Y614437D01*
X388915Y614543D01*
X388878Y614652D01*
X388802Y614804D01*
X388735Y614960D01*
X388675Y615058D01*
X388623Y615161D01*
X388527Y615301D01*
X388438Y615446D01*
X388365Y615535D01*
X388299Y615630D01*
X388184Y615755D01*
X388076Y615887D01*
X387991Y615964D01*
X387913Y616049D01*
X387781Y616157D01*
X387656Y616272D01*
X387561Y616337D01*
X387472Y616410D01*
X387327Y616498D01*
X387187Y616594D01*
X387083Y616646D01*
X386985Y616705D01*
X386829Y616772D01*
X386676Y616848D01*
X386567Y616884D01*
X386461Y616930D01*
X386297Y616974D01*
X386136Y617028D01*
X386022Y617049D01*
X385911Y617079D01*
X385797Y617090D01*
X385575Y617130D01*
X385243Y617144D01*
X385126Y617155D01*
X329364Y617155D01*
X329303Y617151D01*
X329243Y617153D01*
X329020Y617131D01*
X328795Y617115D01*
X328736Y617103D01*
X328676Y617097D01*
X328458Y617043D01*
X328238Y616996D01*
X328181Y616976D01*
X328123Y616961D01*
X327914Y616878D01*
X327703Y616800D01*
X327650Y616772D01*
X327594Y616750D01*
X327399Y616638D01*
X327200Y616532D01*
X327152Y616496D01*
X327099Y616466D01*
X327008Y616391D01*
X326741Y616195D01*
X326579Y616038D01*
X326490Y615965D01*
X277995Y567470D01*
X277955Y567424D01*
X277911Y567383D01*
X277769Y567209D01*
X277621Y567040D01*
X277589Y566989D01*
X277550Y566942D01*
X277434Y566750D01*
X277312Y566561D01*
X277286Y566507D01*
X277255Y566455D01*
X277166Y566249D01*
X277072Y566045D01*
X277054Y565987D01*
X277030Y565931D01*
X276972Y565715D01*
X276907Y565499D01*
X276897Y565440D01*
X276881Y565381D01*
X276870Y565264D01*
X276819Y564936D01*
X276816Y564711D01*
X276805Y564597D01*
X276805Y561621D01*
X274765Y556697D01*
X270996Y552927D01*
X266071Y550888D01*
X262908Y550888D01*
X262678Y550871D01*
X262448Y550861D01*
X262394Y550851D01*
X262339Y550848D01*
X262114Y550799D01*
X261888Y550757D01*
X261836Y550740D01*
X261782Y550728D01*
X261566Y550649D01*
X261348Y550576D01*
X261299Y550552D01*
X261247Y550533D01*
X261044Y550424D01*
X260838Y550321D01*
X260793Y550290D01*
X260745Y550264D01*
X260559Y550128D01*
X260369Y549997D01*
X260329Y549960D01*
X260285Y549927D01*
X260120Y549767D01*
X259951Y549611D01*
X259916Y549568D01*
X259876Y549530D01*
X259736Y549348D01*
X259590Y549170D01*
X259561Y549123D01*
X259528Y549079D01*
X259414Y548879D01*
X259294Y548683D01*
X259273Y548632D01*
X259245Y548584D01*
X259160Y548370D01*
X259070Y548159D01*
X259056Y548106D01*
X259035Y548055D01*
X258981Y547830D01*
X258921Y547609D01*
X258917Y547565D01*
X258901Y547501D01*
X258846Y546934D01*
X258849Y546868D01*
X258844Y546824D01*
X258844Y543660D01*
X256805Y538736D01*
X253035Y534967D01*
X248111Y532927D01*
X244714Y532927D01*
X244654Y532923D01*
X244594Y532925D01*
X244370Y532903D01*
X244146Y532887D01*
X244087Y532874D01*
X244027Y532868D01*
X243809Y532815D01*
X243589Y532768D01*
X243532Y532747D01*
X243473Y532733D01*
X243265Y532649D01*
X243053Y532572D01*
X243000Y532544D01*
X242944Y532521D01*
X242749Y532409D01*
X242551Y532303D01*
X242502Y532268D01*
X242450Y532238D01*
X242359Y532163D01*
X242091Y531967D01*
X241930Y531810D01*
X241841Y531737D01*
X222848Y512744D01*
X222808Y512699D01*
X222764Y512658D01*
X222622Y512484D01*
X222474Y512314D01*
X222442Y512263D01*
X222403Y512217D01*
X222287Y512024D01*
X222165Y511836D01*
X222139Y511781D01*
X222108Y511729D01*
X222019Y511523D01*
X221925Y511319D01*
X221907Y511261D01*
X221883Y511206D01*
X221825Y510989D01*
X221759Y510774D01*
X221750Y510714D01*
X221734Y510656D01*
X221723Y510539D01*
X221672Y510211D01*
X221669Y509986D01*
X221658Y509871D01*
X221658Y506896D01*
X219618Y501971D01*
X215849Y498202D01*
X210924Y496162D01*
X205594Y496162D01*
X200669Y498202D01*
X196900Y501971D01*
X195505Y505340D01*
X195505Y505341D01*
X194860Y506896D01*
X194860Y512226D01*
X196900Y517150D01*
X200669Y520920D01*
X205594Y522959D01*
X208570Y522959D01*
X208630Y522964D01*
X208690Y522961D01*
X208914Y522984D01*
X209138Y522999D01*
X209197Y523012D01*
X209257Y523018D01*
X209475Y523071D01*
X209695Y523119D01*
X209752Y523139D01*
X209811Y523154D01*
X210019Y523237D01*
X210230Y523314D01*
X210284Y523343D01*
X210340Y523365D01*
X210535Y523477D01*
X210733Y523583D01*
X210782Y523619D01*
X210834Y523649D01*
X210925Y523724D01*
X211193Y523920D01*
X211354Y524076D01*
X211443Y524150D01*
X230857Y543563D01*
X230896Y543609D01*
X230941Y543650D01*
X231084Y543824D01*
X231231Y543993D01*
X231263Y544044D01*
X231302Y544091D01*
X231418Y544283D01*
X231540Y544472D01*
X231566Y544526D01*
X231597Y544578D01*
X231685Y544784D01*
X231780Y544988D01*
X231798Y545046D01*
X231822Y545102D01*
X231880Y545318D01*
X231945Y545534D01*
X231955Y545594D01*
X231970Y545652D01*
X231982Y545769D01*
X232033Y546097D01*
X232036Y546322D01*
X232047Y546436D01*
X232047Y548991D01*
X234087Y553915D01*
X237856Y557685D01*
X242780Y559724D01*
X245944Y559724D01*
X246174Y559741D01*
X246404Y559751D01*
X246458Y559761D01*
X246513Y559764D01*
X246738Y559813D01*
X246964Y559855D01*
X247016Y559872D01*
X247070Y559883D01*
X247286Y559963D01*
X247504Y560036D01*
X247553Y560060D01*
X247605Y560079D01*
X247808Y560188D01*
X248014Y560291D01*
X248059Y560322D01*
X248107Y560348D01*
X248293Y560484D01*
X248483Y560615D01*
X248523Y560652D01*
X248567Y560684D01*
X248732Y560845D01*
X248901Y561001D01*
X248936Y561044D01*
X248976Y561082D01*
X249116Y561264D01*
X249262Y561442D01*
X249291Y561489D01*
X249324Y561533D01*
X249438Y561732D01*
X249558Y561929D01*
X249579Y561980D01*
X249606Y562028D01*
X249692Y562242D01*
X249782Y562453D01*
X249796Y562506D01*
X249817Y562557D01*
X249871Y562781D01*
X249931Y563003D01*
X249935Y563047D01*
X249951Y563111D01*
X250006Y563678D01*
X250003Y563744D01*
X250008Y563788D01*
X250008Y566951D01*
X252047Y571876D01*
X255817Y575645D01*
X260741Y577685D01*
X263717Y577685D01*
X263777Y577689D01*
X263837Y577687D01*
X264061Y577709D01*
X264285Y577725D01*
X264344Y577738D01*
X264404Y577744D01*
X264623Y577797D01*
X264842Y577844D01*
X264899Y577865D01*
X264958Y577879D01*
X265166Y577963D01*
X265377Y578040D01*
X265431Y578068D01*
X265487Y578091D01*
X265682Y578203D01*
X265880Y578309D01*
X265928Y578344D01*
X265981Y578374D01*
X266072Y578449D01*
X266340Y578645D01*
X266501Y578802D01*
X266590Y578875D01*
X313174Y625459D01*
X313249Y625546D01*
X313332Y625626D01*
X313436Y625761D01*
X313547Y625889D01*
X313610Y625986D01*
X313680Y626077D01*
X313765Y626225D01*
X313857Y626367D01*
X313905Y626471D01*
X313963Y626572D01*
X314026Y626730D01*
X314097Y626884D01*
X314130Y626994D01*
X314173Y627101D01*
X314213Y627267D01*
X314262Y627429D01*
X314280Y627543D01*
X314307Y627655D01*
X314323Y627825D01*
X314350Y627992D01*
X314351Y628107D01*
X314362Y628222D01*
X314355Y628392D01*
X314357Y628562D01*
X314343Y628676D01*
X314338Y628792D01*
X314307Y628959D01*
X314285Y629127D01*
X314255Y629239D01*
X314234Y629352D01*
X314180Y629513D01*
X314135Y629677D01*
X314089Y629783D01*
X314052Y629892D01*
X313976Y630044D01*
X313909Y630200D01*
X313849Y630298D01*
X313797Y630401D01*
X313701Y630541D01*
X313612Y630686D01*
X313539Y630775D01*
X313473Y630870D01*
X313358Y630995D01*
X313250Y631127D01*
X313165Y631204D01*
X313087Y631289D01*
X312955Y631397D01*
X312830Y631512D01*
X312735Y631577D01*
X312646Y631650D01*
X312501Y631738D01*
X312361Y631834D01*
X312257Y631886D01*
X312159Y631945D01*
X312003Y632012D01*
X311850Y632088D01*
X311741Y632124D01*
X311635Y632170D01*
X311471Y632214D01*
X311310Y632268D01*
X311196Y632289D01*
X311085Y632319D01*
X310971Y632330D01*
X310749Y632370D01*
X310417Y632384D01*
X310300Y632395D01*
X254388Y632395D01*
X254327Y632391D01*
X254267Y632393D01*
X254044Y632371D01*
X253819Y632355D01*
X253760Y632343D01*
X253700Y632337D01*
X253482Y632283D01*
X253262Y632236D01*
X253205Y632216D01*
X253147Y632201D01*
X252938Y632118D01*
X252727Y632040D01*
X252674Y632012D01*
X252618Y631990D01*
X252422Y631878D01*
X252224Y631772D01*
X252176Y631736D01*
X252123Y631706D01*
X252032Y631631D01*
X251765Y631435D01*
X251603Y631278D01*
X251514Y631205D01*
X187903Y567594D01*
X187863Y567548D01*
X187819Y567507D01*
X187785Y567466D01*
X187754Y567435D01*
X187659Y567312D01*
X187529Y567164D01*
X187497Y567113D01*
X187458Y567066D01*
X187423Y567008D01*
X187405Y566984D01*
X187344Y566877D01*
X187342Y566874D01*
X187220Y566685D01*
X187194Y566631D01*
X187163Y566579D01*
X187130Y566503D01*
X187123Y566489D01*
X187099Y566430D01*
X187074Y566373D01*
X186980Y566169D01*
X186962Y566111D01*
X186938Y566055D01*
X186913Y565962D01*
X186912Y565960D01*
X186911Y565952D01*
X186880Y565839D01*
X186815Y565623D01*
X186805Y565564D01*
X186789Y565505D01*
X186781Y565416D01*
X186778Y565406D01*
X186774Y565362D01*
X186727Y565060D01*
X186724Y564853D01*
X186723Y564839D01*
X186723Y564828D01*
X186713Y564721D01*
X186713Y561745D01*
X184673Y556821D01*
X180904Y553051D01*
X175979Y551012D01*
X172816Y551012D01*
X172586Y550995D01*
X172356Y550985D01*
X172302Y550975D01*
X172247Y550972D01*
X172022Y550923D01*
X171796Y550881D01*
X171744Y550864D01*
X171690Y550852D01*
X171474Y550773D01*
X171256Y550700D01*
X171207Y550676D01*
X171155Y550657D01*
X170952Y550548D01*
X170746Y550445D01*
X170701Y550414D01*
X170653Y550388D01*
X170467Y550252D01*
X170277Y550121D01*
X170237Y550084D01*
X170193Y550051D01*
X170028Y549891D01*
X169859Y549735D01*
X169824Y549692D01*
X169784Y549654D01*
X169644Y549472D01*
X169498Y549294D01*
X169469Y549247D01*
X169436Y549203D01*
X169322Y549003D01*
X169202Y548807D01*
X169181Y548756D01*
X169153Y548708D01*
X169068Y548494D01*
X168978Y548283D01*
X168964Y548230D01*
X168943Y548179D01*
X168889Y547954D01*
X168829Y547733D01*
X168825Y547689D01*
X168809Y547625D01*
X168754Y547058D01*
X168757Y546992D01*
X168752Y546948D01*
X168752Y543784D01*
X166713Y538860D01*
X162943Y535091D01*
X158019Y533051D01*
X154985Y533051D01*
X154961Y533049D01*
X154936Y533051D01*
X154676Y533029D01*
X154417Y533011D01*
X154393Y533006D01*
X154368Y533004D01*
X154114Y532946D01*
X153860Y532892D01*
X153837Y532884D01*
X153813Y532878D01*
X153570Y532786D01*
X153324Y532696D01*
X153303Y532684D01*
X153280Y532676D01*
X153053Y532551D01*
X152822Y532427D01*
X152802Y532413D01*
X152781Y532401D01*
X152718Y532351D01*
X152362Y532091D01*
X152240Y531972D01*
X152163Y531911D01*
X132039Y512484D01*
X131975Y512413D01*
X131904Y512347D01*
X131784Y512201D01*
X131658Y512061D01*
X131604Y511981D01*
X131543Y511906D01*
X131445Y511745D01*
X131340Y511588D01*
X131298Y511501D01*
X131248Y511419D01*
X131174Y511246D01*
X131091Y511075D01*
X131061Y510984D01*
X131023Y510895D01*
X130974Y510713D01*
X130916Y510533D01*
X130900Y510438D01*
X130874Y510346D01*
X130863Y510226D01*
X130819Y509972D01*
X130810Y509682D01*
X130798Y509561D01*
X130798Y506896D01*
X128758Y501971D01*
X124989Y498202D01*
X120064Y496162D01*
X114734Y496162D01*
X109809Y498202D01*
X106040Y501971D01*
X104645Y505340D01*
X104645Y505341D01*
X104000Y506896D01*
X104000Y512226D01*
X106040Y517150D01*
X109809Y520920D01*
X114734Y522959D01*
X118026Y522959D01*
X118050Y522961D01*
X118075Y522960D01*
X118334Y522981D01*
X118594Y522999D01*
X118618Y523005D01*
X118643Y523007D01*
X118897Y523064D01*
X119151Y523119D01*
X119174Y523127D01*
X119198Y523132D01*
X119441Y523224D01*
X119686Y523314D01*
X119708Y523326D01*
X119731Y523335D01*
X119959Y523460D01*
X120189Y523583D01*
X120209Y523598D01*
X120230Y523609D01*
X120293Y523660D01*
X120649Y523920D01*
X120770Y524038D01*
X120848Y524099D01*
X140714Y543277D01*
X140778Y543349D01*
X140849Y543414D01*
X140969Y543561D01*
X141095Y543701D01*
X141149Y543780D01*
X141210Y543855D01*
X141308Y544017D01*
X141413Y544174D01*
X141455Y544260D01*
X141505Y544342D01*
X141579Y544516D01*
X141662Y544686D01*
X141692Y544778D01*
X141730Y544866D01*
X141779Y545048D01*
X141837Y545228D01*
X141853Y545323D01*
X141878Y545416D01*
X141890Y545536D01*
X141934Y545790D01*
X141943Y546080D01*
X141955Y546201D01*
X141955Y549115D01*
X143995Y554039D01*
X147764Y557809D01*
X152688Y559848D01*
X155852Y559848D01*
X156082Y559865D01*
X156312Y559875D01*
X156366Y559885D01*
X156421Y559888D01*
X156646Y559937D01*
X156872Y559979D01*
X156924Y559996D01*
X156978Y560007D01*
X157194Y560087D01*
X157412Y560160D01*
X157461Y560184D01*
X157513Y560203D01*
X157716Y560312D01*
X157922Y560415D01*
X157967Y560446D01*
X158015Y560472D01*
X158201Y560608D01*
X158391Y560739D01*
X158431Y560776D01*
X158475Y560808D01*
X158640Y560969D01*
X158809Y561125D01*
X158844Y561168D01*
X158884Y561206D01*
X159024Y561388D01*
X159170Y561566D01*
X159199Y561613D01*
X159232Y561657D01*
X159346Y561856D01*
X159466Y562053D01*
X159487Y562104D01*
X159514Y562152D01*
X159600Y562366D01*
X159690Y562577D01*
X159704Y562630D01*
X159725Y562681D01*
X159779Y562905D01*
X159839Y563127D01*
X159843Y563171D01*
X159859Y563235D01*
X159914Y563802D01*
X159911Y563868D01*
X159916Y563912D01*
X159916Y567075D01*
X161955Y572000D01*
X165725Y575769D01*
X170649Y577809D01*
X173625Y577809D01*
X173685Y577813D01*
X173745Y577811D01*
X173969Y577833D01*
X174193Y577849D01*
X174252Y577862D01*
X174312Y577868D01*
X174531Y577921D01*
X174750Y577968D01*
X174807Y577989D01*
X174866Y578003D01*
X175074Y578087D01*
X175285Y578164D01*
X175339Y578192D01*
X175395Y578215D01*
X175590Y578327D01*
X175788Y578433D01*
X175836Y578468D01*
X175889Y578498D01*
X175980Y578573D01*
X176248Y578769D01*
X176409Y578926D01*
X176498Y578999D01*
X244796Y647297D01*
X247760Y648525D01*
X485324Y648525D01*
X488288Y647297D01*
X521037Y614548D01*
X522265Y611584D01*
X522265Y519453D01*
X522277Y519280D01*
X522279Y519108D01*
X522297Y518997D01*
X522305Y518885D01*
X522341Y518716D01*
X522367Y518545D01*
X522400Y518437D01*
X522424Y518327D01*
X522483Y518165D01*
X522533Y518000D01*
X522581Y517898D01*
X522620Y517792D01*
X522701Y517640D01*
X522774Y517483D01*
X522835Y517389D01*
X522888Y517290D01*
X522990Y517151D01*
X523084Y517006D01*
X523158Y516921D01*
X523225Y516830D01*
X523345Y516706D01*
X523459Y516576D01*
X523544Y516502D01*
X523622Y516422D01*
X523759Y516316D01*
X523889Y516203D01*
X523984Y516142D01*
X524073Y516073D01*
X524223Y515987D01*
X524368Y515894D01*
X524470Y515847D01*
X524568Y515791D01*
X524729Y515727D01*
X524885Y515655D01*
X524993Y515622D01*
X525097Y515581D01*
X525265Y515540D01*
X525431Y515490D01*
X525542Y515473D01*
X525651Y515446D01*
X525823Y515430D01*
X525994Y515403D01*
X526106Y515402D01*
X526218Y515391D01*
X526391Y515399D01*
X526564Y515397D01*
X526675Y515411D01*
X526788Y515416D01*
X526958Y515447D01*
X527129Y515469D01*
X527210Y515494D01*
X527348Y515520D01*
X527871Y515695D01*
X527883Y515699D01*
X527888Y515701D01*
X533435Y517999D01*
X538765Y517999D01*
X543690Y515959D01*
X547459Y512190D01*
X549499Y507265D01*
X549499Y501935D01*
X547459Y497010D01*
X544189Y493741D01*
X544039Y493567D01*
X543883Y493397D01*
X543852Y493352D01*
X543816Y493311D01*
X543691Y493118D01*
X543560Y492928D01*
X543536Y492879D01*
X543506Y492832D01*
X543409Y492624D01*
X543307Y492418D01*
X543289Y492365D01*
X543266Y492316D01*
X543199Y492095D01*
X543127Y491877D01*
X543117Y491823D01*
X543101Y491770D01*
X543066Y491543D01*
X543024Y491316D01*
X543022Y491261D01*
X543014Y491207D01*
X543010Y490978D01*
X543001Y490747D01*
X543007Y490692D01*
X543006Y490638D01*
X543035Y490409D01*
X543058Y490180D01*
X543071Y490127D01*
X543078Y490072D01*
X543139Y489850D01*
X543193Y489627D01*
X543214Y489576D01*
X543228Y489523D01*
X543320Y489311D01*
X543405Y489098D01*
X543432Y489050D01*
X543454Y489000D01*
X543574Y488803D01*
X543689Y488603D01*
X543717Y488569D01*
X543751Y488513D01*
X544113Y488073D01*
X544161Y488029D01*
X544189Y487994D01*
X545206Y486978D01*
X546311Y485457D01*
X547164Y483783D01*
X547333Y483263D01*
X536100Y483263D01*
X535871Y483247D01*
X535641Y483237D01*
X535587Y483227D01*
X535532Y483223D01*
X535307Y483175D01*
X535081Y483133D01*
X535028Y483116D01*
X534975Y483104D01*
X534759Y483025D01*
X534540Y482952D01*
X534491Y482927D01*
X534440Y482909D01*
X534237Y482800D01*
X534031Y482697D01*
X533986Y482666D01*
X533937Y482640D01*
X533752Y482504D01*
X533562Y482373D01*
X533522Y482336D01*
X533477Y482303D01*
X533313Y482143D01*
X533143Y481987D01*
X533108Y481944D01*
X533069Y481906D01*
X532928Y481724D01*
X532782Y481546D01*
X532754Y481499D01*
X532720Y481455D01*
X532606Y481255D01*
X532487Y481059D01*
X532465Y481008D01*
X532438Y480960D01*
X532353Y480746D01*
X532263Y480535D01*
X532248Y480482D01*
X532228Y480431D01*
X532174Y480206D01*
X532114Y479985D01*
X532109Y479941D01*
X532094Y479877D01*
X532039Y479310D01*
X532041Y479244D01*
X532037Y479200D01*
X532053Y478970D01*
X532063Y478740D01*
X532073Y478686D01*
X532077Y478631D01*
X532125Y478406D01*
X532167Y478180D01*
X532185Y478128D01*
X532196Y478074D01*
X532275Y477858D01*
X532348Y477640D01*
X532373Y477591D01*
X532392Y477539D01*
X532501Y477336D01*
X532604Y477130D01*
X532635Y477085D01*
X532661Y477037D01*
X532796Y476851D01*
X532927Y476662D01*
X532965Y476621D01*
X532997Y476577D01*
X533157Y476412D01*
X533314Y476243D01*
X533356Y476208D01*
X533395Y476169D01*
X533576Y476028D01*
X533755Y475882D01*
X533802Y475853D01*
X533845Y475820D01*
X534045Y475706D01*
X534242Y475586D01*
X534292Y475565D01*
X534340Y475538D01*
X534555Y475452D01*
X534766Y475362D01*
X534818Y475348D01*
X534870Y475327D01*
X535094Y475273D01*
X535316Y475213D01*
X535360Y475209D01*
X535424Y475193D01*
X535991Y475138D01*
X536056Y475141D01*
X536100Y475137D01*
X547333Y475137D01*
X547164Y474617D01*
X546311Y472943D01*
X545206Y471422D01*
X544189Y470406D01*
X544065Y470263D01*
X544036Y470234D01*
X544010Y470201D01*
X543883Y470062D01*
X543852Y470017D01*
X543816Y469975D01*
X543713Y469817D01*
X543687Y469783D01*
X543666Y469746D01*
X543560Y469592D01*
X543536Y469543D01*
X543506Y469497D01*
X543427Y469328D01*
X543405Y469288D01*
X543388Y469246D01*
X543307Y469082D01*
X543289Y469030D01*
X543266Y468980D01*
X543213Y468805D01*
X543195Y468759D01*
X543183Y468711D01*
X543127Y468542D01*
X543117Y468488D01*
X543101Y468435D01*
X543074Y468259D01*
X543060Y468205D01*
X543055Y468151D01*
X543024Y467981D01*
X543022Y467926D01*
X543014Y467872D01*
X543011Y467700D01*
X543005Y467638D01*
X543008Y467577D01*
X543001Y467412D01*
X543007Y467357D01*
X543006Y467302D01*
X543027Y467139D01*
X543030Y467068D01*
X543042Y467001D01*
X543058Y466845D01*
X543071Y466791D01*
X543078Y466737D01*
X543119Y466585D01*
X543134Y466508D01*
X543158Y466435D01*
X543193Y466291D01*
X543214Y466240D01*
X543228Y466187D01*
X543287Y466052D01*
X543315Y465968D01*
X543354Y465891D01*
X543405Y465762D01*
X543432Y465715D01*
X543454Y465664D01*
X543526Y465546D01*
X543570Y465459D01*
X543625Y465380D01*
X543689Y465268D01*
X543717Y465234D01*
X543751Y465178D01*
X543833Y465079D01*
X543894Y464990D01*
X544002Y464873D01*
X544113Y464738D01*
X544161Y464694D01*
X544189Y464659D01*
X544194Y464655D01*
X544239Y464615D01*
X544280Y464571D01*
X544416Y464460D01*
X544533Y464353D01*
X544575Y464324D01*
X544624Y464281D01*
X544675Y464248D01*
X544721Y464210D01*
X544884Y464111D01*
X545002Y464030D01*
X545041Y464011D01*
X545102Y463971D01*
X545157Y463946D01*
X545209Y463915D01*
X545397Y463834D01*
X545513Y463776D01*
X545547Y463765D01*
X545619Y463731D01*
X545677Y463714D01*
X545732Y463690D01*
X545943Y463633D01*
X546053Y463596D01*
X546082Y463591D01*
X546164Y463566D01*
X546224Y463557D01*
X546282Y463541D01*
X546399Y463530D01*
X546521Y463511D01*
X546614Y463494D01*
X546636Y463493D01*
X546727Y463479D01*
X546952Y463476D01*
X547067Y463465D01*
X547433Y463465D01*
X547493Y463469D01*
X547554Y463467D01*
X547777Y463489D01*
X548001Y463505D01*
X548061Y463517D01*
X548121Y463523D01*
X548339Y463577D01*
X548559Y463624D01*
X548615Y463644D01*
X548674Y463659D01*
X548883Y463742D01*
X549094Y463820D01*
X549147Y463848D01*
X549203Y463871D01*
X549398Y463982D01*
X549596Y464088D01*
X549645Y464124D01*
X549697Y464154D01*
X549788Y464229D01*
X550056Y464425D01*
X550217Y464582D01*
X550306Y464655D01*
X552410Y466759D01*
X557335Y468799D01*
X562665Y468799D01*
X566317Y467286D01*
X566481Y467231D01*
X566641Y467168D01*
X566751Y467141D01*
X566857Y467105D01*
X567027Y467074D01*
X567195Y467033D01*
X567307Y467023D01*
X567418Y467002D01*
X567590Y466995D01*
X567762Y466978D01*
X567875Y466983D01*
X567987Y466978D01*
X568159Y466995D01*
X568332Y467003D01*
X568442Y467023D01*
X568554Y467034D01*
X568722Y467075D01*
X568892Y467107D01*
X568998Y467143D01*
X569108Y467169D01*
X569268Y467233D01*
X569432Y467288D01*
X569533Y467339D01*
X569637Y467380D01*
X569787Y467466D01*
X569941Y467543D01*
X570034Y467607D01*
X570132Y467663D01*
X570268Y467769D01*
X570410Y467867D01*
X570493Y467943D01*
X570582Y468012D01*
X570702Y468136D01*
X570829Y468253D01*
X570900Y468340D01*
X570979Y468421D01*
X571080Y468561D01*
X571190Y468694D01*
X571248Y468791D01*
X571315Y468881D01*
X571396Y469034D01*
X571485Y469182D01*
X571530Y469285D01*
X571583Y469384D01*
X571642Y469547D01*
X571710Y469705D01*
X571739Y469814D01*
X571778Y469920D01*
X571814Y470089D01*
X571859Y470255D01*
X571867Y470340D01*
X571896Y470477D01*
X571934Y471027D01*
X571935Y471040D01*
X571935Y574976D01*
X571931Y575037D01*
X571933Y575097D01*
X571911Y575320D01*
X571895Y575545D01*
X571883Y575604D01*
X571877Y575664D01*
X571823Y575882D01*
X571776Y576102D01*
X571756Y576159D01*
X571741Y576217D01*
X571658Y576426D01*
X571580Y576637D01*
X571552Y576690D01*
X571530Y576746D01*
X571418Y576941D01*
X571312Y577140D01*
X571276Y577188D01*
X571246Y577241D01*
X571171Y577332D01*
X570975Y577599D01*
X570818Y577761D01*
X570745Y577850D01*
X487850Y660745D01*
X487804Y660785D01*
X487763Y660829D01*
X487589Y660971D01*
X487419Y661119D01*
X487369Y661152D01*
X487322Y661190D01*
X487130Y661307D01*
X486941Y661429D01*
X486886Y661454D01*
X486835Y661485D01*
X486628Y661574D01*
X486424Y661669D01*
X486367Y661686D01*
X486311Y661710D01*
X486094Y661768D01*
X485879Y661834D01*
X485819Y661843D01*
X485761Y661859D01*
X485644Y661870D01*
X485316Y661921D01*
X485091Y661924D01*
X484976Y661935D01*
X215024Y661935D01*
X214963Y661931D01*
X214903Y661933D01*
X214680Y661911D01*
X214455Y661895D01*
X214396Y661883D01*
X214336Y661877D01*
X214118Y661823D01*
X213898Y661776D01*
X213841Y661756D01*
X213783Y661741D01*
X213574Y661658D01*
X213363Y661580D01*
X213310Y661552D01*
X213254Y661530D01*
X213059Y661418D01*
X212860Y661312D01*
X212812Y661276D01*
X212759Y661246D01*
X212668Y661171D01*
X212401Y660975D01*
X212239Y660818D01*
X212150Y660745D01*
X89255Y537850D01*
X89215Y537804D01*
X89171Y537763D01*
X89029Y537589D01*
X88881Y537419D01*
X88848Y537369D01*
X88810Y537322D01*
X88693Y537130D01*
X88571Y536941D01*
X88546Y536886D01*
X88515Y536835D01*
X88426Y536629D01*
X88331Y536424D01*
X88314Y536367D01*
X88290Y536311D01*
X88232Y536094D01*
X88166Y535879D01*
X88157Y535819D01*
X88141Y535761D01*
X88130Y535644D01*
X88079Y535316D01*
X88076Y535091D01*
X88065Y534976D01*
X88065Y445024D01*
X88069Y444963D01*
X88067Y444903D01*
X88089Y444680D01*
X88105Y444455D01*
X88117Y444396D01*
X88123Y444336D01*
X88177Y444118D01*
X88224Y443898D01*
X88244Y443841D01*
X88259Y443783D01*
X88342Y443574D01*
X88420Y443363D01*
X88448Y443310D01*
X88470Y443254D01*
X88582Y443059D01*
X88688Y442860D01*
X88724Y442812D01*
X88754Y442759D01*
X88829Y442668D01*
X89025Y442401D01*
X89182Y442239D01*
X89255Y442150D01*
X101837Y429568D01*
X103065Y426604D01*
X103065Y220024D01*
X103069Y219963D01*
X103067Y219903D01*
X103089Y219680D01*
X103105Y219455D01*
X103117Y219396D01*
X103123Y219336D01*
X103177Y219118D01*
X103224Y218898D01*
X103244Y218841D01*
X103259Y218783D01*
X103342Y218574D01*
X103420Y218363D01*
X103448Y218310D01*
X103470Y218254D01*
X103582Y218059D01*
X103688Y217860D01*
X103724Y217812D01*
X103754Y217759D01*
X103829Y217668D01*
X104025Y217401D01*
X104182Y217239D01*
X104255Y217150D01*
X168741Y152664D01*
X168743Y152663D01*
X168745Y152661D01*
X168957Y152477D01*
X169171Y152291D01*
X169173Y152289D01*
X169175Y152287D01*
X169413Y152134D01*
X169649Y151981D01*
X169652Y151980D01*
X169654Y151978D01*
X169911Y151860D01*
X170166Y151741D01*
X170169Y151740D01*
X170171Y151739D01*
X170445Y151656D01*
X170711Y151576D01*
X170714Y151575D01*
X170717Y151575D01*
X171006Y151530D01*
X171274Y151488D01*
X171277Y151488D01*
X171280Y151488D01*
X171568Y151485D01*
X171844Y151481D01*
X171847Y151481D01*
X171850Y151481D01*
X172120Y151516D01*
X172409Y151553D01*
X172412Y151554D01*
X172415Y151554D01*
X172426Y151558D01*
X172959Y151703D01*
X173087Y151759D01*
X173169Y151784D01*
X177314Y153501D01*
X182686Y153501D01*
X187648Y151445D01*
X191445Y147648D01*
X193501Y142686D01*
X193501Y137314D01*
X191445Y132352D01*
X187648Y128555D01*
X185382Y127616D01*
X185262Y127556D01*
X185137Y127505D01*
X185007Y127429D01*
X184872Y127362D01*
X184762Y127286D01*
X184646Y127218D01*
X184527Y127124D01*
X184403Y127039D01*
X184304Y126948D01*
X184199Y126864D01*
X184094Y126755D01*
X183984Y126653D01*
X183899Y126549D01*
X183806Y126452D01*
X183718Y126329D01*
X183622Y126212D01*
X183552Y126098D01*
X183474Y125988D01*
X183404Y125854D01*
X183326Y125726D01*
X183273Y125602D01*
X183211Y125483D01*
X183160Y125340D01*
X183101Y125202D01*
X183066Y125073D01*
X183021Y124946D01*
X182991Y124798D01*
X182951Y124652D01*
X182934Y124519D01*
X182908Y124387D01*
X182899Y124237D01*
X182880Y124087D01*
X182882Y123952D01*
X182874Y123818D01*
X182886Y123668D01*
X182888Y123517D01*
X182909Y123384D01*
X182920Y123251D01*
X182953Y123103D01*
X182976Y122954D01*
X183016Y122826D01*
X183045Y122695D01*
X183099Y122553D01*
X183142Y122409D01*
X183199Y122288D01*
X183247Y122162D01*
X183319Y122029D01*
X183383Y121893D01*
X183456Y121780D01*
X183521Y121662D01*
X183611Y121542D01*
X183693Y121415D01*
X183782Y121314D01*
X183862Y121206D01*
X183969Y121099D01*
X184068Y120985D01*
X184169Y120897D01*
X184264Y120802D01*
X184351Y120740D01*
X184498Y120612D01*
X184821Y120404D01*
X184905Y120343D01*
X188052Y118526D01*
X193526Y113052D01*
X197397Y106348D01*
X199401Y98871D01*
X199401Y91129D01*
X197397Y83652D01*
X193526Y76948D01*
X188052Y71474D01*
X181348Y67603D01*
X173871Y65599D01*
X166129Y65599D01*
X158652Y67603D01*
X151948Y71474D01*
X146474Y76948D01*
X142603Y83652D01*
X140599Y91129D01*
X140599Y98871D01*
X142603Y106348D01*
X146474Y113052D01*
X151948Y118526D01*
X158652Y122397D01*
X166129Y124401D01*
X166159Y124401D01*
X166216Y124405D01*
X166274Y124402D01*
X166500Y124425D01*
X166727Y124441D01*
X166783Y124453D01*
X166841Y124458D01*
X167061Y124512D01*
X167284Y124560D01*
X167338Y124580D01*
X167394Y124593D01*
X167605Y124677D01*
X167819Y124756D01*
X167870Y124783D01*
X167924Y124804D01*
X168121Y124917D01*
X168322Y125024D01*
X168368Y125058D01*
X168418Y125087D01*
X168598Y125227D01*
X168781Y125361D01*
X168823Y125401D01*
X168868Y125436D01*
X169027Y125600D01*
X169190Y125758D01*
X169225Y125804D01*
X169265Y125845D01*
X169399Y126029D01*
X169538Y126209D01*
X169567Y126259D01*
X169601Y126306D01*
X169708Y126506D01*
X169821Y126704D01*
X169842Y126757D01*
X169869Y126808D01*
X169947Y127022D01*
X170031Y127233D01*
X170045Y127290D01*
X170064Y127344D01*
X170111Y127566D01*
X170165Y127787D01*
X170171Y127845D01*
X170183Y127901D01*
X170198Y128128D01*
X170220Y128354D01*
X170218Y128412D01*
X170222Y128469D01*
X170206Y128696D01*
X170196Y128924D01*
X170185Y128980D01*
X170181Y129038D01*
X170133Y129260D01*
X170092Y129484D01*
X170073Y129538D01*
X170061Y129595D01*
X169983Y129808D01*
X169910Y130024D01*
X169885Y130076D01*
X169865Y130130D01*
X169757Y130330D01*
X169655Y130533D01*
X169623Y130581D01*
X169595Y130632D01*
X169461Y130815D01*
X169331Y131002D01*
X169292Y131045D01*
X169258Y131091D01*
X169100Y131254D01*
X168945Y131421D01*
X168900Y131458D01*
X168860Y131499D01*
X168681Y131638D01*
X168504Y131782D01*
X168455Y131812D01*
X168409Y131847D01*
X168306Y131902D01*
X168017Y132077D01*
X167814Y132164D01*
X167713Y132218D01*
X165432Y133163D01*
X162592Y136003D01*
X91003Y207592D01*
X88163Y210432D01*
X87188Y212786D01*
X87188Y212787D01*
X86935Y213396D01*
X86935Y334151D01*
X86923Y334323D01*
X86921Y334496D01*
X86903Y334607D01*
X86895Y334719D01*
X86859Y334888D01*
X86833Y335059D01*
X86800Y335167D01*
X86776Y335277D01*
X86717Y335438D01*
X86667Y335604D01*
X86619Y335706D01*
X86580Y335812D01*
X86499Y335964D01*
X86426Y336121D01*
X86365Y336215D01*
X86312Y336314D01*
X86210Y336453D01*
X86116Y336598D01*
X86041Y336683D01*
X85975Y336774D01*
X85855Y336898D01*
X85741Y337028D01*
X85656Y337102D01*
X85578Y337182D01*
X85441Y337288D01*
X85311Y337401D01*
X85216Y337462D01*
X85127Y337531D01*
X84977Y337616D01*
X84832Y337710D01*
X84730Y337757D01*
X84632Y337813D01*
X84471Y337877D01*
X84315Y337949D01*
X84207Y337982D01*
X84103Y338023D01*
X83934Y338064D01*
X83769Y338114D01*
X83658Y338131D01*
X83549Y338157D01*
X83377Y338174D01*
X83206Y338200D01*
X83094Y338202D01*
X82982Y338213D01*
X82809Y338205D01*
X82636Y338207D01*
X82525Y338193D01*
X82412Y338188D01*
X82242Y338157D01*
X82071Y338135D01*
X81990Y338110D01*
X81852Y338084D01*
X81329Y337909D01*
X81317Y337905D01*
X81312Y337903D01*
X80116Y337407D01*
X74684Y337407D01*
X70539Y339124D01*
X70439Y339158D01*
X70343Y339200D01*
X70169Y339248D01*
X69998Y339305D01*
X69895Y339324D01*
X69794Y339352D01*
X69616Y339376D01*
X69438Y339408D01*
X69333Y339413D01*
X69229Y339426D01*
X69049Y339425D01*
X68869Y339432D01*
X68764Y339422D01*
X68659Y339421D01*
X68481Y339394D01*
X68302Y339376D01*
X68200Y339351D01*
X68096Y339336D01*
X67923Y339284D01*
X67748Y339241D01*
X67651Y339203D01*
X67550Y339172D01*
X67386Y339097D01*
X67219Y339030D01*
X67128Y338978D01*
X67032Y338935D01*
X66881Y338837D01*
X66724Y338747D01*
X66641Y338683D01*
X66553Y338627D01*
X66417Y338509D01*
X66274Y338398D01*
X66201Y338323D01*
X66121Y338255D01*
X66003Y338119D01*
X65877Y337989D01*
X65815Y337905D01*
X65746Y337826D01*
X65647Y337675D01*
X65541Y337529D01*
X65492Y337437D01*
X65435Y337349D01*
X65387Y337240D01*
X65273Y337026D01*
X65168Y336737D01*
X65119Y336626D01*
X64564Y334917D01*
X63711Y333243D01*
X62606Y331722D01*
X61278Y330394D01*
X60856Y330087D01*
X60846Y330079D01*
X60835Y330072D01*
X60626Y329894D01*
X60420Y329721D01*
X60411Y329711D01*
X60401Y329703D01*
X60221Y329500D01*
X60039Y329297D01*
X60031Y329286D01*
X60023Y329276D01*
X59874Y329053D01*
X59721Y328824D01*
X59715Y328812D01*
X59708Y328801D01*
X59592Y328558D01*
X59472Y328311D01*
X59468Y328299D01*
X59463Y328287D01*
X59381Y328026D01*
X59298Y327769D01*
X59296Y327756D01*
X59292Y327743D01*
X59247Y327471D01*
X59201Y327207D01*
X59201Y327194D01*
X59199Y327181D01*
X59192Y326908D01*
X59184Y326638D01*
X59186Y326625D01*
X59185Y326612D01*
X59217Y326341D01*
X59247Y326072D01*
X59250Y326059D01*
X59252Y326046D01*
X59321Y325783D01*
X59388Y325520D01*
X59393Y325507D01*
X59396Y325495D01*
X59501Y325245D01*
X59605Y324993D01*
X59612Y324981D01*
X59617Y324969D01*
X59756Y324735D01*
X59894Y324501D01*
X59902Y324491D01*
X59909Y324480D01*
X60079Y324268D01*
X60248Y324055D01*
X60258Y324046D01*
X60266Y324036D01*
X60305Y324001D01*
X60661Y323663D01*
X60787Y323574D01*
X60856Y323513D01*
X61278Y323206D01*
X62606Y321878D01*
X63711Y320357D01*
X64564Y318683D01*
X64733Y318163D01*
X57563Y318163D01*
X57563Y339500D01*
X57547Y339729D01*
X57537Y339959D01*
X57527Y340013D01*
X57523Y340068D01*
X57475Y340293D01*
X57433Y340519D01*
X57416Y340571D01*
X57404Y340625D01*
X57325Y340841D01*
X57252Y341060D01*
X57227Y341109D01*
X57209Y341160D01*
X57100Y341363D01*
X56997Y341569D01*
X56966Y341614D01*
X56940Y341663D01*
X56804Y341848D01*
X56673Y342038D01*
X56636Y342078D01*
X56603Y342123D01*
X56443Y342287D01*
X56287Y342457D01*
X56286Y342457D01*
X56244Y342492D01*
X56209Y342528D01*
X56205Y342531D01*
X56024Y342672D01*
X55845Y342818D01*
X55798Y342847D01*
X55755Y342880D01*
X55555Y342994D01*
X55358Y343113D01*
X55308Y343135D01*
X55260Y343162D01*
X55045Y343248D01*
X54834Y343338D01*
X54782Y343352D01*
X54730Y343373D01*
X54506Y343427D01*
X54284Y343487D01*
X54240Y343491D01*
X54176Y343507D01*
X53609Y343562D01*
X53544Y343559D01*
X53500Y343563D01*
X42267Y343563D01*
X42436Y344083D01*
X43289Y345757D01*
X44394Y347278D01*
X45411Y348294D01*
X45561Y348468D01*
X45717Y348638D01*
X45748Y348683D01*
X45784Y348725D01*
X45909Y348917D01*
X46040Y349108D01*
X46064Y349157D01*
X46094Y349203D01*
X46191Y349411D01*
X46293Y349618D01*
X46311Y349670D01*
X46334Y349720D01*
X46401Y349940D01*
X46473Y350158D01*
X46483Y350212D01*
X46499Y350265D01*
X46534Y350492D01*
X46576Y350719D01*
X46578Y350774D01*
X46586Y350828D01*
X46590Y351058D01*
X46599Y351288D01*
X46593Y351343D01*
X46594Y351398D01*
X46565Y351626D01*
X46542Y351855D01*
X46529Y351908D01*
X46522Y351963D01*
X46461Y352185D01*
X46407Y352409D01*
X46386Y352460D01*
X46372Y352513D01*
X46280Y352724D01*
X46195Y352938D01*
X46168Y352985D01*
X46146Y353036D01*
X46026Y353233D01*
X45911Y353432D01*
X45883Y353466D01*
X45849Y353522D01*
X45487Y353962D01*
X45439Y354007D01*
X45411Y354041D01*
X42141Y357310D01*
X40101Y362235D01*
X40101Y367565D01*
X42141Y372490D01*
X44378Y374727D01*
X44529Y374901D01*
X44685Y375070D01*
X44716Y375116D01*
X44752Y375157D01*
X44877Y375350D01*
X45007Y375540D01*
X45032Y375589D01*
X45062Y375635D01*
X45159Y375844D01*
X45261Y376050D01*
X45278Y376102D01*
X45302Y376152D01*
X45368Y376373D01*
X45441Y376591D01*
X45451Y376645D01*
X45467Y376697D01*
X45502Y376925D01*
X45543Y377151D01*
X45546Y377206D01*
X45554Y377260D01*
X45557Y377490D01*
X45567Y377721D01*
X45561Y377775D01*
X45562Y377830D01*
X45533Y378058D01*
X45510Y378288D01*
X45497Y378341D01*
X45490Y378395D01*
X45429Y378618D01*
X45374Y378841D01*
X45354Y378892D01*
X45339Y378945D01*
X45248Y379157D01*
X45163Y379370D01*
X45135Y379418D01*
X45113Y379468D01*
X44994Y379665D01*
X44879Y379864D01*
X44851Y379899D01*
X44817Y379954D01*
X44455Y380395D01*
X44406Y380439D01*
X44378Y380473D01*
X42141Y382710D01*
X40101Y387635D01*
X40101Y392965D01*
X42141Y397890D01*
X44378Y400127D01*
X44529Y400301D01*
X44685Y400470D01*
X44716Y400516D01*
X44752Y400557D01*
X44877Y400750D01*
X45007Y400940D01*
X45032Y400989D01*
X45062Y401035D01*
X45159Y401244D01*
X45261Y401450D01*
X45278Y401502D01*
X45302Y401552D01*
X45368Y401773D01*
X45441Y401991D01*
X45451Y402045D01*
X45467Y402097D01*
X45502Y402325D01*
X45543Y402551D01*
X45546Y402606D01*
X45554Y402660D01*
X45557Y402890D01*
X45567Y403121D01*
X45561Y403175D01*
X45562Y403230D01*
X45533Y403459D01*
X45510Y403688D01*
X45497Y403741D01*
X45490Y403795D01*
X45429Y404018D01*
X45374Y404241D01*
X45354Y404292D01*
X45339Y404345D01*
X45248Y404557D01*
X45163Y404770D01*
X45135Y404818D01*
X45113Y404868D01*
X44994Y405065D01*
X44879Y405264D01*
X44851Y405299D01*
X44817Y405354D01*
X44455Y405795D01*
X44406Y405839D01*
X44378Y405873D01*
X42141Y408110D01*
X40101Y413035D01*
X40101Y418365D01*
X42141Y423290D01*
X45910Y427059D01*
X50835Y429099D01*
X56165Y429099D01*
X61090Y427059D01*
X64859Y423290D01*
X66899Y418365D01*
X66899Y413035D01*
X64859Y408110D01*
X62622Y405873D01*
X62471Y405700D01*
X62315Y405530D01*
X62284Y405484D01*
X62248Y405443D01*
X62123Y405250D01*
X61993Y405060D01*
X61968Y405011D01*
X61938Y404965D01*
X61841Y404756D01*
X61739Y404550D01*
X61722Y404498D01*
X61698Y404448D01*
X61632Y404228D01*
X61559Y404009D01*
X61549Y403955D01*
X61533Y403903D01*
X61498Y403676D01*
X61457Y403449D01*
X61454Y403394D01*
X61446Y403340D01*
X61443Y403110D01*
X61433Y402879D01*
X61439Y402825D01*
X61438Y402770D01*
X61467Y402542D01*
X61490Y402313D01*
X61503Y402259D01*
X61510Y402205D01*
X61571Y401982D01*
X61626Y401759D01*
X61646Y401708D01*
X61661Y401655D01*
X61752Y401444D01*
X61837Y401230D01*
X61865Y401182D01*
X61887Y401132D01*
X62006Y400936D01*
X62121Y400736D01*
X62149Y400702D01*
X62183Y400646D01*
X62545Y400205D01*
X62594Y400161D01*
X62622Y400127D01*
X64859Y397890D01*
X66899Y392965D01*
X66899Y387635D01*
X64859Y382710D01*
X62622Y380473D01*
X62471Y380300D01*
X62315Y380130D01*
X62284Y380084D01*
X62248Y380043D01*
X62123Y379850D01*
X61993Y379660D01*
X61968Y379611D01*
X61938Y379565D01*
X61841Y379356D01*
X61739Y379150D01*
X61722Y379098D01*
X61698Y379048D01*
X61632Y378828D01*
X61559Y378609D01*
X61549Y378555D01*
X61533Y378503D01*
X61498Y378276D01*
X61457Y378049D01*
X61454Y377994D01*
X61446Y377940D01*
X61443Y377710D01*
X61433Y377479D01*
X61439Y377425D01*
X61438Y377370D01*
X61467Y377142D01*
X61490Y376913D01*
X61503Y376859D01*
X61510Y376805D01*
X61571Y376582D01*
X61626Y376359D01*
X61646Y376308D01*
X61661Y376255D01*
X61752Y376044D01*
X61837Y375830D01*
X61865Y375782D01*
X61887Y375732D01*
X62006Y375536D01*
X62121Y375336D01*
X62149Y375302D01*
X62183Y375246D01*
X62545Y374805D01*
X62594Y374761D01*
X62622Y374727D01*
X63194Y374155D01*
X63239Y374115D01*
X63280Y374071D01*
X63454Y373929D01*
X63624Y373781D01*
X63675Y373748D01*
X63721Y373710D01*
X63914Y373593D01*
X64102Y373471D01*
X64157Y373446D01*
X64209Y373415D01*
X64415Y373326D01*
X64619Y373231D01*
X64677Y373214D01*
X64732Y373190D01*
X64949Y373132D01*
X65164Y373066D01*
X65224Y373057D01*
X65282Y373041D01*
X65399Y373030D01*
X65626Y372995D01*
X67137Y372339D01*
X67175Y372325D01*
X67200Y372312D01*
X68654Y371710D01*
X69747Y370579D01*
X69777Y370552D01*
X69795Y370530D01*
X71118Y369207D01*
X71166Y369138D01*
X71346Y368942D01*
X71421Y368847D01*
X74220Y365952D01*
X74291Y365888D01*
X74355Y365819D01*
X74502Y365698D01*
X74644Y365571D01*
X74723Y365518D01*
X74796Y365458D01*
X74959Y365359D01*
X75117Y365253D01*
X75202Y365212D01*
X75283Y365163D01*
X75458Y365088D01*
X75630Y365004D01*
X75720Y364975D01*
X75807Y364938D01*
X75991Y364888D01*
X76172Y364830D01*
X76266Y364814D01*
X76357Y364789D01*
X76477Y364778D01*
X76734Y364733D01*
X77021Y364725D01*
X77142Y364713D01*
X80116Y364713D01*
X81317Y364215D01*
X81480Y364160D01*
X81641Y364097D01*
X81751Y364070D01*
X81857Y364035D01*
X82027Y364003D01*
X82195Y363963D01*
X82307Y363952D01*
X82418Y363931D01*
X82590Y363924D01*
X82762Y363907D01*
X82875Y363912D01*
X82987Y363907D01*
X83159Y363924D01*
X83332Y363932D01*
X83442Y363952D01*
X83554Y363963D01*
X83722Y364004D01*
X83892Y364036D01*
X83998Y364072D01*
X84108Y364098D01*
X84268Y364162D01*
X84432Y364217D01*
X84533Y364268D01*
X84637Y364309D01*
X84787Y364395D01*
X84941Y364472D01*
X85034Y364536D01*
X85132Y364592D01*
X85268Y364698D01*
X85410Y364796D01*
X85493Y364872D01*
X85582Y364941D01*
X85702Y365065D01*
X85829Y365182D01*
X85901Y365270D01*
X85979Y365350D01*
X86080Y365489D01*
X86190Y365623D01*
X86248Y365720D01*
X86315Y365811D01*
X86396Y365963D01*
X86485Y366111D01*
X86530Y366214D01*
X86583Y366313D01*
X86642Y366476D01*
X86710Y366634D01*
X86739Y366743D01*
X86778Y366849D01*
X86814Y367018D01*
X86859Y367184D01*
X86867Y367269D01*
X86896Y367406D01*
X86934Y367956D01*
X86935Y367969D01*
X86935Y419976D01*
X86931Y420037D01*
X86933Y420097D01*
X86911Y420320D01*
X86895Y420545D01*
X86883Y420604D01*
X86877Y420664D01*
X86823Y420882D01*
X86776Y421102D01*
X86756Y421159D01*
X86741Y421217D01*
X86658Y421426D01*
X86580Y421637D01*
X86552Y421690D01*
X86530Y421746D01*
X86418Y421941D01*
X86312Y422140D01*
X86276Y422188D01*
X86246Y422241D01*
X86171Y422332D01*
X85975Y422599D01*
X85818Y422761D01*
X85745Y422850D01*
X73163Y435432D01*
X72818Y436265D01*
X71935Y438396D01*
X71935Y541604D01*
X73163Y544568D01*
X76003Y547408D01*
X202592Y673997D01*
X205432Y676837D01*
X208396Y678065D01*
X491604Y678065D01*
X494568Y676837D01*
X579063Y592342D01*
X579150Y592267D01*
X579230Y592184D01*
X579365Y592080D01*
X579493Y591969D01*
X579590Y591906D01*
X579681Y591836D01*
X579829Y591751D01*
X579971Y591659D01*
X580076Y591610D01*
X580176Y591553D01*
X580334Y591490D01*
X580488Y591419D01*
X580598Y591386D01*
X580705Y591343D01*
X580871Y591303D01*
X581033Y591254D01*
X581147Y591236D01*
X581259Y591209D01*
X581429Y591193D01*
X581596Y591166D01*
X581711Y591165D01*
X581826Y591154D01*
X581996Y591161D01*
X582166Y591159D01*
X582280Y591173D01*
X582396Y591178D01*
X582563Y591209D01*
X582731Y591231D01*
X582843Y591261D01*
X582956Y591282D01*
X583117Y591336D01*
X583281Y591381D01*
X583387Y591427D01*
X583496Y591464D01*
X583648Y591540D01*
X583804Y591607D01*
X583902Y591667D01*
X584005Y591719D01*
X584145Y591815D01*
X584290Y591904D01*
X584379Y591977D01*
X584474Y592043D01*
X584599Y592158D01*
X584731Y592266D01*
X584808Y592351D01*
X584893Y592429D01*
X585001Y592561D01*
X585116Y592686D01*
X585181Y592781D01*
X585254Y592870D01*
X585342Y593015D01*
X585438Y593155D01*
X585490Y593259D01*
X585549Y593357D01*
X585616Y593513D01*
X585692Y593666D01*
X585728Y593775D01*
X585774Y593881D01*
X585818Y594045D01*
X585872Y594206D01*
X585893Y594320D01*
X585923Y594431D01*
X585934Y594545D01*
X585974Y594767D01*
X585988Y595099D01*
X585999Y595216D01*
X585999Y761936D01*
X585983Y762165D01*
X585973Y762396D01*
X585963Y762450D01*
X585959Y762504D01*
X585911Y762730D01*
X585869Y762956D01*
X585852Y763008D01*
X585840Y763062D01*
X585761Y763278D01*
X585688Y763496D01*
X585663Y763545D01*
X585644Y763597D01*
X585536Y763800D01*
X585433Y764005D01*
X585402Y764051D01*
X585376Y764099D01*
X585240Y764285D01*
X585109Y764474D01*
X585072Y764515D01*
X585039Y764559D01*
X584879Y764724D01*
X584723Y764893D01*
X584680Y764928D01*
X584642Y764967D01*
X584460Y765108D01*
X584282Y765254D01*
X584234Y765282D01*
X584191Y765316D01*
X583991Y765430D01*
X583794Y765549D01*
X583744Y765571D01*
X583696Y765598D01*
X583482Y765683D01*
X583271Y765774D01*
X583218Y765788D01*
X583167Y765808D01*
X582942Y765863D01*
X582721Y765923D01*
X582677Y765927D01*
X582613Y765943D01*
X582046Y765998D01*
X581980Y765995D01*
X581936Y765999D01*
X8064Y765999D01*
X7835Y765983D01*
X7604Y765973D01*
X7550Y765963D01*
X7496Y765959D01*
X7270Y765911D01*
X7044Y765869D01*
X6992Y765852D01*
X6938Y765840D01*
X6722Y765761D01*
X6504Y765688D01*
X6455Y765663D01*
X6403Y765644D01*
X6200Y765536D01*
X5995Y765433D01*
X5949Y765402D01*
X5901Y765376D01*
X5715Y765240D01*
X5526Y765109D01*
X5485Y765072D01*
X5441Y765039D01*
X5276Y764879D01*
X5107Y764723D01*
X5072Y764680D01*
X5033Y764642D01*
X4892Y764460D01*
X4746Y764282D01*
X4718Y764234D01*
X4684Y764191D01*
X4570Y763991D01*
X4451Y763794D01*
X4429Y763744D01*
X4402Y763696D01*
X4317Y763482D01*
X4226Y763271D01*
X4212Y763218D01*
X4192Y763167D01*
X4137Y762942D01*
X4077Y762721D01*
X4073Y762677D01*
X4057Y762613D01*
X4002Y762046D01*
X4005Y761980D01*
X4001Y761936D01*
X4001Y23340D01*
X4005Y23280D01*
X4003Y23220D01*
X4025Y22996D01*
X4041Y22772D01*
X4053Y22713D01*
X4059Y22653D01*
X4113Y22434D01*
X4160Y22215D01*
X4180Y22158D01*
X4195Y22099D01*
X4278Y21891D01*
X4356Y21680D01*
X4384Y21626D01*
X4406Y21570D01*
X4518Y21375D01*
X4624Y21177D01*
X4660Y21128D01*
X4690Y21076D01*
X4765Y20985D01*
X4961Y20717D01*
X5118Y20556D01*
X5191Y20467D01*
X20467Y5191D01*
X20513Y5151D01*
X20554Y5107D01*
X20728Y4965D01*
X20897Y4817D01*
X20948Y4784D01*
X20995Y4746D01*
X21187Y4629D01*
X21375Y4507D01*
X21430Y4482D01*
X21482Y4451D01*
X21688Y4362D01*
X21892Y4267D01*
X21950Y4250D01*
X22006Y4226D01*
X22222Y4167D01*
X22438Y4102D01*
X22497Y4093D01*
X22556Y4077D01*
X22673Y4066D01*
X23001Y4015D01*
X23226Y4012D01*
X23340Y4001D01*
X566660Y4001D01*
X566720Y4005D01*
G37*
%LPC*%
G36*
X27335Y96601D02*
X27335Y96601D01*
X22410Y98641D01*
X18641Y102410D01*
X16601Y107335D01*
X16601Y112665D01*
X18641Y117590D01*
X20878Y119827D01*
X21029Y120000D01*
X21185Y120170D01*
X21216Y120216D01*
X21252Y120257D01*
X21377Y120450D01*
X21507Y120640D01*
X21532Y120689D01*
X21562Y120735D01*
X21659Y120944D01*
X21761Y121150D01*
X21778Y121202D01*
X21802Y121252D01*
X21868Y121472D01*
X21941Y121691D01*
X21951Y121745D01*
X21967Y121797D01*
X22002Y122024D01*
X22043Y122251D01*
X22046Y122306D01*
X22054Y122360D01*
X22057Y122590D01*
X22067Y122821D01*
X22061Y122875D01*
X22062Y122930D01*
X22033Y123158D01*
X22010Y123387D01*
X21997Y123441D01*
X21990Y123495D01*
X21929Y123718D01*
X21874Y123941D01*
X21854Y123992D01*
X21839Y124045D01*
X21748Y124256D01*
X21663Y124470D01*
X21635Y124518D01*
X21613Y124568D01*
X21494Y124764D01*
X21379Y124964D01*
X21351Y124998D01*
X21317Y125054D01*
X20955Y125495D01*
X20906Y125539D01*
X20878Y125573D01*
X18641Y127810D01*
X17104Y131521D01*
X17104Y131522D01*
X16601Y132735D01*
X16601Y138065D01*
X18641Y142990D01*
X20878Y145227D01*
X21029Y145400D01*
X21185Y145570D01*
X21216Y145616D01*
X21252Y145657D01*
X21377Y145850D01*
X21507Y146040D01*
X21532Y146089D01*
X21562Y146135D01*
X21659Y146344D01*
X21761Y146550D01*
X21778Y146602D01*
X21802Y146652D01*
X21868Y146872D01*
X21941Y147091D01*
X21951Y147145D01*
X21967Y147197D01*
X22002Y147424D01*
X22043Y147651D01*
X22046Y147706D01*
X22054Y147760D01*
X22057Y147990D01*
X22067Y148221D01*
X22061Y148275D01*
X22062Y148330D01*
X22033Y148558D01*
X22010Y148787D01*
X21997Y148841D01*
X21990Y148895D01*
X21929Y149118D01*
X21874Y149341D01*
X21854Y149392D01*
X21839Y149445D01*
X21748Y149656D01*
X21663Y149870D01*
X21635Y149918D01*
X21613Y149968D01*
X21494Y150164D01*
X21379Y150364D01*
X21351Y150398D01*
X21317Y150454D01*
X20955Y150895D01*
X20906Y150939D01*
X20878Y150973D01*
X18641Y153210D01*
X16601Y158135D01*
X16601Y163465D01*
X18641Y168390D01*
X20878Y170627D01*
X21029Y170800D01*
X21185Y170970D01*
X21216Y171016D01*
X21252Y171057D01*
X21377Y171250D01*
X21507Y171440D01*
X21532Y171489D01*
X21562Y171535D01*
X21659Y171744D01*
X21761Y171950D01*
X21778Y172002D01*
X21802Y172052D01*
X21868Y172272D01*
X21941Y172491D01*
X21951Y172545D01*
X21967Y172597D01*
X22002Y172824D01*
X22043Y173051D01*
X22046Y173106D01*
X22054Y173160D01*
X22057Y173390D01*
X22067Y173621D01*
X22061Y173675D01*
X22062Y173730D01*
X22033Y173958D01*
X22010Y174187D01*
X21997Y174241D01*
X21990Y174295D01*
X21929Y174518D01*
X21874Y174741D01*
X21854Y174792D01*
X21839Y174845D01*
X21748Y175056D01*
X21663Y175270D01*
X21635Y175318D01*
X21613Y175368D01*
X21494Y175564D01*
X21379Y175764D01*
X21351Y175798D01*
X21317Y175854D01*
X20955Y176295D01*
X20906Y176339D01*
X20878Y176373D01*
X18641Y178610D01*
X16601Y183535D01*
X16601Y188865D01*
X18641Y193790D01*
X20878Y196027D01*
X21029Y196200D01*
X21185Y196370D01*
X21216Y196416D01*
X21252Y196457D01*
X21377Y196650D01*
X21507Y196840D01*
X21532Y196889D01*
X21562Y196935D01*
X21659Y197144D01*
X21761Y197350D01*
X21778Y197402D01*
X21802Y197452D01*
X21868Y197672D01*
X21941Y197891D01*
X21951Y197945D01*
X21967Y197997D01*
X22002Y198224D01*
X22043Y198451D01*
X22046Y198506D01*
X22054Y198560D01*
X22057Y198790D01*
X22067Y199021D01*
X22061Y199075D01*
X22062Y199130D01*
X22033Y199358D01*
X22010Y199587D01*
X21997Y199641D01*
X21990Y199695D01*
X21929Y199918D01*
X21874Y200141D01*
X21854Y200192D01*
X21839Y200245D01*
X21748Y200456D01*
X21663Y200670D01*
X21635Y200718D01*
X21613Y200768D01*
X21494Y200964D01*
X21379Y201164D01*
X21351Y201198D01*
X21317Y201254D01*
X20955Y201695D01*
X20906Y201739D01*
X20878Y201773D01*
X18641Y204010D01*
X18372Y204660D01*
X16689Y208723D01*
X16601Y208935D01*
X16601Y214265D01*
X18641Y219190D01*
X20878Y221427D01*
X21029Y221600D01*
X21185Y221770D01*
X21216Y221816D01*
X21252Y221857D01*
X21377Y222050D01*
X21507Y222240D01*
X21532Y222289D01*
X21562Y222335D01*
X21659Y222544D01*
X21761Y222750D01*
X21778Y222802D01*
X21802Y222852D01*
X21868Y223072D01*
X21941Y223291D01*
X21951Y223345D01*
X21967Y223397D01*
X22002Y223624D01*
X22043Y223851D01*
X22046Y223906D01*
X22054Y223960D01*
X22057Y224190D01*
X22067Y224421D01*
X22061Y224475D01*
X22062Y224530D01*
X22033Y224758D01*
X22010Y224987D01*
X21997Y225041D01*
X21990Y225095D01*
X21929Y225318D01*
X21874Y225541D01*
X21854Y225592D01*
X21839Y225645D01*
X21748Y225856D01*
X21663Y226070D01*
X21635Y226118D01*
X21613Y226168D01*
X21494Y226364D01*
X21379Y226564D01*
X21351Y226598D01*
X21317Y226654D01*
X20955Y227095D01*
X20906Y227139D01*
X20878Y227173D01*
X18641Y229410D01*
X16601Y234335D01*
X16601Y239665D01*
X18641Y244590D01*
X22410Y248359D01*
X27335Y250399D01*
X32665Y250399D01*
X37590Y248359D01*
X38427Y247522D01*
X38601Y247371D01*
X38770Y247215D01*
X38815Y247184D01*
X38857Y247148D01*
X39050Y247023D01*
X39240Y246893D01*
X39289Y246868D01*
X39335Y246838D01*
X39544Y246741D01*
X39750Y246639D01*
X39802Y246622D01*
X39852Y246598D01*
X40073Y246532D01*
X40291Y246459D01*
X40345Y246449D01*
X40397Y246433D01*
X40625Y246398D01*
X40851Y246357D01*
X40906Y246354D01*
X40960Y246346D01*
X41190Y246343D01*
X41421Y246333D01*
X41475Y246339D01*
X41530Y246338D01*
X41759Y246367D01*
X41988Y246390D01*
X42041Y246403D01*
X42095Y246410D01*
X42318Y246471D01*
X42541Y246526D01*
X42592Y246546D01*
X42645Y246561D01*
X42856Y246652D01*
X43070Y246737D01*
X43118Y246765D01*
X43168Y246787D01*
X43365Y246907D01*
X43564Y247021D01*
X43598Y247049D01*
X43654Y247083D01*
X44095Y247445D01*
X44139Y247494D01*
X44173Y247522D01*
X45910Y249259D01*
X50835Y251299D01*
X56165Y251299D01*
X61090Y249259D01*
X64859Y245490D01*
X66233Y242173D01*
X66233Y242172D01*
X66899Y240565D01*
X66899Y235235D01*
X64859Y230310D01*
X62622Y228073D01*
X62471Y227900D01*
X62315Y227730D01*
X62284Y227684D01*
X62248Y227643D01*
X62123Y227450D01*
X61993Y227260D01*
X61968Y227211D01*
X61938Y227165D01*
X61841Y226956D01*
X61739Y226750D01*
X61722Y226698D01*
X61698Y226648D01*
X61632Y226428D01*
X61559Y226209D01*
X61549Y226155D01*
X61533Y226103D01*
X61498Y225876D01*
X61457Y225649D01*
X61454Y225594D01*
X61446Y225540D01*
X61443Y225310D01*
X61433Y225079D01*
X61439Y225025D01*
X61438Y224970D01*
X61467Y224742D01*
X61490Y224513D01*
X61503Y224459D01*
X61510Y224405D01*
X61571Y224182D01*
X61626Y223959D01*
X61646Y223908D01*
X61661Y223855D01*
X61752Y223644D01*
X61837Y223430D01*
X61865Y223382D01*
X61887Y223332D01*
X62006Y223136D01*
X62121Y222936D01*
X62149Y222902D01*
X62183Y222846D01*
X62545Y222405D01*
X62594Y222361D01*
X62622Y222327D01*
X64859Y220090D01*
X66899Y215165D01*
X66899Y209835D01*
X64859Y204910D01*
X62622Y202673D01*
X62471Y202500D01*
X62315Y202330D01*
X62284Y202284D01*
X62248Y202243D01*
X62123Y202049D01*
X61993Y201860D01*
X61968Y201811D01*
X61938Y201765D01*
X61841Y201556D01*
X61739Y201350D01*
X61722Y201298D01*
X61698Y201248D01*
X61632Y201028D01*
X61559Y200809D01*
X61549Y200755D01*
X61533Y200703D01*
X61498Y200476D01*
X61457Y200249D01*
X61454Y200194D01*
X61446Y200140D01*
X61443Y199910D01*
X61433Y199679D01*
X61439Y199625D01*
X61438Y199570D01*
X61467Y199342D01*
X61490Y199113D01*
X61503Y199059D01*
X61510Y199005D01*
X61571Y198782D01*
X61626Y198559D01*
X61646Y198508D01*
X61661Y198455D01*
X61752Y198244D01*
X61837Y198030D01*
X61865Y197982D01*
X61887Y197932D01*
X62006Y197736D01*
X62121Y197536D01*
X62149Y197502D01*
X62183Y197446D01*
X62545Y197005D01*
X62594Y196961D01*
X62622Y196927D01*
X64859Y194690D01*
X66899Y189765D01*
X66899Y184435D01*
X64859Y179510D01*
X62622Y177273D01*
X62471Y177100D01*
X62315Y176930D01*
X62284Y176884D01*
X62248Y176843D01*
X62123Y176650D01*
X61993Y176460D01*
X61968Y176411D01*
X61938Y176365D01*
X61841Y176156D01*
X61739Y175950D01*
X61722Y175898D01*
X61698Y175848D01*
X61632Y175628D01*
X61559Y175409D01*
X61549Y175355D01*
X61533Y175303D01*
X61498Y175076D01*
X61457Y174849D01*
X61454Y174794D01*
X61446Y174740D01*
X61443Y174510D01*
X61433Y174279D01*
X61439Y174225D01*
X61438Y174170D01*
X61467Y173942D01*
X61490Y173713D01*
X61503Y173659D01*
X61510Y173605D01*
X61571Y173382D01*
X61626Y173159D01*
X61646Y173108D01*
X61661Y173055D01*
X61752Y172844D01*
X61837Y172630D01*
X61865Y172582D01*
X61887Y172532D01*
X62006Y172336D01*
X62121Y172136D01*
X62149Y172102D01*
X62183Y172046D01*
X62545Y171605D01*
X62594Y171561D01*
X62622Y171527D01*
X64859Y169290D01*
X64965Y169034D01*
X66648Y164971D01*
X66899Y164365D01*
X66899Y159035D01*
X64859Y154110D01*
X62622Y151873D01*
X62471Y151700D01*
X62315Y151530D01*
X62284Y151484D01*
X62248Y151443D01*
X62123Y151250D01*
X61993Y151060D01*
X61968Y151011D01*
X61938Y150965D01*
X61841Y150756D01*
X61739Y150550D01*
X61722Y150498D01*
X61698Y150448D01*
X61632Y150228D01*
X61559Y150009D01*
X61549Y149955D01*
X61533Y149903D01*
X61498Y149676D01*
X61457Y149449D01*
X61454Y149394D01*
X61446Y149340D01*
X61443Y149110D01*
X61433Y148879D01*
X61439Y148825D01*
X61438Y148770D01*
X61467Y148542D01*
X61490Y148313D01*
X61503Y148259D01*
X61510Y148205D01*
X61571Y147982D01*
X61626Y147759D01*
X61646Y147708D01*
X61661Y147655D01*
X61752Y147444D01*
X61837Y147230D01*
X61865Y147182D01*
X61887Y147132D01*
X62006Y146936D01*
X62121Y146736D01*
X62149Y146702D01*
X62183Y146646D01*
X62545Y146205D01*
X62594Y146161D01*
X62622Y146127D01*
X64859Y143890D01*
X66899Y138965D01*
X66899Y133635D01*
X64859Y128710D01*
X62622Y126473D01*
X62471Y126300D01*
X62315Y126130D01*
X62284Y126084D01*
X62248Y126043D01*
X62123Y125850D01*
X61993Y125660D01*
X61968Y125611D01*
X61938Y125565D01*
X61841Y125356D01*
X61739Y125150D01*
X61722Y125098D01*
X61698Y125048D01*
X61632Y124828D01*
X61559Y124609D01*
X61549Y124555D01*
X61533Y124503D01*
X61498Y124276D01*
X61457Y124049D01*
X61454Y123994D01*
X61446Y123940D01*
X61443Y123710D01*
X61433Y123479D01*
X61439Y123425D01*
X61438Y123370D01*
X61467Y123142D01*
X61490Y122913D01*
X61503Y122859D01*
X61510Y122805D01*
X61571Y122582D01*
X61626Y122359D01*
X61646Y122308D01*
X61661Y122255D01*
X61752Y122044D01*
X61837Y121830D01*
X61865Y121782D01*
X61887Y121732D01*
X62006Y121536D01*
X62121Y121336D01*
X62149Y121302D01*
X62183Y121246D01*
X62545Y120805D01*
X62594Y120761D01*
X62622Y120727D01*
X64859Y118490D01*
X66899Y113565D01*
X66899Y108235D01*
X64859Y103310D01*
X61090Y99541D01*
X56165Y97501D01*
X50835Y97501D01*
X45910Y99541D01*
X45073Y100378D01*
X45047Y100401D01*
X45036Y100413D01*
X44990Y100450D01*
X44899Y100529D01*
X44730Y100685D01*
X44685Y100716D01*
X44643Y100752D01*
X44450Y100877D01*
X44260Y101007D01*
X44211Y101032D01*
X44165Y101062D01*
X43956Y101159D01*
X43750Y101261D01*
X43698Y101278D01*
X43648Y101302D01*
X43427Y101368D01*
X43209Y101441D01*
X43155Y101451D01*
X43103Y101467D01*
X42875Y101502D01*
X42649Y101543D01*
X42594Y101546D01*
X42540Y101554D01*
X42310Y101557D01*
X42079Y101567D01*
X42025Y101561D01*
X41970Y101562D01*
X41741Y101533D01*
X41512Y101510D01*
X41459Y101497D01*
X41405Y101490D01*
X41182Y101429D01*
X40959Y101374D01*
X40908Y101354D01*
X40855Y101339D01*
X40644Y101248D01*
X40430Y101163D01*
X40382Y101135D01*
X40332Y101113D01*
X40135Y100993D01*
X39936Y100879D01*
X39902Y100851D01*
X39846Y100817D01*
X39568Y100588D01*
X39527Y100559D01*
X39503Y100535D01*
X39405Y100455D01*
X39361Y100406D01*
X39327Y100378D01*
X37590Y98641D01*
X32665Y96601D01*
X27335Y96601D01*
G37*
%LPD*%
%LPC*%
G36*
X99931Y629211D02*
X99931Y629211D01*
X99362Y629245D01*
X99279Y629238D01*
X99223Y629241D01*
X98985Y629230D01*
X98800Y629264D01*
X98713Y629268D01*
X98626Y629280D01*
X98442Y629279D01*
X98441Y629279D01*
X98284Y629308D01*
X98173Y629338D01*
X98048Y629359D01*
X97970Y629367D01*
X97897Y629385D01*
X97892Y629386D01*
X97889Y629386D01*
X97707Y629417D01*
X97466Y629441D01*
X97349Y629462D01*
X96830Y629503D01*
X96797Y629503D01*
X96765Y629508D01*
X96713Y629506D01*
X96654Y629528D01*
X96144Y629665D01*
X95890Y629714D01*
X95773Y629746D01*
X95230Y629838D01*
X95213Y629839D01*
X95197Y629843D01*
X95163Y629845D01*
X95133Y629860D01*
X94612Y630055D01*
X94353Y630132D01*
X94239Y630175D01*
X93684Y630323D01*
X93676Y630325D01*
X93669Y630327D01*
X93653Y630330D01*
X93641Y630337D01*
X93123Y630592D01*
X92866Y630696D01*
X92757Y630750D01*
X92206Y630956D01*
X92201Y630957D01*
X92196Y630959D01*
X92193Y630960D01*
X92185Y630967D01*
X91686Y631276D01*
X91442Y631404D01*
X91338Y631468D01*
X90810Y631727D01*
X90800Y631731D01*
X90795Y631734D01*
X90778Y631750D01*
X90313Y632103D01*
X90089Y632250D01*
X89993Y632323D01*
X89501Y632627D01*
X89481Y632638D01*
X89466Y632648D01*
X89435Y632682D01*
X89013Y633069D01*
X88815Y633226D01*
X88727Y633308D01*
X88265Y633659D01*
X88235Y633678D01*
X88213Y633697D01*
X88182Y633738D01*
X87793Y634164D01*
X87617Y634332D01*
X87537Y634420D01*
X87026Y634888D01*
X87021Y634892D01*
X86635Y635405D01*
X86462Y635604D01*
X86389Y635701D01*
X85932Y636201D01*
X85607Y636736D01*
X85444Y636967D01*
X85380Y637071D01*
X84987Y637594D01*
X84719Y638157D01*
X84574Y638414D01*
X84521Y638523D01*
X84190Y639068D01*
X83981Y639660D01*
X83862Y639935D01*
X83820Y640049D01*
X83551Y640615D01*
X83401Y641237D01*
X83312Y641517D01*
X83282Y641635D01*
X83074Y642223D01*
X82983Y642874D01*
X82925Y643148D01*
X82908Y643268D01*
X82760Y643878D01*
X82730Y644558D01*
X82700Y644818D01*
X82695Y644939D01*
X82605Y645581D01*
X82637Y646278D01*
X82630Y646524D01*
X82637Y646643D01*
X82605Y647339D01*
X82695Y647978D01*
X82713Y648240D01*
X82730Y648360D01*
X82761Y649037D01*
X82908Y649645D01*
X82956Y649922D01*
X82984Y650041D01*
X83075Y650689D01*
X83283Y651276D01*
X83361Y651559D01*
X83402Y651674D01*
X83552Y652294D01*
X83821Y652859D01*
X83931Y653138D01*
X83982Y653248D01*
X84191Y653838D01*
X84523Y654383D01*
X84658Y654644D01*
X84721Y654748D01*
X84988Y655310D01*
X85382Y655833D01*
X85436Y655916D01*
X85446Y655929D01*
X85457Y655949D01*
X85535Y656069D01*
X85608Y656167D01*
X85934Y656701D01*
X86390Y657201D01*
X86554Y657407D01*
X86636Y657496D01*
X87024Y658012D01*
X87538Y658481D01*
X87708Y658660D01*
X87796Y658739D01*
X88265Y659253D01*
X88781Y659641D01*
X88979Y659814D01*
X89076Y659886D01*
X89576Y660343D01*
X90110Y660669D01*
X90340Y660832D01*
X90444Y660895D01*
X90967Y661289D01*
X91528Y661556D01*
X91785Y661701D01*
X91894Y661754D01*
X92439Y662086D01*
X93030Y662295D01*
X93304Y662414D01*
X93418Y662456D01*
X93983Y662725D01*
X94603Y662876D01*
X94883Y662965D01*
X95001Y662994D01*
X95587Y663202D01*
X96237Y663293D01*
X96512Y663352D01*
X96632Y663369D01*
X97240Y663517D01*
X97917Y663547D01*
X98178Y663577D01*
X98299Y663582D01*
X98938Y663672D01*
X99634Y663641D01*
X99880Y663647D01*
X99999Y663641D01*
X100695Y663672D01*
X101334Y663582D01*
X101596Y663564D01*
X101716Y663547D01*
X102393Y663517D01*
X103002Y663369D01*
X103278Y663322D01*
X103397Y663293D01*
X104046Y663202D01*
X104633Y662994D01*
X104916Y662916D01*
X105031Y662876D01*
X105651Y662725D01*
X106217Y662456D01*
X106495Y662347D01*
X106605Y662296D01*
X107196Y662086D01*
X107741Y661755D01*
X108002Y661621D01*
X108106Y661558D01*
X108669Y661291D01*
X109193Y660896D01*
X109428Y660744D01*
X109525Y660671D01*
X110061Y660346D01*
X110562Y659889D01*
X110768Y659726D01*
X110857Y659645D01*
X111374Y659256D01*
X111844Y658743D01*
X112023Y658573D01*
X112102Y658485D01*
X112618Y658015D01*
X113007Y657500D01*
X113180Y657302D01*
X113252Y657205D01*
X113711Y656705D01*
X114036Y656171D01*
X114200Y655941D01*
X114264Y655837D01*
X114659Y655314D01*
X114927Y654753D01*
X115072Y654496D01*
X115125Y654386D01*
X115458Y653842D01*
X115668Y653251D01*
X115788Y652977D01*
X115829Y652863D01*
X116099Y652297D01*
X116250Y651677D01*
X116340Y651397D01*
X116369Y651278D01*
X116578Y650692D01*
X116669Y650043D01*
X116728Y649767D01*
X116745Y649646D01*
X116893Y649038D01*
X116924Y648361D01*
X116954Y648099D01*
X116959Y647978D01*
X117049Y647340D01*
X117017Y646644D01*
X117024Y646397D01*
X117017Y646278D01*
X117049Y645581D01*
X116959Y644938D01*
X116941Y644676D01*
X116924Y644557D01*
X116893Y643877D01*
X116745Y643267D01*
X116698Y642990D01*
X116669Y642872D01*
X116578Y642221D01*
X116370Y641633D01*
X116291Y641349D01*
X116251Y641234D01*
X116100Y640612D01*
X115830Y640046D01*
X115720Y639767D01*
X115669Y639657D01*
X115459Y639065D01*
X115127Y638519D01*
X114991Y638257D01*
X114928Y638152D01*
X114660Y637590D01*
X114265Y637067D01*
X114111Y636829D01*
X114038Y636732D01*
X113712Y636197D01*
X113253Y635696D01*
X113089Y635489D01*
X113007Y635401D01*
X112619Y634886D01*
X112103Y634416D01*
X111932Y634237D01*
X111844Y634157D01*
X111375Y633645D01*
X110857Y633255D01*
X110659Y633084D01*
X110562Y633011D01*
X110061Y632555D01*
X109525Y632229D01*
X109297Y632067D01*
X109193Y632004D01*
X108669Y631610D01*
X108106Y631342D01*
X107850Y631198D01*
X107741Y631145D01*
X107195Y630814D01*
X106605Y630605D01*
X106331Y630485D01*
X106217Y630444D01*
X105651Y630175D01*
X105031Y630024D01*
X104751Y629935D01*
X104633Y629906D01*
X104045Y629698D01*
X103397Y629607D01*
X103122Y629549D01*
X103001Y629532D01*
X102393Y629384D01*
X101715Y629353D01*
X101455Y629323D01*
X101335Y629318D01*
X100757Y629237D01*
X100692Y629223D01*
X100626Y629217D01*
X100608Y629212D01*
X100574Y629210D01*
X100513Y629199D01*
X100470Y629197D01*
X100373Y629183D01*
X100291Y629184D01*
X100240Y629176D01*
X100203Y629176D01*
X99931Y629211D01*
G37*
%LPD*%
%LPC*%
G36*
X50835Y275301D02*
X50835Y275301D01*
X45910Y277341D01*
X42141Y281110D01*
X40101Y286035D01*
X40101Y291365D01*
X42141Y296290D01*
X45411Y299559D01*
X45561Y299733D01*
X45717Y299903D01*
X45748Y299948D01*
X45784Y299989D01*
X45909Y300182D01*
X46040Y300372D01*
X46064Y300421D01*
X46094Y300468D01*
X46191Y300676D01*
X46293Y300882D01*
X46311Y300935D01*
X46334Y300984D01*
X46401Y301205D01*
X46473Y301423D01*
X46483Y301477D01*
X46499Y301530D01*
X46534Y301757D01*
X46576Y301984D01*
X46578Y302039D01*
X46586Y302093D01*
X46590Y302322D01*
X46599Y302553D01*
X46593Y302608D01*
X46594Y302662D01*
X46565Y302891D01*
X46542Y303120D01*
X46529Y303173D01*
X46522Y303228D01*
X46461Y303450D01*
X46407Y303673D01*
X46386Y303724D01*
X46372Y303777D01*
X46280Y303989D01*
X46195Y304202D01*
X46168Y304250D01*
X46146Y304300D01*
X46026Y304497D01*
X45911Y304697D01*
X45883Y304731D01*
X45849Y304787D01*
X45487Y305227D01*
X45439Y305271D01*
X45411Y305306D01*
X44394Y306322D01*
X43289Y307843D01*
X42436Y309517D01*
X42267Y310037D01*
X53500Y310037D01*
X64733Y310037D01*
X64564Y309517D01*
X63711Y307843D01*
X62606Y306322D01*
X61589Y305306D01*
X61439Y305132D01*
X61283Y304962D01*
X61252Y304917D01*
X61216Y304875D01*
X61091Y304682D01*
X60960Y304492D01*
X60936Y304443D01*
X60906Y304397D01*
X60809Y304189D01*
X60707Y303982D01*
X60689Y303930D01*
X60666Y303880D01*
X60599Y303660D01*
X60527Y303442D01*
X60517Y303388D01*
X60501Y303335D01*
X60466Y303108D01*
X60424Y302881D01*
X60422Y302826D01*
X60414Y302772D01*
X60410Y302542D01*
X60401Y302312D01*
X60407Y302257D01*
X60406Y302202D01*
X60435Y301974D01*
X60458Y301745D01*
X60471Y301692D01*
X60478Y301637D01*
X60539Y301415D01*
X60593Y301191D01*
X60614Y301140D01*
X60628Y301087D01*
X60720Y300876D01*
X60805Y300662D01*
X60832Y300615D01*
X60854Y300564D01*
X60974Y300367D01*
X61089Y300168D01*
X61117Y300134D01*
X61151Y300078D01*
X61513Y299638D01*
X61561Y299593D01*
X61589Y299559D01*
X64859Y296290D01*
X66899Y291365D01*
X66899Y286035D01*
X64859Y281110D01*
X61090Y277341D01*
X56165Y275301D01*
X50835Y275301D01*
G37*
%LPD*%
%LPC*%
G36*
X352520Y274030D02*
X352520Y274030D01*
X348646Y275635D01*
X345681Y278600D01*
X344076Y282474D01*
X344076Y286668D01*
X345681Y290542D01*
X348646Y293507D01*
X352520Y295112D01*
X356714Y295112D01*
X360588Y293507D01*
X363553Y290542D01*
X365158Y286668D01*
X365158Y282474D01*
X363553Y278600D01*
X360588Y275635D01*
X356714Y274030D01*
X352520Y274030D01*
G37*
%LPD*%
%LPC*%
G36*
X179720Y274030D02*
X179720Y274030D01*
X175846Y275635D01*
X172881Y278600D01*
X171276Y282474D01*
X171276Y286668D01*
X172881Y290542D01*
X175846Y293507D01*
X179720Y295112D01*
X183914Y295112D01*
X187788Y293507D01*
X190753Y290542D01*
X192358Y286668D01*
X192358Y282474D01*
X190753Y278600D01*
X187788Y275635D01*
X183914Y274030D01*
X179720Y274030D01*
G37*
%LPD*%
G36*
X101156Y633328D02*
X101156Y633328D01*
X101157Y633328D01*
X102446Y633509D01*
X102447Y633509D01*
X103687Y633810D01*
X104877Y634232D01*
X104878Y634232D01*
X106018Y634774D01*
X106019Y634774D01*
X107109Y635437D01*
X107110Y635437D01*
X108151Y636220D01*
X108151Y636221D01*
X108151Y636220D01*
X109142Y637124D01*
X109143Y637124D01*
X110049Y638113D01*
X110049Y638114D01*
X110834Y639154D01*
X111499Y640245D01*
X112043Y641386D01*
X112043Y641387D01*
X112466Y642579D01*
X112465Y642579D01*
X112466Y642579D01*
X112768Y643822D01*
X112772Y643855D01*
X112775Y643875D01*
X112780Y643910D01*
X112783Y643930D01*
X112785Y643945D01*
X112788Y643965D01*
X112791Y643985D01*
X112793Y643999D01*
X112793Y644000D01*
X112795Y644019D01*
X112798Y644039D01*
X112800Y644054D01*
X112803Y644074D01*
X112808Y644109D01*
X112811Y644129D01*
X112816Y644163D01*
X112816Y644164D01*
X112818Y644183D01*
X112823Y644218D01*
X112826Y644238D01*
X112828Y644253D01*
X112831Y644273D01*
X112834Y644293D01*
X112836Y644308D01*
X112839Y644327D01*
X112841Y644347D01*
X112843Y644362D01*
X112846Y644382D01*
X112851Y644417D01*
X112854Y644437D01*
X112859Y644472D01*
X112862Y644491D01*
X112866Y644526D01*
X112869Y644546D01*
X112871Y644561D01*
X112874Y644581D01*
X112877Y644601D01*
X112879Y644616D01*
X112882Y644635D01*
X112882Y644636D01*
X112885Y644655D01*
X112887Y644670D01*
X112889Y644690D01*
X112894Y644725D01*
X112897Y644745D01*
X112902Y644780D01*
X112905Y644799D01*
X112905Y644800D01*
X112910Y644834D01*
X112912Y644854D01*
X112917Y644889D01*
X112920Y644909D01*
X112922Y644924D01*
X112925Y644944D01*
X112928Y644963D01*
X112930Y644978D01*
X112933Y644998D01*
X112937Y645033D01*
X112940Y645053D01*
X112945Y645088D01*
X112948Y645108D01*
X112949Y645116D01*
X112950Y645137D01*
X112952Y645172D01*
X112953Y645207D01*
X112955Y645242D01*
X112956Y645276D01*
X112956Y645277D01*
X112958Y645311D01*
X112959Y645346D01*
X112961Y645381D01*
X112962Y645416D01*
X112963Y645416D01*
X112962Y645416D01*
X112964Y645450D01*
X112986Y645942D01*
X112988Y645977D01*
X112989Y646012D01*
X112991Y646047D01*
X112992Y646081D01*
X112994Y646116D01*
X112996Y646151D01*
X112997Y646186D01*
X112999Y646221D01*
X113000Y646255D01*
X113002Y646290D01*
X113003Y646325D01*
X113005Y646360D01*
X113006Y646394D01*
X113008Y646429D01*
X113009Y646460D01*
X113009Y646461D01*
X112949Y647800D01*
X112768Y649090D01*
X112466Y650329D01*
X112465Y650329D01*
X112466Y650330D01*
X112043Y651519D01*
X112042Y651519D01*
X112043Y651519D01*
X111499Y652658D01*
X111499Y652659D01*
X110834Y653747D01*
X110834Y653748D01*
X110049Y654787D01*
X109143Y655776D01*
X109142Y655776D01*
X108151Y656680D01*
X107110Y657463D01*
X107109Y657463D01*
X106019Y658126D01*
X106018Y658126D01*
X104878Y658668D01*
X104877Y658669D01*
X103687Y659090D01*
X102447Y659392D01*
X102447Y659391D01*
X102446Y659392D01*
X101157Y659572D01*
X101156Y659572D01*
X101049Y659577D01*
X100938Y659582D01*
X100828Y659587D01*
X100827Y659587D01*
X100717Y659592D01*
X100607Y659597D01*
X100606Y659597D01*
X100496Y659602D01*
X100386Y659607D01*
X100385Y659607D01*
X100275Y659612D01*
X100165Y659617D01*
X100164Y659617D01*
X100054Y659622D01*
X99944Y659627D01*
X99943Y659627D01*
X99833Y659632D01*
X99817Y659633D01*
X99817Y659632D01*
X99816Y659633D01*
X99800Y659632D01*
X99690Y659627D01*
X99689Y659627D01*
X99579Y659622D01*
X99469Y659617D01*
X99468Y659617D01*
X99358Y659612D01*
X99248Y659607D01*
X99247Y659607D01*
X99137Y659602D01*
X99027Y659597D01*
X99026Y659597D01*
X98916Y659592D01*
X98806Y659587D01*
X98805Y659587D01*
X98695Y659582D01*
X98585Y659577D01*
X98584Y659577D01*
X98477Y659572D01*
X97188Y659392D01*
X97187Y659391D01*
X97187Y659392D01*
X95948Y659090D01*
X95947Y659090D01*
X94758Y658669D01*
X94758Y658668D01*
X93619Y658126D01*
X92530Y657463D01*
X92529Y657463D01*
X91490Y656680D01*
X90501Y655776D01*
X89597Y654787D01*
X88814Y653748D01*
X88814Y653747D01*
X88151Y652659D01*
X88151Y652658D01*
X87609Y651519D01*
X87187Y650330D01*
X87187Y650329D01*
X86886Y649090D01*
X86885Y649090D01*
X86883Y649074D01*
X86878Y649039D01*
X86874Y649004D01*
X86871Y648989D01*
X86869Y648970D01*
X86869Y648969D01*
X86867Y648955D01*
X86864Y648935D01*
X86862Y648920D01*
X86859Y648900D01*
X86857Y648885D01*
X86852Y648850D01*
X86847Y648816D01*
X86847Y648815D01*
X86842Y648781D01*
X86840Y648766D01*
X86837Y648746D01*
X86835Y648731D01*
X86832Y648711D01*
X86830Y648696D01*
X86825Y648661D01*
X86821Y648627D01*
X86816Y648592D01*
X86814Y648577D01*
X86811Y648557D01*
X86809Y648542D01*
X86806Y648522D01*
X86804Y648507D01*
X86801Y648488D01*
X86799Y648473D01*
X86794Y648438D01*
X86789Y648403D01*
X86787Y648388D01*
X86784Y648368D01*
X86782Y648353D01*
X86780Y648334D01*
X86779Y648334D01*
X86779Y648333D01*
X86777Y648319D01*
X86775Y648299D01*
X86773Y648284D01*
X86768Y648249D01*
X86763Y648214D01*
X86758Y648180D01*
X86758Y648179D01*
X86756Y648165D01*
X86753Y648145D01*
X86751Y648130D01*
X86748Y648110D01*
X86746Y648095D01*
X86741Y648060D01*
X86736Y648025D01*
X86731Y647991D01*
X86729Y647976D01*
X86727Y647956D01*
X86724Y647941D01*
X86722Y647921D01*
X86720Y647906D01*
X86717Y647886D01*
X86715Y647871D01*
X86710Y647837D01*
X86705Y647802D01*
X86705Y647800D01*
X86701Y647727D01*
X86700Y647693D01*
X86697Y647628D01*
X86695Y647593D01*
X86693Y647529D01*
X86691Y647494D01*
X86687Y647394D01*
X86686Y647394D01*
X86687Y647394D01*
X86682Y647295D01*
X86680Y647260D01*
X86678Y647196D01*
X86676Y647161D01*
X86673Y647096D01*
X86672Y647062D01*
X86672Y647061D01*
X86667Y646962D01*
X86666Y646927D01*
X86665Y646927D01*
X86663Y646863D01*
X86661Y646828D01*
X86658Y646763D01*
X86657Y646729D01*
X86654Y646664D01*
X86652Y646629D01*
X86648Y646530D01*
X86646Y646495D01*
X86645Y646461D01*
X86645Y646460D01*
X86705Y645116D01*
X86885Y643822D01*
X86886Y643822D01*
X87187Y642579D01*
X87609Y641387D01*
X87609Y641386D01*
X88151Y640245D01*
X88814Y639154D01*
X89597Y638114D01*
X89597Y638113D01*
X90501Y637124D01*
X91439Y636266D01*
X91439Y636265D01*
X92423Y635518D01*
X93452Y634881D01*
X93453Y634881D01*
X94528Y634353D01*
X95648Y633934D01*
X95649Y633934D01*
X96813Y633622D01*
X96814Y633622D01*
X98022Y633417D01*
X98023Y633417D01*
X99276Y633317D01*
X99277Y633319D01*
X99281Y633321D01*
X99281Y633322D01*
X99281Y635245D01*
X99277Y635249D01*
X99276Y635249D01*
X98217Y635340D01*
X97194Y635519D01*
X96208Y635787D01*
X95261Y636145D01*
X94351Y636594D01*
X93479Y637135D01*
X92646Y637768D01*
X91852Y638495D01*
X91079Y639341D01*
X90410Y640229D01*
X89843Y641160D01*
X89380Y642135D01*
X89020Y643151D01*
X88762Y644212D01*
X88608Y645315D01*
X88556Y646460D01*
X88556Y646464D01*
X88559Y646519D01*
X88560Y646548D01*
X88560Y646549D01*
X88563Y646603D01*
X88564Y646633D01*
X88566Y646688D01*
X88570Y646772D01*
X88573Y646827D01*
X88574Y646857D01*
X88576Y646911D01*
X88577Y646911D01*
X88576Y646911D01*
X88578Y646941D01*
X88580Y646996D01*
X88584Y647080D01*
X88587Y647135D01*
X88588Y647165D01*
X88590Y647219D01*
X88592Y647249D01*
X88594Y647304D01*
X88598Y647388D01*
X88602Y647473D01*
X88604Y647527D01*
X88606Y647557D01*
X88608Y647601D01*
X88608Y647602D01*
X88610Y647617D01*
X88612Y647632D01*
X88617Y647671D01*
X88618Y647671D01*
X88617Y647671D01*
X88620Y647686D01*
X88622Y647701D01*
X88624Y647716D01*
X88629Y647756D01*
X88631Y647771D01*
X88634Y647786D01*
X88636Y647801D01*
X88638Y647815D01*
X88638Y647816D01*
X88643Y647855D01*
X88645Y647870D01*
X88648Y647885D01*
X88650Y647900D01*
X88655Y647940D01*
X88657Y647955D01*
X88659Y647970D01*
X88661Y647984D01*
X88662Y647984D01*
X88669Y648039D01*
X88671Y648054D01*
X88673Y648069D01*
X88675Y648084D01*
X88681Y648124D01*
X88683Y648138D01*
X88683Y648139D01*
X88685Y648153D01*
X88687Y648168D01*
X88695Y648223D01*
X88697Y648238D01*
X88699Y648253D01*
X88701Y648268D01*
X88707Y648307D01*
X88709Y648322D01*
X88711Y648337D01*
X88713Y648352D01*
X88721Y648407D01*
X88723Y648422D01*
X88725Y648437D01*
X88727Y648451D01*
X88727Y648452D01*
X88733Y648491D01*
X88735Y648506D01*
X88737Y648521D01*
X88739Y648536D01*
X88747Y648591D01*
X88749Y648606D01*
X88751Y648620D01*
X88753Y648635D01*
X88759Y648675D01*
X88761Y648690D01*
X88762Y648700D01*
X89020Y649757D01*
X89380Y650771D01*
X89843Y651743D01*
X90410Y652672D01*
X91079Y653560D01*
X91852Y654405D01*
X92697Y655177D01*
X93585Y655847D01*
X94516Y656413D01*
X95491Y656876D01*
X96508Y657237D01*
X97568Y657494D01*
X98671Y657649D01*
X99817Y657700D01*
X100962Y657649D01*
X102066Y657494D01*
X103126Y657237D01*
X104142Y656876D01*
X105117Y656413D01*
X106048Y655847D01*
X106936Y655177D01*
X107782Y654405D01*
X108554Y653560D01*
X109223Y652672D01*
X109790Y651743D01*
X110253Y650771D01*
X110614Y649757D01*
X110871Y648700D01*
X111026Y647601D01*
X111077Y646460D01*
X111076Y646431D01*
X111076Y646430D01*
X111074Y646396D01*
X111073Y646361D01*
X111068Y646262D01*
X111067Y646227D01*
X111065Y646192D01*
X111061Y646093D01*
X111059Y646058D01*
X111057Y646023D01*
X111053Y645924D01*
X111051Y645889D01*
X111050Y645854D01*
X111045Y645755D01*
X111044Y645720D01*
X111042Y645685D01*
X111038Y645586D01*
X111036Y645551D01*
X111035Y645516D01*
X111030Y645417D01*
X111029Y645382D01*
X111027Y645347D01*
X111026Y645315D01*
X111024Y645303D01*
X111019Y645268D01*
X111016Y645248D01*
X111014Y645228D01*
X111013Y645228D01*
X111011Y645213D01*
X111009Y645193D01*
X111006Y645173D01*
X111003Y645154D01*
X111001Y645139D01*
X110998Y645119D01*
X110995Y645099D01*
X110991Y645064D01*
X110988Y645044D01*
X110985Y645024D01*
X110980Y644990D01*
X110977Y644970D01*
X110975Y644950D01*
X110970Y644915D01*
X110967Y644895D01*
X110964Y644875D01*
X110959Y644841D01*
X110959Y644840D01*
X110956Y644821D01*
X110954Y644801D01*
X110949Y644766D01*
X110946Y644746D01*
X110943Y644726D01*
X110938Y644691D01*
X110936Y644672D01*
X110933Y644652D01*
X110931Y644637D01*
X110928Y644617D01*
X110925Y644597D01*
X110922Y644577D01*
X110920Y644562D01*
X110917Y644542D01*
X110915Y644523D01*
X110915Y644522D01*
X110912Y644503D01*
X110910Y644488D01*
X110907Y644468D01*
X110904Y644448D01*
X110899Y644413D01*
X110897Y644393D01*
X110894Y644373D01*
X110889Y644339D01*
X110886Y644319D01*
X110883Y644299D01*
X110879Y644264D01*
X110878Y644264D01*
X110879Y644264D01*
X110876Y644244D01*
X110873Y644224D01*
X110871Y644212D01*
X110614Y643151D01*
X110253Y642135D01*
X109790Y641160D01*
X109223Y640229D01*
X108554Y639341D01*
X107782Y638495D01*
X106936Y637723D01*
X106048Y637054D01*
X105117Y636487D01*
X104142Y636024D01*
X103126Y635663D01*
X102066Y635406D01*
X100962Y635251D01*
X100934Y635250D01*
X100824Y635245D01*
X100823Y635245D01*
X100713Y635240D01*
X100602Y635235D01*
X100492Y635230D01*
X100491Y635230D01*
X100381Y635225D01*
X100271Y635220D01*
X100270Y635220D01*
X100160Y635215D01*
X100049Y635210D01*
X99939Y635205D01*
X99938Y635205D01*
X99828Y635201D01*
X99828Y635200D01*
X99817Y635200D01*
X99797Y635200D01*
X99797Y635201D01*
X99796Y635201D01*
X99753Y635202D01*
X99700Y635205D01*
X99690Y635206D01*
X99628Y635213D01*
X99567Y635220D01*
X99505Y635228D01*
X99444Y635236D01*
X99381Y635242D01*
X99324Y635245D01*
X99318Y635246D01*
X99313Y635242D01*
X99313Y635241D01*
X99313Y633318D01*
X99317Y633313D01*
X99317Y633314D01*
X99317Y633313D01*
X99381Y633310D01*
X99443Y633304D01*
X99504Y633296D01*
X99566Y633288D01*
X99627Y633281D01*
X99689Y633274D01*
X99752Y633269D01*
X99752Y633270D01*
X99752Y633269D01*
X99817Y633268D01*
X101156Y633328D01*
G37*
%LPC*%
G36*
X42267Y318163D02*
X42267Y318163D01*
X42436Y318683D01*
X43289Y320357D01*
X44394Y321878D01*
X45722Y323206D01*
X46144Y323513D01*
X46154Y323521D01*
X46165Y323528D01*
X46370Y323702D01*
X46581Y323879D01*
X46589Y323889D01*
X46599Y323898D01*
X46779Y324100D01*
X46961Y324303D01*
X46969Y324314D01*
X46977Y324324D01*
X47126Y324548D01*
X47279Y324776D01*
X47285Y324788D01*
X47292Y324799D01*
X47409Y325044D01*
X47528Y325289D01*
X47532Y325301D01*
X47537Y325313D01*
X47619Y325575D01*
X47702Y325831D01*
X47704Y325844D01*
X47708Y325857D01*
X47753Y326127D01*
X47799Y326393D01*
X47799Y326406D01*
X47801Y326419D01*
X47808Y326692D01*
X47816Y326962D01*
X47814Y326975D01*
X47815Y326989D01*
X47783Y327259D01*
X47753Y327529D01*
X47750Y327541D01*
X47748Y327555D01*
X47679Y327817D01*
X47612Y328081D01*
X47607Y328093D01*
X47604Y328106D01*
X47499Y328355D01*
X47395Y328607D01*
X47388Y328619D01*
X47383Y328631D01*
X47244Y328864D01*
X47106Y329099D01*
X47098Y329109D01*
X47091Y329120D01*
X46921Y329332D01*
X46752Y329545D01*
X46742Y329554D01*
X46734Y329564D01*
X46695Y329599D01*
X46338Y329937D01*
X46213Y330026D01*
X46144Y330087D01*
X45722Y330394D01*
X44394Y331722D01*
X43289Y333243D01*
X42436Y334917D01*
X42267Y335437D01*
X49437Y335437D01*
X49437Y318163D01*
X42267Y318163D01*
G37*
%LPD*%
%LPC*%
G36*
X354463Y113263D02*
X354463Y113263D01*
X354463Y121139D01*
X360048Y121139D01*
X360539Y121041D01*
X361001Y120850D01*
X361418Y120571D01*
X361771Y120218D01*
X362050Y119801D01*
X362241Y119339D01*
X362339Y118848D01*
X362339Y113263D01*
X354463Y113263D01*
G37*
%LPD*%
%LPC*%
G36*
X354463Y97261D02*
X354463Y97261D01*
X354463Y105137D01*
X362339Y105137D01*
X362339Y99552D01*
X362241Y99061D01*
X362050Y98599D01*
X361771Y98182D01*
X361418Y97829D01*
X361001Y97550D01*
X360539Y97359D01*
X360048Y97261D01*
X354463Y97261D01*
G37*
%LPD*%
%LPC*%
G36*
X194825Y325921D02*
X194825Y325921D01*
X200288Y331384D01*
X200890Y329930D01*
X201313Y328355D01*
X201526Y326737D01*
X201526Y325105D01*
X201313Y323487D01*
X200890Y321912D01*
X200288Y320458D01*
X194825Y325921D01*
G37*
%LPD*%
%LPC*%
G36*
X364825Y330921D02*
X364825Y330921D01*
X370288Y336384D01*
X370890Y334930D01*
X371313Y333355D01*
X371526Y331737D01*
X371526Y330105D01*
X371313Y328487D01*
X370890Y326912D01*
X370288Y325458D01*
X364825Y330921D01*
G37*
%LPD*%
%LPC*%
G36*
X183616Y337130D02*
X183616Y337130D01*
X185070Y337733D01*
X186645Y338155D01*
X188263Y338368D01*
X189895Y338368D01*
X191513Y338155D01*
X193088Y337733D01*
X194542Y337130D01*
X189079Y331668D01*
X183616Y337130D01*
G37*
%LPD*%
%LPC*%
G36*
X358263Y318474D02*
X358263Y318474D01*
X356645Y318687D01*
X355070Y319109D01*
X353616Y319712D01*
X359079Y325174D01*
X364542Y319712D01*
X363088Y319109D01*
X361513Y318687D01*
X359895Y318474D01*
X358263Y318474D01*
G37*
%LPD*%
%LPC*%
G36*
X188263Y313474D02*
X188263Y313474D01*
X186645Y313687D01*
X185070Y314109D01*
X183616Y314712D01*
X189079Y320174D01*
X194542Y314712D01*
X193088Y314109D01*
X191513Y313687D01*
X189895Y313474D01*
X188263Y313474D01*
G37*
%LPD*%
%LPC*%
G36*
X347267Y326912D02*
X347267Y326912D01*
X346845Y328487D01*
X346632Y330105D01*
X346632Y331737D01*
X346845Y333355D01*
X347267Y334930D01*
X347870Y336384D01*
X353332Y330921D01*
X347870Y325458D01*
X347267Y326912D01*
G37*
%LPD*%
%LPC*%
G36*
X177267Y321912D02*
X177267Y321912D01*
X176845Y323487D01*
X176632Y325105D01*
X176632Y326737D01*
X176845Y328355D01*
X177267Y329930D01*
X177870Y331384D01*
X183332Y325921D01*
X177870Y320458D01*
X177267Y321912D01*
G37*
%LPD*%
G36*
X95069Y649465D02*
X95069Y649465D01*
X95155Y649468D01*
X95167Y649473D01*
X95181Y649474D01*
X95257Y649514D01*
X95336Y649550D01*
X95346Y649561D01*
X95357Y649567D01*
X95385Y649600D01*
X95452Y649669D01*
X96318Y650918D01*
X97308Y651757D01*
X98465Y652258D01*
X99817Y652427D01*
X101170Y652258D01*
X102331Y651757D01*
X103329Y650916D01*
X104203Y649667D01*
X104267Y649607D01*
X104326Y649545D01*
X104338Y649540D01*
X104347Y649530D01*
X104429Y649500D01*
X104508Y649465D01*
X104521Y649465D01*
X104534Y649461D01*
X104620Y649464D01*
X104707Y649464D01*
X104721Y649469D01*
X104732Y649469D01*
X104771Y649488D01*
X104863Y649522D01*
X105183Y649708D01*
X105504Y649894D01*
X106144Y650266D01*
X106152Y650273D01*
X106162Y650277D01*
X106226Y650339D01*
X106293Y650398D01*
X106298Y650408D01*
X106305Y650415D01*
X106340Y650498D01*
X106378Y650578D01*
X106379Y650588D01*
X106383Y650598D01*
X106383Y650687D01*
X106387Y650777D01*
X106383Y650786D01*
X106383Y650797D01*
X106323Y650952D01*
X105777Y651876D01*
X105761Y651894D01*
X105747Y651921D01*
X105141Y652729D01*
X105121Y652746D01*
X105101Y652775D01*
X104436Y653466D01*
X104412Y653483D01*
X104386Y653511D01*
X103662Y654086D01*
X103633Y654101D01*
X103600Y654128D01*
X102813Y654580D01*
X102781Y654591D01*
X102742Y654614D01*
X101890Y654937D01*
X101858Y654942D01*
X101817Y654959D01*
X100901Y655153D01*
X100870Y655153D01*
X100830Y655162D01*
X99849Y655227D01*
X99821Y655223D01*
X99784Y655227D01*
X98811Y655162D01*
X98782Y655154D01*
X98741Y655152D01*
X97829Y654959D01*
X97799Y654946D01*
X97756Y654937D01*
X96905Y654614D01*
X96877Y654596D01*
X96834Y654581D01*
X96044Y654128D01*
X96021Y654108D01*
X95983Y654087D01*
X95254Y653512D01*
X95235Y653490D01*
X95204Y653467D01*
X95039Y653296D01*
X94536Y652776D01*
X94521Y652754D01*
X94496Y652729D01*
X93888Y651922D01*
X93877Y651900D01*
X93857Y651876D01*
X93310Y650952D01*
X93306Y650941D01*
X93298Y650931D01*
X93273Y650847D01*
X93245Y650765D01*
X93246Y650752D01*
X93242Y650740D01*
X93252Y650654D01*
X93258Y650566D01*
X93264Y650555D01*
X93265Y650543D01*
X93308Y650467D01*
X93348Y650389D01*
X93357Y650381D01*
X93363Y650370D01*
X93492Y650264D01*
X94794Y649520D01*
X94876Y649493D01*
X94956Y649462D01*
X94970Y649462D01*
X94983Y649458D01*
X95069Y649465D01*
G37*
%LPC*%
G36*
X267887Y455679D02*
X267887Y455679D01*
X272957Y460749D01*
X273205Y460262D01*
X273786Y458475D01*
X274079Y456619D01*
X274079Y454740D01*
X273786Y452884D01*
X273205Y451096D01*
X272957Y450610D01*
X267887Y455679D01*
G37*
%LPD*%
%LPC*%
G36*
X166211Y466495D02*
X166211Y466495D01*
X166698Y466743D01*
X168485Y467324D01*
X170341Y467618D01*
X172220Y467618D01*
X174076Y467324D01*
X175864Y466743D01*
X176350Y466495D01*
X171281Y461426D01*
X166211Y466495D01*
G37*
%LPD*%
%LPC*%
G36*
X347551Y466495D02*
X347551Y466495D01*
X348038Y466743D01*
X349825Y467324D01*
X351681Y467618D01*
X353560Y467618D01*
X355416Y467324D01*
X357204Y466743D01*
X357690Y466495D01*
X352621Y461426D01*
X347551Y466495D01*
G37*
%LPD*%
%LPC*%
G36*
X358367Y455679D02*
X358367Y455679D01*
X363437Y460749D01*
X363685Y460262D01*
X364266Y458475D01*
X364559Y456619D01*
X364559Y454740D01*
X364266Y452884D01*
X363685Y451096D01*
X363437Y450610D01*
X358367Y455679D01*
G37*
%LPD*%
%LPC*%
G36*
X257071Y466495D02*
X257071Y466495D01*
X257558Y466743D01*
X259345Y467324D01*
X261201Y467618D01*
X263080Y467618D01*
X264936Y467324D01*
X266724Y466743D01*
X267210Y466495D01*
X262141Y461426D01*
X257071Y466495D01*
G37*
%LPD*%
%LPC*%
G36*
X177027Y455679D02*
X177027Y455679D01*
X182097Y460749D01*
X182345Y460262D01*
X182926Y458475D01*
X183219Y456619D01*
X183219Y454740D01*
X182926Y452884D01*
X182345Y451096D01*
X182097Y450610D01*
X177027Y455679D01*
G37*
%LPD*%
%LPC*%
G36*
X432117Y451096D02*
X432117Y451096D01*
X431536Y452884D01*
X431242Y454740D01*
X431242Y456619D01*
X431536Y458475D01*
X432117Y460262D01*
X432365Y460749D01*
X437434Y455679D01*
X432365Y450610D01*
X432117Y451096D01*
G37*
%LPD*%
%LPC*%
G36*
X341557Y451096D02*
X341557Y451096D01*
X340976Y452884D01*
X340682Y454740D01*
X340682Y456619D01*
X340976Y458475D01*
X341557Y460262D01*
X341805Y460749D01*
X346874Y455679D01*
X341805Y450610D01*
X341557Y451096D01*
G37*
%LPD*%
%LPC*%
G36*
X251077Y451096D02*
X251077Y451096D01*
X250496Y452884D01*
X250202Y454740D01*
X250202Y456619D01*
X250496Y458475D01*
X251077Y460262D01*
X251325Y460749D01*
X256394Y455679D01*
X251325Y450610D01*
X251077Y451096D01*
G37*
%LPD*%
%LPC*%
G36*
X261201Y443740D02*
X261201Y443740D01*
X259345Y444034D01*
X257558Y444615D01*
X257071Y444863D01*
X262141Y449933D01*
X267210Y444863D01*
X266724Y444615D01*
X264936Y444034D01*
X263080Y443740D01*
X261201Y443740D01*
G37*
%LPD*%
%LPC*%
G36*
X170341Y443740D02*
X170341Y443740D01*
X168485Y444034D01*
X166698Y444615D01*
X166211Y444863D01*
X171281Y449933D01*
X176350Y444863D01*
X175864Y444615D01*
X174076Y444034D01*
X172220Y443740D01*
X170341Y443740D01*
G37*
%LPD*%
%LPC*%
G36*
X160217Y451096D02*
X160217Y451096D01*
X159636Y452884D01*
X159342Y454740D01*
X159342Y456619D01*
X159636Y458475D01*
X160217Y460262D01*
X160465Y460749D01*
X165534Y455679D01*
X160465Y450610D01*
X160217Y451096D01*
G37*
%LPD*%
%LPC*%
G36*
X351681Y443740D02*
X351681Y443740D01*
X349825Y444034D01*
X348038Y444615D01*
X347551Y444863D01*
X352621Y449933D01*
X357690Y444863D01*
X357204Y444615D01*
X355416Y444034D01*
X353560Y443740D01*
X351681Y443740D01*
G37*
%LPD*%
%LPC*%
G36*
X196908Y203384D02*
X196908Y203384D01*
X197651Y203625D01*
X199063Y203849D01*
X200492Y203849D01*
X201904Y203625D01*
X202647Y203384D01*
X199778Y200515D01*
X196908Y203384D01*
G37*
%LPD*%
%LPC*%
G36*
X369708Y203384D02*
X369708Y203384D01*
X370451Y203625D01*
X371863Y203849D01*
X373292Y203849D01*
X374704Y203625D01*
X375447Y203384D01*
X372578Y200515D01*
X369708Y203384D01*
G37*
%LPD*%
%LPC*%
G36*
X363721Y192642D02*
X363721Y192642D01*
X363497Y194054D01*
X363497Y195483D01*
X363721Y196895D01*
X363962Y197638D01*
X366831Y194768D01*
X363962Y191899D01*
X363721Y192642D01*
G37*
%LPD*%
G36*
X95410Y642174D02*
X95410Y642174D01*
X95410Y642175D01*
X95411Y642175D01*
X95954Y642539D01*
X95954Y642540D01*
X95955Y642541D01*
X96327Y643081D01*
X96327Y643082D01*
X96328Y643082D01*
X96452Y643731D01*
X96452Y643732D01*
X96452Y643733D01*
X96328Y644369D01*
X96327Y644369D01*
X96327Y644370D01*
X95955Y644913D01*
X95954Y644913D01*
X95954Y644914D01*
X95411Y645286D01*
X95410Y645286D01*
X95410Y645287D01*
X94774Y645411D01*
X94773Y645411D01*
X94772Y645411D01*
X94124Y645287D01*
X94123Y645286D01*
X94122Y645286D01*
X93582Y644914D01*
X93581Y644913D01*
X93580Y644913D01*
X93216Y644370D01*
X93216Y644369D01*
X93215Y644369D01*
X93094Y643733D01*
X93094Y643732D01*
X93094Y643731D01*
X93215Y643082D01*
X93216Y643082D01*
X93216Y643081D01*
X93580Y642541D01*
X93582Y642540D01*
X93582Y642539D01*
X94122Y642175D01*
X94123Y642175D01*
X94124Y642174D01*
X94772Y642053D01*
X94773Y642053D01*
X94774Y642053D01*
X95410Y642174D01*
G37*
G36*
X105517Y642174D02*
X105517Y642174D01*
X105518Y642175D01*
X105519Y642175D01*
X106062Y642539D01*
X106062Y642540D01*
X106063Y642541D01*
X106435Y643081D01*
X106435Y643082D01*
X106436Y643082D01*
X106560Y643731D01*
X106560Y643732D01*
X106560Y643733D01*
X106436Y644369D01*
X106435Y644369D01*
X106435Y644370D01*
X106063Y644913D01*
X106062Y644913D01*
X106062Y644914D01*
X105519Y645286D01*
X105518Y645286D01*
X105518Y645287D01*
X104882Y645411D01*
X104881Y645411D01*
X104880Y645411D01*
X104231Y645287D01*
X104231Y645286D01*
X104230Y645286D01*
X103690Y644914D01*
X103689Y644913D01*
X103688Y644913D01*
X103324Y644370D01*
X103324Y644369D01*
X103323Y644369D01*
X103202Y643733D01*
X103202Y643732D01*
X103202Y643731D01*
X103323Y643082D01*
X103324Y643082D01*
X103324Y643081D01*
X103688Y642541D01*
X103689Y642540D01*
X103690Y642539D01*
X104230Y642175D01*
X104231Y642175D01*
X104231Y642174D01*
X104880Y642053D01*
X104881Y642053D01*
X104882Y642053D01*
X105517Y642174D01*
G37*
D10*
X354617Y284571D03*
X318696Y248650D03*
X390538Y176808D03*
X426459Y212729D03*
X408499Y230689D03*
X372578Y194768D03*
X181817Y284571D03*
X145896Y248650D03*
X217738Y176808D03*
X253659Y212729D03*
X235699Y230689D03*
X199778Y194768D03*
D11*
X350400Y109200D03*
D12*
X322700Y109200D03*
X295000Y109200D03*
X267300Y109200D03*
X239600Y109200D03*
X336500Y80800D03*
X308800Y80800D03*
X281200Y80800D03*
X253500Y80800D03*
D13*
X420000Y95000D03*
X170000Y95000D03*
D12*
X53500Y415700D03*
X53500Y390300D03*
X53500Y364900D03*
X53500Y339500D03*
X53500Y314100D03*
X53500Y288700D03*
X53500Y237900D03*
X53500Y212500D03*
X53500Y187100D03*
X53500Y161700D03*
X53500Y136300D03*
X53500Y110900D03*
X536100Y110900D03*
X536100Y136300D03*
X536100Y161700D03*
X536100Y187100D03*
X536100Y212500D03*
X536100Y237900D03*
X536100Y263300D03*
X536100Y288700D03*
X536100Y326800D03*
X536100Y352200D03*
X536100Y377600D03*
X536100Y403000D03*
X536100Y428400D03*
X536100Y453800D03*
X536100Y479200D03*
X536100Y504600D03*
X263406Y564286D03*
X245446Y546326D03*
X353482Y564296D03*
X335522Y546336D03*
X444408Y564540D03*
X426448Y546580D03*
X173314Y564410D03*
X155354Y546450D03*
X262141Y455679D03*
X208259Y509561D03*
X352621Y455679D03*
X298739Y509561D03*
X443181Y455679D03*
X389299Y509561D03*
X171281Y455679D03*
X117399Y509561D03*
D14*
X449000Y184500D03*
X449000Y175500D03*
D15*
X416810Y159000D02*
X409190Y159000D01*
D16*
X418080Y159000D03*
X407920Y159000D03*
D14*
X260000Y195500D03*
X260000Y186500D03*
D15*
X233000Y168810D02*
X233000Y161190D01*
D14*
X233000Y159920D03*
X233000Y170080D03*
D12*
X30000Y110000D03*
X30000Y135400D03*
X30000Y160800D03*
X30000Y186200D03*
X30000Y211600D03*
X30000Y237000D03*
X560000Y430000D03*
X560000Y455400D03*
D17*
X189079Y325921D03*
X260921Y254079D03*
X359079Y330921D03*
X430921Y259079D03*
D18*
X372578Y194768D02*
X372578Y193958D01*
X351720Y110520D02*
X350400Y109200D01*
X372578Y194768D02*
X390000Y212191D01*
X390000Y300000D02*
X390000Y300000D01*
X372578Y194768D02*
X351720Y173911D01*
X351720Y110520D01*
X210000Y204991D02*
X199778Y194768D01*
X281200Y80800D02*
X281200Y65820D01*
X323460Y23560D01*
X479200Y23560D01*
X539360Y83720D01*
D19*
X539360Y83720D03*
D18*
X489960Y109040D02*
X449000Y150000D01*
X449000Y160000D01*
X420000Y160000D01*
X449000Y160000D02*
X449000Y170000D01*
X489960Y109040D02*
X489960Y85040D01*
X490000Y85000D01*
D19*
X490000Y85000D03*
D18*
X418080Y159000D02*
X417080Y160000D01*
X410000Y160000D01*
X318697Y160403D02*
X318696Y248650D01*
X278060Y160400D02*
X267900Y150240D01*
X267900Y109800D01*
X267300Y109200D01*
D19*
X318697Y160403D03*
X278060Y160400D03*
D18*
X523200Y161700D02*
X536100Y161700D01*
X523200Y161700D02*
X514280Y152780D01*
X514280Y74040D01*
X479040Y38800D01*
X350800Y38800D01*
X308800Y80800D01*
X525680Y187100D02*
X536100Y187100D01*
X525680Y187100D02*
X499040Y213740D01*
X482091Y230689D02*
X408499Y230689D01*
X482091Y230689D02*
X499040Y213740D01*
X430921Y253112D02*
X408499Y230689D01*
X430921Y253112D02*
X430921Y259079D01*
X523140Y212500D02*
X536100Y212500D01*
X523140Y212500D02*
X514280Y221360D01*
X514280Y251840D01*
X408870Y355980D01*
X279710Y355980D01*
D19*
X240610Y317610D03*
X279710Y355980D03*
D18*
X240610Y269390D02*
X260921Y254079D01*
X240610Y269390D02*
X240610Y317610D01*
X64020Y364900D02*
X53500Y364900D01*
X64020Y364900D02*
X77400Y351060D01*
X217100Y371060D02*
X295840Y292320D01*
X295840Y111310D01*
X295000Y109200D01*
X217100Y371060D02*
X152000Y371000D01*
X141060Y351060D01*
X138120Y351060D01*
D19*
X77400Y351060D03*
X138120Y351060D03*
D18*
X239600Y109200D02*
X240720Y109600D01*
X240720Y152200D02*
X233000Y159920D01*
X240720Y152200D02*
X240720Y109600D01*
X240720Y152200D02*
X260000Y171480D01*
X233000Y167000D02*
X233000Y159920D01*
X233000Y167000D02*
X230000Y170000D01*
D20*
X260000Y171480D02*
X260000Y186500D01*
D18*
X253500Y80800D02*
X233200Y80800D01*
X222180Y91820D01*
X222180Y145160D01*
X145980Y221360D01*
X145980Y248567D01*
X145896Y248650D01*
X235699Y230689D02*
X237133Y230690D01*
X261281Y257379D01*
X528140Y352200D02*
X536100Y352200D01*
X528140Y352200D02*
X514200Y366140D01*
X514200Y609980D01*
X483720Y640460D01*
X249364Y640460D02*
X173314Y564410D01*
X249364Y640460D02*
X483720Y640460D01*
X528680Y288700D02*
X536100Y288700D01*
X528680Y288700D02*
X481720Y335660D01*
X481720Y594740D01*
X466480Y609980D01*
X399166Y609980D01*
X353482Y564296D01*
X527680Y263300D02*
X536100Y263300D01*
X527680Y263300D02*
X465480Y325500D01*
X465480Y545470D01*
X444408Y564540D01*
X529680Y326800D02*
X536100Y326800D01*
X529680Y326800D02*
X497960Y358520D01*
X497960Y602360D01*
X475100Y625220D01*
X324340Y625220D01*
X263406Y564286D01*
X245446Y546326D02*
X243755Y545056D01*
X208259Y509561D01*
X332975Y543796D02*
X335522Y546336D01*
X332975Y543796D02*
X298739Y509561D01*
X423779Y544040D02*
X426448Y546580D01*
X423779Y544040D02*
X389299Y509561D01*
X155354Y546450D02*
X154084Y544975D01*
X117399Y509561D01*
X426459Y212729D02*
X449000Y192000D01*
D20*
X449000Y191864D02*
X447309Y193555D01*
X449000Y191864D02*
X449000Y184500D01*
D18*
X260000Y206388D02*
X253659Y212729D01*
X260000Y206388D02*
X260000Y200000D01*
X390538Y176808D02*
X390538Y159000D01*
X407920Y159000D01*
X226272Y176808D02*
X217738Y176808D01*
X226272Y176808D02*
X233000Y170080D01*
X336500Y80800D02*
X357300Y60000D01*
X470000Y60000D01*
D21*
X470000Y60000D03*
X550000Y60000D03*
D18*
X560000Y70000D01*
X560000Y370000D01*
X552400Y377600D02*
X536100Y377600D01*
X552400Y377600D02*
X560000Y370000D01*
X322700Y132700D02*
X322700Y109200D01*
X322700Y132700D02*
X330000Y140000D01*
D22*
X330000Y140000D03*
X180000Y140000D03*
D18*
X170000Y140000D02*
X95000Y215000D01*
X80000Y540000D02*
X210000Y670000D01*
X490000Y670000D01*
X580000Y580000D01*
X580000Y410000D01*
X573000Y403000D01*
X180000Y140000D02*
X170000Y140000D01*
X536100Y403000D02*
X573000Y403000D01*
X95000Y425000D02*
X95000Y215000D01*
X95000Y425000D02*
X80000Y440000D01*
X80000Y540000D01*
X52600Y237000D02*
X30000Y237000D01*
X52600Y237000D02*
X53500Y237900D01*
X52600Y211600D02*
X30000Y211600D01*
X52600Y211600D02*
X53500Y212500D01*
X30900Y187100D02*
X30000Y186200D01*
X30900Y187100D02*
X53500Y187100D01*
X53500Y161700D02*
X52600Y160800D01*
X30000Y160800D01*
X30000Y135400D02*
X52600Y135400D01*
X53500Y136300D01*
X53500Y110900D02*
X30900Y110900D01*
X30000Y110000D01*
X536100Y428400D02*
X537700Y430000D01*
X560000Y430000D01*
X536100Y453800D02*
X537700Y455400D01*
X560000Y455400D01*
M02*
