G04 EAGLE Gerber RS-274X export*
G75*
%MOMM*%
%FSLAX34Y34*%
%LPD*%
%INTop Copper*%
%IPPOS*%
%AMOC8*
5,1,8,0,0,1.08239X$1,22.5*%
G01*
%ADD10C,1.308000*%
%ADD11R,1.879600X1.879600*%
%ADD12C,1.879600*%
%ADD13C,5.080000*%
%ADD14C,1.981200*%
%ADD15C,1.930400*%
%ADD16C,0.812800*%
%ADD17C,1.950000*%
%ADD18C,1.900000*%


D10*
X354617Y284571D03*
X318696Y248650D03*
X390538Y176808D03*
X426459Y212729D03*
X408499Y230689D03*
X372578Y194768D03*
X181817Y284571D03*
X145896Y248650D03*
X217738Y176808D03*
X253659Y212729D03*
X235699Y230689D03*
X199778Y194768D03*
D11*
X350400Y109200D03*
D12*
X322700Y109200D03*
X295000Y109200D03*
X267300Y109200D03*
X239600Y109200D03*
X336500Y80800D03*
X308800Y80800D03*
X281200Y80800D03*
X253500Y80800D03*
D13*
X420000Y95000D03*
X170000Y95000D03*
D12*
X53500Y415700D03*
X53500Y390300D03*
X53500Y364900D03*
X53500Y339500D03*
X53500Y314100D03*
X53500Y288700D03*
X53500Y237900D03*
X53500Y212500D03*
X53500Y187100D03*
X53500Y161700D03*
X53500Y136300D03*
X53500Y110900D03*
X536100Y110900D03*
X536100Y136300D03*
X536100Y161700D03*
X536100Y187100D03*
X536100Y212500D03*
X536100Y237900D03*
X536100Y263300D03*
X536100Y288700D03*
X536100Y326800D03*
X536100Y352200D03*
X536100Y377600D03*
X536100Y403000D03*
X536100Y428400D03*
X536100Y453800D03*
X536100Y479200D03*
X536100Y504600D03*
X263406Y564286D03*
X245446Y546326D03*
X353482Y564296D03*
X335522Y546336D03*
X444408Y564540D03*
X426448Y546580D03*
X173314Y564410D03*
X155354Y546450D03*
X262141Y455679D03*
X208259Y509561D03*
X352621Y455679D03*
X298739Y509561D03*
X443181Y455679D03*
X389299Y509561D03*
X171281Y455679D03*
X117399Y509561D03*
X30000Y110000D03*
X30000Y135400D03*
X30000Y160800D03*
X30000Y186200D03*
X30000Y211600D03*
X30000Y237000D03*
X560000Y430000D03*
X560000Y455400D03*
D14*
X189079Y325921D03*
X260921Y254079D03*
X359079Y330921D03*
X430921Y259079D03*
D15*
X539360Y83720D03*
X490000Y85000D03*
D16*
X538080Y85000D01*
X539360Y83720D01*
X318700Y160400D02*
X318697Y160403D01*
X318700Y160400D02*
X278060Y160400D01*
D15*
X318697Y160403D03*
X278060Y160400D03*
D16*
X240610Y317610D02*
X279710Y355980D01*
D15*
X240610Y317610D03*
X279710Y355980D03*
D16*
X138120Y351060D02*
X77400Y351060D01*
D15*
X77400Y351060D03*
X138120Y351060D03*
D17*
X470000Y60000D03*
X550000Y60000D03*
D16*
X470000Y60000D01*
D18*
X330000Y140000D03*
D16*
X180000Y140000D01*
D18*
X180000Y140000D03*
M02*
