G04 EAGLE Gerber RS-274X export*
G75*
%MOMM*%
%FSLAX34Y34*%
%LPD*%
%INSilkscreen Bottom*%
%IPPOS*%
%AMOC8*
5,1,8,0,0,1.08239X$1,22.5*%
G01*
%ADD10C,0.203200*%
%ADD11C,0.025400*%


D10*
X459000Y172000D02*
X459000Y188000D01*
X442000Y170000D02*
X441902Y169982D01*
X441802Y169968D01*
X441703Y169958D01*
X441603Y169952D01*
X441503Y169950D01*
X441403Y169952D01*
X441303Y169958D01*
X441203Y169967D01*
X441104Y169981D01*
X441005Y169998D01*
X440907Y170020D01*
X440810Y170045D01*
X440715Y170074D01*
X440620Y170107D01*
X440527Y170143D01*
X440435Y170183D01*
X440345Y170227D01*
X440256Y170274D01*
X440170Y170324D01*
X440086Y170378D01*
X440003Y170435D01*
X439923Y170496D01*
X439846Y170559D01*
X439771Y170626D01*
X439699Y170695D01*
X439629Y170767D01*
X439563Y170842D01*
X439499Y170919D01*
X439439Y170999D01*
X439381Y171081D01*
X439327Y171165D01*
X439276Y171252D01*
X439229Y171340D01*
X439185Y171430D01*
X439145Y171522D01*
X439109Y171615D01*
X439076Y171709D01*
X439046Y171805D01*
X439021Y171902D01*
X439000Y172000D01*
X439000Y188000D02*
X439021Y188098D01*
X439046Y188195D01*
X439076Y188291D01*
X439109Y188385D01*
X439145Y188478D01*
X439185Y188570D01*
X439229Y188660D01*
X439276Y188748D01*
X439327Y188835D01*
X439381Y188919D01*
X439439Y189001D01*
X439499Y189081D01*
X439563Y189158D01*
X439629Y189233D01*
X439699Y189305D01*
X439771Y189374D01*
X439846Y189441D01*
X439923Y189504D01*
X440003Y189565D01*
X440086Y189622D01*
X440170Y189676D01*
X440256Y189726D01*
X440345Y189773D01*
X440435Y189817D01*
X440527Y189857D01*
X440620Y189893D01*
X440715Y189926D01*
X440810Y189955D01*
X440907Y189980D01*
X441005Y190002D01*
X441104Y190019D01*
X441203Y190033D01*
X441303Y190042D01*
X441403Y190048D01*
X441503Y190050D01*
X441603Y190048D01*
X441703Y190042D01*
X441802Y190032D01*
X441902Y190018D01*
X442000Y190000D01*
X456000Y190000D02*
X456098Y190018D01*
X456198Y190032D01*
X456297Y190042D01*
X456397Y190048D01*
X456497Y190050D01*
X456597Y190048D01*
X456697Y190042D01*
X456797Y190033D01*
X456896Y190019D01*
X456995Y190002D01*
X457093Y189980D01*
X457190Y189955D01*
X457285Y189926D01*
X457380Y189893D01*
X457473Y189857D01*
X457565Y189817D01*
X457655Y189773D01*
X457744Y189726D01*
X457830Y189676D01*
X457914Y189622D01*
X457997Y189565D01*
X458077Y189504D01*
X458154Y189441D01*
X458229Y189374D01*
X458301Y189305D01*
X458371Y189233D01*
X458437Y189158D01*
X458501Y189081D01*
X458561Y189001D01*
X458619Y188919D01*
X458673Y188835D01*
X458724Y188748D01*
X458771Y188660D01*
X458815Y188570D01*
X458855Y188478D01*
X458891Y188385D01*
X458924Y188291D01*
X458954Y188195D01*
X458979Y188098D01*
X459000Y188000D01*
X459000Y172000D02*
X458979Y171902D01*
X458954Y171805D01*
X458924Y171709D01*
X458891Y171615D01*
X458855Y171522D01*
X458815Y171430D01*
X458771Y171340D01*
X458724Y171252D01*
X458673Y171165D01*
X458619Y171081D01*
X458561Y170999D01*
X458501Y170919D01*
X458437Y170842D01*
X458371Y170767D01*
X458301Y170695D01*
X458229Y170626D01*
X458154Y170559D01*
X458077Y170496D01*
X457997Y170435D01*
X457914Y170378D01*
X457830Y170324D01*
X457744Y170274D01*
X457655Y170227D01*
X457565Y170183D01*
X457473Y170143D01*
X457380Y170107D01*
X457285Y170074D01*
X457190Y170045D01*
X457093Y170020D01*
X456995Y169998D01*
X456896Y169981D01*
X456797Y169967D01*
X456697Y169958D01*
X456597Y169952D01*
X456497Y169950D01*
X456397Y169952D01*
X456297Y169958D01*
X456198Y169968D01*
X456098Y169982D01*
X456000Y170000D01*
X439000Y172000D02*
X439000Y188000D01*
D11*
X435541Y180523D02*
X436176Y179887D01*
X436176Y178616D01*
X435541Y177981D01*
X434905Y177981D01*
X434270Y178616D01*
X434270Y179887D01*
X433634Y180523D01*
X432999Y180523D01*
X432363Y179887D01*
X432363Y178616D01*
X432999Y177981D01*
X432999Y181723D02*
X432363Y182358D01*
X432363Y182994D01*
X432999Y183629D01*
X436176Y183629D01*
X436176Y182994D02*
X436176Y184265D01*
X434905Y185465D02*
X436176Y186736D01*
X432363Y186736D01*
X432363Y185465D02*
X432363Y188007D01*
D10*
X421255Y148840D02*
X404745Y148840D01*
X402205Y166620D02*
X402207Y166720D01*
X402213Y166819D01*
X402223Y166919D01*
X402236Y167017D01*
X402254Y167116D01*
X402275Y167213D01*
X402300Y167309D01*
X402329Y167405D01*
X402362Y167499D01*
X402398Y167592D01*
X402438Y167683D01*
X402482Y167773D01*
X402529Y167861D01*
X402579Y167947D01*
X402633Y168031D01*
X402690Y168113D01*
X402750Y168192D01*
X402814Y168270D01*
X402880Y168344D01*
X402949Y168416D01*
X403021Y168485D01*
X403095Y168551D01*
X403173Y168615D01*
X403252Y168675D01*
X403334Y168732D01*
X403418Y168786D01*
X403504Y168836D01*
X403592Y168883D01*
X403682Y168927D01*
X403773Y168967D01*
X403866Y169003D01*
X403960Y169036D01*
X404056Y169065D01*
X404152Y169090D01*
X404249Y169111D01*
X404348Y169129D01*
X404446Y169142D01*
X404546Y169152D01*
X404645Y169158D01*
X404745Y169160D01*
X421255Y169160D02*
X421355Y169158D01*
X421454Y169152D01*
X421554Y169142D01*
X421652Y169129D01*
X421751Y169111D01*
X421848Y169090D01*
X421944Y169065D01*
X422040Y169036D01*
X422134Y169003D01*
X422227Y168967D01*
X422318Y168927D01*
X422408Y168883D01*
X422496Y168836D01*
X422582Y168786D01*
X422666Y168732D01*
X422748Y168675D01*
X422827Y168615D01*
X422905Y168551D01*
X422979Y168485D01*
X423051Y168416D01*
X423120Y168344D01*
X423186Y168270D01*
X423250Y168192D01*
X423310Y168113D01*
X423367Y168031D01*
X423421Y167947D01*
X423471Y167861D01*
X423518Y167773D01*
X423562Y167683D01*
X423602Y167592D01*
X423638Y167499D01*
X423671Y167405D01*
X423700Y167309D01*
X423725Y167213D01*
X423746Y167116D01*
X423764Y167017D01*
X423777Y166919D01*
X423787Y166819D01*
X423793Y166720D01*
X423795Y166620D01*
X423795Y151380D02*
X423793Y151280D01*
X423787Y151181D01*
X423777Y151081D01*
X423764Y150983D01*
X423746Y150884D01*
X423725Y150787D01*
X423700Y150691D01*
X423671Y150595D01*
X423638Y150501D01*
X423602Y150408D01*
X423562Y150317D01*
X423518Y150227D01*
X423471Y150139D01*
X423421Y150053D01*
X423367Y149969D01*
X423310Y149887D01*
X423250Y149808D01*
X423186Y149730D01*
X423120Y149656D01*
X423051Y149584D01*
X422979Y149515D01*
X422905Y149449D01*
X422827Y149385D01*
X422748Y149325D01*
X422666Y149268D01*
X422582Y149214D01*
X422496Y149164D01*
X422408Y149117D01*
X422318Y149073D01*
X422227Y149033D01*
X422134Y148997D01*
X422040Y148964D01*
X421944Y148935D01*
X421848Y148910D01*
X421751Y148889D01*
X421652Y148871D01*
X421554Y148858D01*
X421454Y148848D01*
X421355Y148842D01*
X421255Y148840D01*
X404745Y148840D02*
X404645Y148842D01*
X404546Y148848D01*
X404446Y148858D01*
X404348Y148871D01*
X404249Y148889D01*
X404152Y148910D01*
X404056Y148935D01*
X403960Y148964D01*
X403866Y148997D01*
X403773Y149033D01*
X403682Y149073D01*
X403592Y149117D01*
X403504Y149164D01*
X403418Y149214D01*
X403334Y149268D01*
X403252Y149325D01*
X403173Y149385D01*
X403095Y149449D01*
X403021Y149515D01*
X402949Y149584D01*
X402880Y149656D01*
X402814Y149730D01*
X402750Y149808D01*
X402690Y149887D01*
X402633Y149969D01*
X402579Y150053D01*
X402529Y150139D01*
X402482Y150227D01*
X402438Y150317D01*
X402398Y150408D01*
X402362Y150501D01*
X402329Y150595D01*
X402300Y150691D01*
X402275Y150787D01*
X402254Y150884D01*
X402236Y150983D01*
X402223Y151081D01*
X402213Y151181D01*
X402207Y151280D01*
X402205Y151380D01*
X404745Y169160D02*
X421255Y169160D01*
D11*
X419856Y175005D02*
X420491Y175640D01*
X421762Y175640D01*
X422398Y175005D01*
X422398Y174369D01*
X421762Y173734D01*
X420491Y173734D01*
X419856Y173098D01*
X419856Y172463D01*
X420491Y171827D01*
X421762Y171827D01*
X422398Y172463D01*
X418656Y172463D02*
X418020Y171827D01*
X417385Y171827D01*
X416749Y172463D01*
X416749Y175640D01*
X416114Y175640D02*
X417385Y175640D01*
X414914Y171827D02*
X412372Y171827D01*
X414914Y171827D02*
X412372Y174369D01*
X412372Y175005D01*
X413007Y175640D01*
X414278Y175640D01*
X414914Y175005D01*
D10*
X270000Y183000D02*
X270000Y199000D01*
X253000Y181000D02*
X252902Y180982D01*
X252802Y180968D01*
X252703Y180958D01*
X252603Y180952D01*
X252503Y180950D01*
X252403Y180952D01*
X252303Y180958D01*
X252203Y180967D01*
X252104Y180981D01*
X252005Y180998D01*
X251907Y181020D01*
X251810Y181045D01*
X251715Y181074D01*
X251620Y181107D01*
X251527Y181143D01*
X251435Y181183D01*
X251345Y181227D01*
X251256Y181274D01*
X251170Y181324D01*
X251086Y181378D01*
X251003Y181435D01*
X250923Y181496D01*
X250846Y181559D01*
X250771Y181626D01*
X250699Y181695D01*
X250629Y181767D01*
X250563Y181842D01*
X250499Y181919D01*
X250439Y181999D01*
X250381Y182081D01*
X250327Y182165D01*
X250276Y182252D01*
X250229Y182340D01*
X250185Y182430D01*
X250145Y182522D01*
X250109Y182615D01*
X250076Y182709D01*
X250046Y182805D01*
X250021Y182902D01*
X250000Y183000D01*
X250000Y199000D02*
X250021Y199098D01*
X250046Y199195D01*
X250076Y199291D01*
X250109Y199385D01*
X250145Y199478D01*
X250185Y199570D01*
X250229Y199660D01*
X250276Y199748D01*
X250327Y199835D01*
X250381Y199919D01*
X250439Y200001D01*
X250499Y200081D01*
X250563Y200158D01*
X250629Y200233D01*
X250699Y200305D01*
X250771Y200374D01*
X250846Y200441D01*
X250923Y200504D01*
X251003Y200565D01*
X251086Y200622D01*
X251170Y200676D01*
X251256Y200726D01*
X251345Y200773D01*
X251435Y200817D01*
X251527Y200857D01*
X251620Y200893D01*
X251715Y200926D01*
X251810Y200955D01*
X251907Y200980D01*
X252005Y201002D01*
X252104Y201019D01*
X252203Y201033D01*
X252303Y201042D01*
X252403Y201048D01*
X252503Y201050D01*
X252603Y201048D01*
X252703Y201042D01*
X252802Y201032D01*
X252902Y201018D01*
X253000Y201000D01*
X267000Y201000D02*
X267098Y201018D01*
X267198Y201032D01*
X267297Y201042D01*
X267397Y201048D01*
X267497Y201050D01*
X267597Y201048D01*
X267697Y201042D01*
X267797Y201033D01*
X267896Y201019D01*
X267995Y201002D01*
X268093Y200980D01*
X268190Y200955D01*
X268285Y200926D01*
X268380Y200893D01*
X268473Y200857D01*
X268565Y200817D01*
X268655Y200773D01*
X268744Y200726D01*
X268830Y200676D01*
X268914Y200622D01*
X268997Y200565D01*
X269077Y200504D01*
X269154Y200441D01*
X269229Y200374D01*
X269301Y200305D01*
X269371Y200233D01*
X269437Y200158D01*
X269501Y200081D01*
X269561Y200001D01*
X269619Y199919D01*
X269673Y199835D01*
X269724Y199748D01*
X269771Y199660D01*
X269815Y199570D01*
X269855Y199478D01*
X269891Y199385D01*
X269924Y199291D01*
X269954Y199195D01*
X269979Y199098D01*
X270000Y199000D01*
X270000Y183000D02*
X269979Y182902D01*
X269954Y182805D01*
X269924Y182709D01*
X269891Y182615D01*
X269855Y182522D01*
X269815Y182430D01*
X269771Y182340D01*
X269724Y182252D01*
X269673Y182165D01*
X269619Y182081D01*
X269561Y181999D01*
X269501Y181919D01*
X269437Y181842D01*
X269371Y181767D01*
X269301Y181695D01*
X269229Y181626D01*
X269154Y181559D01*
X269077Y181496D01*
X268997Y181435D01*
X268914Y181378D01*
X268830Y181324D01*
X268744Y181274D01*
X268655Y181227D01*
X268565Y181183D01*
X268473Y181143D01*
X268380Y181107D01*
X268285Y181074D01*
X268190Y181045D01*
X268093Y181020D01*
X267995Y180998D01*
X267896Y180981D01*
X267797Y180967D01*
X267697Y180958D01*
X267597Y180952D01*
X267497Y180950D01*
X267397Y180952D01*
X267297Y180958D01*
X267198Y180968D01*
X267098Y180982D01*
X267000Y181000D01*
X250000Y183000D02*
X250000Y199000D01*
D11*
X246541Y191523D02*
X247176Y190887D01*
X247176Y189616D01*
X246541Y188981D01*
X245905Y188981D01*
X245270Y189616D01*
X245270Y190887D01*
X244634Y191523D01*
X243999Y191523D01*
X243363Y190887D01*
X243363Y189616D01*
X243999Y188981D01*
X243999Y192723D02*
X243363Y193358D01*
X243363Y193994D01*
X243999Y194629D01*
X247176Y194629D01*
X247176Y193994D02*
X247176Y195265D01*
X246541Y196465D02*
X247176Y197100D01*
X247176Y198372D01*
X246541Y199007D01*
X245905Y199007D01*
X245270Y198372D01*
X245270Y197736D01*
X245270Y198372D02*
X244634Y199007D01*
X243999Y199007D01*
X243363Y198372D01*
X243363Y197100D01*
X243999Y196465D01*
D10*
X222840Y173255D02*
X222840Y156745D01*
X240620Y175795D02*
X240720Y175793D01*
X240819Y175787D01*
X240919Y175777D01*
X241017Y175764D01*
X241116Y175746D01*
X241213Y175725D01*
X241309Y175700D01*
X241405Y175671D01*
X241499Y175638D01*
X241592Y175602D01*
X241683Y175562D01*
X241773Y175518D01*
X241861Y175471D01*
X241947Y175421D01*
X242031Y175367D01*
X242113Y175310D01*
X242192Y175250D01*
X242270Y175186D01*
X242344Y175120D01*
X242416Y175051D01*
X242485Y174979D01*
X242551Y174905D01*
X242615Y174827D01*
X242675Y174748D01*
X242732Y174666D01*
X242786Y174582D01*
X242836Y174496D01*
X242883Y174408D01*
X242927Y174318D01*
X242967Y174227D01*
X243003Y174134D01*
X243036Y174040D01*
X243065Y173944D01*
X243090Y173848D01*
X243111Y173751D01*
X243129Y173652D01*
X243142Y173554D01*
X243152Y173454D01*
X243158Y173355D01*
X243160Y173255D01*
X243160Y156745D02*
X243158Y156645D01*
X243152Y156546D01*
X243142Y156446D01*
X243129Y156348D01*
X243111Y156249D01*
X243090Y156152D01*
X243065Y156056D01*
X243036Y155960D01*
X243003Y155866D01*
X242967Y155773D01*
X242927Y155682D01*
X242883Y155592D01*
X242836Y155504D01*
X242786Y155418D01*
X242732Y155334D01*
X242675Y155252D01*
X242615Y155173D01*
X242551Y155095D01*
X242485Y155021D01*
X242416Y154949D01*
X242344Y154880D01*
X242270Y154814D01*
X242192Y154750D01*
X242113Y154690D01*
X242031Y154633D01*
X241947Y154579D01*
X241861Y154529D01*
X241773Y154482D01*
X241683Y154438D01*
X241592Y154398D01*
X241499Y154362D01*
X241405Y154329D01*
X241309Y154300D01*
X241213Y154275D01*
X241116Y154254D01*
X241017Y154236D01*
X240919Y154223D01*
X240819Y154213D01*
X240720Y154207D01*
X240620Y154205D01*
X225380Y154205D02*
X225280Y154207D01*
X225181Y154213D01*
X225081Y154223D01*
X224983Y154236D01*
X224884Y154254D01*
X224787Y154275D01*
X224691Y154300D01*
X224595Y154329D01*
X224501Y154362D01*
X224408Y154398D01*
X224317Y154438D01*
X224227Y154482D01*
X224139Y154529D01*
X224053Y154579D01*
X223969Y154633D01*
X223887Y154690D01*
X223808Y154750D01*
X223730Y154814D01*
X223656Y154880D01*
X223584Y154949D01*
X223515Y155021D01*
X223449Y155095D01*
X223385Y155173D01*
X223325Y155252D01*
X223268Y155334D01*
X223214Y155418D01*
X223164Y155504D01*
X223117Y155592D01*
X223073Y155682D01*
X223033Y155773D01*
X222997Y155866D01*
X222964Y155960D01*
X222935Y156056D01*
X222910Y156152D01*
X222889Y156249D01*
X222871Y156348D01*
X222858Y156446D01*
X222848Y156546D01*
X222842Y156645D01*
X222840Y156745D01*
X222840Y173255D02*
X222842Y173355D01*
X222848Y173454D01*
X222858Y173554D01*
X222871Y173652D01*
X222889Y173751D01*
X222910Y173848D01*
X222935Y173944D01*
X222964Y174040D01*
X222997Y174134D01*
X223033Y174227D01*
X223073Y174318D01*
X223117Y174408D01*
X223164Y174496D01*
X223214Y174582D01*
X223268Y174666D01*
X223325Y174748D01*
X223385Y174827D01*
X223449Y174905D01*
X223515Y174979D01*
X223584Y175051D01*
X223656Y175120D01*
X223730Y175186D01*
X223808Y175250D01*
X223887Y175310D01*
X223969Y175367D01*
X224053Y175421D01*
X224139Y175471D01*
X224227Y175518D01*
X224317Y175562D01*
X224408Y175602D01*
X224501Y175638D01*
X224595Y175671D01*
X224691Y175700D01*
X224787Y175725D01*
X224884Y175746D01*
X224983Y175764D01*
X225081Y175777D01*
X225181Y175787D01*
X225280Y175793D01*
X225380Y175795D01*
X243160Y173255D02*
X243160Y156745D01*
D11*
X249005Y158144D02*
X249640Y157509D01*
X249640Y156238D01*
X249005Y155602D01*
X248369Y155602D01*
X247734Y156238D01*
X247734Y157509D01*
X247098Y158144D01*
X246463Y158144D01*
X245827Y157509D01*
X245827Y156238D01*
X246463Y155602D01*
X246463Y159344D02*
X245827Y159980D01*
X245827Y160615D01*
X246463Y161251D01*
X249640Y161251D01*
X249640Y161886D02*
X249640Y160615D01*
X249640Y164993D02*
X245827Y164993D01*
X247734Y163086D02*
X249640Y164993D01*
X247734Y165628D02*
X247734Y163086D01*
M02*
