M48
;GenerationSoftware,Autodesk,EAGLE,9.4.2*%
;CreationDate,2019-08-08T09:16:39Z*%
FMAT,2
ICI,OFF
METRIC,TZ,000.000
T7C0.800
T6C0.813
T5C0.900
T4C1.000
T3C1.016
T2C1.300
T1C3.302
%
G90
M71
T1
X17000Y9500
X42000Y9500
T2
X55000Y6000
X47000Y6000
T3
X24061Y31761
X27971Y35598
X7740Y35106
X13812Y35106
X27806Y16040
X31870Y16040
X56000Y45540
X56000Y43000
X3000Y23700
X3000Y21160
X3000Y18620
X3000Y16080
X3000Y13540
X3000Y11000
X53610Y50460
X53610Y47920
X53610Y45380
X53610Y42840
X53610Y40300
X53610Y37760
X35040Y10920
X32270Y10920
X29500Y10920
X26730Y10920
X23960Y10920
X33650Y8080
X30880Y8080
X28120Y8080
X25350Y8080
X49000Y8500
X53936Y8372
X5350Y41570
X5350Y39030
X5350Y36490
X5350Y33950
X5350Y31410
X5350Y28870
X5350Y23790
X5350Y21250
X5350Y18710
X5350Y16170
X5350Y13630
X5350Y11090
X53610Y11090
X53610Y13630
X53610Y16170
X53610Y18710
X53610Y21250
X53610Y23790
X53610Y26330
X53610Y28870
X53610Y32680
X53610Y35220
T4
X43092Y25908
X35908Y33092
X26092Y25408
X18908Y32592
X33000Y14000
X18000Y14000
T5
X29874Y50956
X26214Y45568
X20826Y50956
X35262Y45568
X44318Y45568
X38930Y50956
X17128Y45568
X11740Y50956
T6
X24545Y54633
X35348Y56430
X33552Y54634
X44441Y56454
X42645Y54658
X17331Y56441
X15535Y54645
X26341Y56429
T7
X37258Y19477
X40850Y23069
X42646Y21273
X39054Y17681
X31870Y24865
X35462Y28457
X18182Y28457
X14590Y24865
X21774Y17681
X25366Y21273
X23570Y23069
X19978Y19477
M30